<?xml version="1.0" encoding="utf-8"?>
<!-- Generator: Adobe Illustrator 16.0.0, SVG Export Plug-In . SVG Version: 6.00 Build 0)  -->
<!DOCTYPE svg PUBLIC "-//W3C//DTD SVG 1.1//EN" "http://www.w3.org/Graphics/SVG/1.1/DTD/svg11.dtd">
<svg version="1.1" id="Layer_1" xmlns="http://www.w3.org/2000/svg" xmlns:xlink="http://www.w3.org/1999/xlink" x="0px" y="0px"
	 width="100px" height="100px" viewBox="0 0 100 100" enable-background="new 0 0 100 100" xml:space="preserve">
<g>
	<path fill="#6CC49C" d="M76.594,34.126v-0.01c0.061-1.79-0.15-3.4-0.62-4.49c-0.81-1.85-2.5-3.4-4.13-4.89
		c-0.87-0.8-1.689-1.55-2.38-2.34c-1.011-1.15-1.479-2.52-1.19-3.41c0.211-0.64,0.86-1.08,1.91-1.3l1.45-0.31l-0.819-1.22
		c-0.32-0.48-0.791-0.98-1.32-1.46c-0.01-0.01-0.01-0.01-0.021-0.01c-2.13-2.72-8.04-2.56-9.79-2.08c0.09-0.75,0.93-3.7,2.67-4.42
		c9.48,3.22,17.311,10.04,21.83,18.83c0.01,0.02,0.02,0.03,0.03,0.05c0.659,1.28,1.25,2.61,1.76,3.98
		c1.261,3.36,2.07,6.94,2.341,10.68c-2.921,0-11.24,0.14-13.791,0.19c0.641-1.07,1.12-2.34,1.471-3.67
		C76.344,36.886,76.544,35.456,76.594,34.126z"/>
	<path fill="#6CC49C" d="M50.037,77.121c-8.439-0.096-21.048-1.775-23.258-7.701c-2.027-5.436-0.804-20.604,0.098-22.788
		c1.227-6.881,3.118-9.364,5.864-11.727c4.771,2.03,5.789,5.712,7.036,8.794c0.139-1.192,0-2.931,0-2.931
		c4.285-1.013,5.875-1.173,10.261-1.173l-0.024-0.016c4.385,0,5.977,0.16,10.262,1.173c0,0-0.14,1.739,0,2.931
		c1.248-3.083,2.264-6.765,7.035-8.794c2.746,2.363,4.637,4.846,5.864,11.727c0.901,2.183,2.125,17.353,0.099,22.786
		c-2.211,5.928-14.82,7.607-23.259,7.701L50.037,77.121z"/>
	<path fill="#6CC49C" d="M50.014,82.967l0.02,0.01c-20.86,0-37-15.82-38.32-35.84c2.35,0.02,9.71,0.05,12.4,0.06
		c-0.26,1.65-2.23,15.3,0.08,22.669l0.11,0.291c0.93,2.439,3.11,8.16,24.27,9.709l2.98-0.01c21.08-1.549,23.261-7.27,24.19-9.709
		l0.14-0.361c2.28-7.27,0.319-20.859,0.05-22.579c2.689-0.02,10.051-0.05,12.4-0.07C87.014,67.146,70.884,82.967,50.014,82.967z"/>
	<path fill="#6CC49C" stroke="#FFFFFF" stroke-width="2" stroke-miterlimit="10" d="M50.013,82.969"/>
	<path fill="#6CC49C" d="M29.234,16.596l-0.4,1.08l1.13,0.24c1.05,0.22,1.7,0.66,1.91,1.29c0.29,0.89-0.18,2.27-1.19,3.42
		c-0.69,0.78-1.51,1.54-2.38,2.33c-1.63,1.5-3.32,3.04-4.13,4.9c-0.89,2.04-0.85,5.79,0.2,9.09c0.12,0.38,0.25,0.75,0.4,1.11
		c0.27,0.66,0.58,1.28,0.94,1.86c-0.29,0-0.7-0.01-1.19-0.02c-1.73-0.03-4.49-0.08-7.1-0.12c-2.32-0.02-4.51-0.05-5.74-0.05
		c1.15-15.64,11.67-28.69,25.97-33.54c1.73,0.72,2.57,3.67,2.66,4.43c-1.81-0.51-8.19-0.66-10.05,2.45
		C29.794,15.556,29.424,16.086,29.234,16.596z"/>
	<path fill="#6CC49C" d="M49.99,39.585L49.99,39.585z"/>
	<path fill="#1B4A4A" d="M67.31,36.648c0,0,4.69,3.887,4.69,11.728c-1.084-1.055-2.707-2.8-5.276-1.173
		C66.309,44.589,66.556,39.747,67.31,36.648z"/>
	<path fill="#1B4A4A" d="M53.238,68.629c-0.979,0.127-1.886-0.193-1.76,2.346c0.44-0.371,0.479-0.652,1.172-0.586
		c0.694,0.066,0.994-0.234,1.174-0.586C54.023,69.41,53.875,68.547,53.238,68.629z"/>
	<path fill="#1B4A4A" d="M46.789,47.034c0,0,5.146,5.714,6.292,6.188c2.439-0.953,6.416-3.665,7.188-5.306
		c-1.021-3.291-1.233-5.654-2.696-7.072c-2.814-0.616-4.494,0-4.494,0s-0.532,3.694-1.797,4.419
		C50.017,45.991,46.789,47.034,46.789,47.034z"/>
	<path fill="#1B4A4A" d="M41.511,48.375c0,0,2.55-1.458,2.345-2.932c-0.205-1.474-1.758-2.345-1.758-2.345s-1.083,0-1.759,1.172
		C39.662,45.443,41.511,48.375,41.511,48.375z"/>
	<path fill="#1B4A4A" d="M44.443,51.893c0.25-1.333,1.405-1.751,2.346-1.758c0.939-0.008,2.32,1.141,2.931,2.346
		s1.214,2.209,1.173,2.932C47.76,55.053,44.194,53.227,44.443,51.893z"/>
	<path fill="#1B4A4A" d="M86.074,30.776c-0.03,0.09-0.061,0.18-0.101,0.27c-2.271,6.33-5.17,7.81-8.93,8.53c0,0-0.62-0.53-1.05-1.33
		c0.35-1.36,0.55-2.79,0.6-4.12v-0.01c0.779-1.65,1.63-3.91,1.189-7.23c-1.09-2.86-1.459-3.85-2.029-4.91
		c1.05-1.85,2.58-2.93,2.58-2.93s3.06,3.05,5.85,7.97c0.01,0.02,0.02,0.03,0.03,0.05C84.863,28.206,85.494,29.446,86.074,30.776z"/>
	<path fill="#1B4A4A" d="M14.669,29.572c0,0,0.016,1.925,0.458,2.386c1.575,0.199,5.601-0.967,7.036-2.345
		c0.839-2.087,0.133-3.219,0.586-4.691c1.193-0.75,1.431-3.834,3.518-5.277c-1.198-1.228-2.349-0.875-3.518-0.586
		C21.582,19.346,17.407,23.443,14.669,29.572z"/>
	<path fill="#1B4A4A" d="M24.774,40.056c-0.03,0.75-0.21,1.66-0.25,1.84c-0.01,0.02-0.01,0.03-0.01,0.03h-7.04
		c0,0-0.02-0.05-0.05-0.15c-0.18-0.58-0.65-2.82,1.22-5.71c1.89-1.17,3.52,0,3.52,0c0.79,1.84,1.61,2.61,2.21,2.88
		C24.494,39.326,24.624,39.696,24.774,40.056z"/>
	<path fill="#1B4A4A" d="M46.842,68.783c0.949,0.119,1.828-0.182,1.706,2.191c-0.427-0.348-0.464-0.609-1.137-0.549
		c-0.673,0.063-0.964-0.217-1.137-0.547C46.08,69.512,46.222,68.705,46.842,68.783z"/>
	<path fill="#BE224A" d="M57.929,67.445c-0.808-1.354-0.754-1.643-0.405-3.334c0.883-1.389,4.377-8.871,12.172-8.697
		c3.021,3.383,2.608,7.119,2.305,8.516C69.488,68.633,61.716,69.498,57.929,67.445z"/>
	<path fill="#FFFFFF" d="M62.224,61.314c-1.047,1.313-2.325,3.928,0.442,6.131C64.938,65.322,63.658,62.408,62.224,61.314z"/>
	<g>
		<g>
			<path fill="#6FA842" d="M63.705,84.969c17.014-5.502,29.148-21.332,28.971-39.929C92.478,24.515,77.328,7.387,57.484,3.774
				c-2.399-0.437-5.521-1.016-2.488,16.458c-2.297,1.211-4.104-0.587-4.104-0.587s0.057-1.548,0-5.863
				C50.711-0.153,54.134,1.05,56.119,1.335C77.841,4.45,94.66,22.9,94.873,45.13C95.059,64.375,82.757,80.811,65.369,86.9
				c-4.655,1.631-3.906,2.354-4.51,3.689c1.365-0.471,2.994,2.744,0.586,5.863c-1.131,1.467-2.24,2.482-2.931,2.346
				c-1.991-2.9-3.108-4.982-2.346-8.209C56.713,88.293,59.554,86.313,63.705,84.969z"/>
			<path fill="#6FA842" d="M43.833,90.596c0.763,3.229-0.355,5.311-2.346,8.209c-0.69,0.139-1.799-0.879-2.931-2.344
				c-2.408-3.121-0.778-6.334,0.586-5.865c-0.603-1.336,0.146-2.059-4.509-3.688C17.245,80.818,4.944,64.381,5.128,45.137
				c0.213-22.23,17.033-40.68,38.755-43.795c1.986-0.285,5.408-1.488,5.227,12.446c-0.056,4.315,0,5.863,0,5.863
				s-1.807,1.798-4.104,0.587C48.039,2.765,44.918,3.343,42.519,3.78C22.675,7.393,7.525,24.521,7.327,45.046
				c-0.178,18.595,11.957,34.427,28.97,39.929C40.449,86.316,43.29,88.299,43.833,90.596z"/>
		</g>
	</g>
	<path fill="#1B4A4A" d="M33.28,47.208c-2.57-1.627-4.193,0.118-5.277,1.173c0-7.841,4.691-11.728,4.691-11.728
		C33.447,39.752,33.694,44.595,33.28,47.208z"/>
	<path fill="#BE224A" d="M28.002,63.934c-0.304-1.396-0.716-5.131,2.306-8.514c7.795-0.174,11.333,7.209,12.216,8.598
		c0.349,1.691,0.357,2.078-0.45,3.434C38.287,69.504,30.514,68.637,28.002,63.934z"/>
	<path fill="#FFFFFF" d="M27.835,63.934c-0.304-1.396-0.716-5.131,2.306-8.514c1.145-0.027,2.2,0.072,3.172,0.262
		c-3.8,2.117-4.175,7.18-3.47,10.578C29.019,65.627,28.326,64.854,27.835,63.934z"/>
	<path fill="#FFFFFF" d="M70.164,66.26c0.705-3.398,0.33-8.461-3.471-10.58c0.973-0.189,2.027-0.287,3.172-0.262
		c3.022,3.383,2.609,7.119,2.307,8.514C71.681,64.854,70.988,65.627,70.164,66.26z"/>
	<path fill="#FFFFFF" d="M37.312,67.451c2.809-2.377,1.512-5.197,0.45-6.613C36.306,62.018,35.009,65.162,37.312,67.451z"/>
	<g>
		<path fill="#BE224A" d="M30.437,71.563c-0.079-0.039-0.258-0.067-0.21-0.219c0.076-0.099,0.187-0.133,0.287-0.176
			c0.207-0.078,0.419-0.131,0.633-0.179c0.428-0.091,0.859-0.154,1.292-0.207c0.44-0.034,0.852-0.129,1.345-0.045l1.283,0.211
			l5.114,0.939c1.707,0.314,3.401,0.684,5.097,1.071c0.848,0.191,1.692,0.397,2.536,0.635c0.423,0.121,0.842,0.216,1.269,0.357
			l1.285,0.456l-0.346-0.029l0.014-0.004l-0.081,0.029l1.285-0.456c0.427-0.143,0.845-0.237,1.269-0.357
			c0.844-0.238,1.688-0.443,2.535-0.636c1.695-0.387,3.389-0.759,5.095-1.072l5.115-0.939l1.279-0.209
			c0.504-0.086,0.908,0.03,1.348,0.074c0.432,0.064,0.861,0.139,1.286,0.234c0.213,0.052,0.424,0.105,0.632,0.179
			c0.102,0.039,0.209,0.072,0.298,0.152c0.064,0.051-0.003,0.134-0.053,0.142c-0.051,0.021-0.104,0.031-0.157,0.044
			c0.08-0.027,0.265-0.087,0.184-0.159c-0.08-0.057-0.191-0.081-0.293-0.106c-0.209-0.047-0.423-0.076-0.637-0.102
			c-0.427-0.056-0.856-0.094-1.286-0.12c-0.418-0.011-0.89-0.073-1.237,0.029l-1.264,0.322l-5.051,1.211
			c-1.678,0.423-3.367,0.799-5.035,1.239c-0.836,0.213-1.676,0.415-2.496,0.657c-0.408,0.12-0.835,0.223-1.228,0.357l-1.161,0.42
			l-0.081,0.029l-0.014,0.004l-0.15,0.041l-0.196-0.071l-1.161-0.419c-0.393-0.136-0.82-0.237-1.229-0.357
			c-0.82-0.243-1.66-0.443-2.497-0.658c-1.668-0.439-3.357-0.817-5.036-1.24l-5.055-1.211l-1.261-0.321
			c-0.358-0.104-0.823-0.06-1.243-0.059c-0.43,0.015-0.861,0.043-1.288,0.092c-0.213,0.023-0.428,0.051-0.634,0.103
			c-0.1,0.027-0.212,0.056-0.278,0.124C30.205,71.448,30.354,71.521,30.437,71.563z"/>
	</g>
</g>
<path fill="none" stroke="#010101" stroke-width="0.25" stroke-miterlimit="10" d="M50.013,94.035"/>
<path fill="none" stroke="#010101" stroke-width="0.25" stroke-miterlimit="10" d="M50.013,1.258"/>
<path fill="#6FA842" d="M71.984,40.166c-1.5-3.99-3.931-6.52-4.69-7.04c-1.729,0.99-6.3,3.17-7.03,7.63
	c-4.29-1.02-5.88-1.18-10.25-1.18h-0.01l-0.02,0.01c-4.39,0-5.98,0.16-10.27,1.17c-0.73-4.45-5.3-6.63-7.03-7.62
	c-0.76,0.52-3.19,3.04-4.69,7.03c-1.93-2.77-2.18-7.89-1.39-10.54c0.77-1.1,1.92-2.16,3.05-3.19c0.87-0.8,1.78-1.63,2.54-2.5
	c0.8-0.92,1.55-2.21,1.73-3.54c0-0.01,0-0.02,0-0.02c0.34-1.15,0.18-2.31-0.89-3.04c-0.31-0.34-0.73-0.67-1.3-0.93
	c0.7-0.7,1.79-1.39,2.55-1.64h0.01c0.01,0,0.01,0,0.01,0c0.69-0.07,1.25,0.02,1.9,0.19c0.69,0.19,2.25,1.5,3.51,2.93
	c-1.11,1.62-1.95,4.54-1.76,6.45c0.32,3.11,1.59,5.46,2.94,7.63c0.01-3.95,4.01-5.26,5.86-7.04c2.81-2.7,3.23-3.55,3.23-3.55
	l0.01-0.01c0,0,0.42,0.86,3.23,3.55c1.851,1.79,5.851,3.1,5.87,7.04c1.35-2.17,2.609-4.52,2.93-7.62c0.19-1.91-0.65-4.84-1.76-6.45
	c1.26-1.44,2.82-2.75,3.52-2.93c0.69-0.19,1.281-0.28,2.051-0.17c0.01-0.01,0.02,0,0.029,0c0.67,0.21,1.621,0.79,2.381,1.47
	c-0.61,0.31-1.041,0.7-1.33,1.1c0,0-0.01,0-0.01,0.01c-1.48,1.05-1.16,2.93-0.181,4.45c0,0.01,0.011,0.02,0.011,0.02
	c0.33,0.71,0.76,1.35,1.219,1.88c0.761,0.87,1.67,1.69,2.541,2.49c0.89,0.81,1.789,1.64,2.51,2.49c0.01,0.01,0.01,0.02,0.02,0.03
	c0.051,0.1,0.09,0.2,0.141,0.3C74.203,31.406,74.074,37.166,71.984,40.166z"/>
<path fill="#6FA842" d="M50.013,39.585L50.013,39.585z"/>
<text transform="matrix(0.6737 0 0 1 43.8677 88.8193)" fill="#6FA842" font-family="'Gadugi-Bold'" font-size="5.9004">N° 001</text>
</svg>
