<?xml version="1.0" encoding="UTF-8" standalone="no"?>
<!-- Generator: Adobe Illustrator 16.0.0, SVG Export Plug-In . SVG Version: 6.00 Build 0)  -->

<svg
   xmlns:dc="http://purl.org/dc/elements/1.1/"
   xmlns:cc="http://creativecommons.org/ns#"
   xmlns:rdf="http://www.w3.org/1999/02/22-rdf-syntax-ns#"
   xmlns:svg="http://www.w3.org/2000/svg"
   xmlns="http://www.w3.org/2000/svg"
   xmlns:sodipodi="http://sodipodi.sourceforge.net/DTD/sodipodi-0.dtd"
   xmlns:inkscape="http://www.inkscape.org/namespaces/inkscape"
   version="1.1"
   id="Layer_1"
   x="0px"
   y="0px"
   width="1000px"
   height="1000px"
   viewBox="0 0 1000 1000"
   enable-background="new 0 0 1000 1000"
   xml:space="preserve"
   inkscape:version="0.91 r13725"
   sodipodi:docname="001.svg"><metadata
     id="metadata85"><rdf:RDF><cc:Work
         rdf:about=""><dc:format>image/svg+xml</dc:format><dc:type
           rdf:resource="http://purl.org/dc/dcmitype/StillImage" /></cc:Work></rdf:RDF></metadata><defs
     id="defs83" /><sodipodi:namedview
     pagecolor="#ffffff"
     bordercolor="#666666"
     borderopacity="1"
     objecttolerance="10"
     gridtolerance="10"
     guidetolerance="10"
     inkscape:pageopacity="0"
     inkscape:pageshadow="2"
     inkscape:window-width="1280"
     inkscape:window-height="962"
     id="namedview81"
     showgrid="false"
     inkscape:zoom="0.763"
     inkscape:cx="500"
     inkscape:cy="500"
     inkscape:window-x="-8"
     inkscape:window-y="-8"
     inkscape:window-maximized="1"
     inkscape:current-layer="Layer_1" /><g
     id="g3"><path
       fill="#6CC49C"
       d="M769.606,339.07v-0.099c0.613-18.148-1.523-34.474-6.276-45.522c-8.217-18.757-25.345-34.469-41.879-49.577   c-8.813-8.108-17.128-15.712-24.128-23.722c-10.246-11.657-14.999-25.548-12.068-34.573c2.139-6.484,8.724-10.944,19.365-13.177   l14.702-3.144l-8.307-12.366c-3.237-4.871-8.02-9.94-13.376-14.806c-0.108-0.099-0.108-0.099-0.208-0.099   c-21.603-27.578-81.521-25.954-99.263-21.088c0.911-7.604,9.426-37.508,27.068-44.81   c96.113,32.647,175.506,101.787,221.314,190.901c0.101,0.203,0.208,0.302,0.307,0.505c6.685,12.979,12.675,26.458,17.852,40.349   c12.772,34.068,20.979,70.358,23.722,108.277c-29.603,0-113.943,1.42-139.813,1.925c6.505-10.846,11.365-23.722,14.92-37.206   C767.073,367.048,769.1,352.555,769.606,339.07z"
       id="path5" /><path
       fill="#6CC49C"
       d="M500.372,774.959c-85.555-0.97-213.391-17.998-235.795-78.074c-20.549-55.106-8.148-208.885,0.995-231.028   c12.439-69.759,31.613-94.931,59.453-118.89c48.368,20.583,58.684,57.913,71.328,89.159c1.41-12.088,0-29.716,0-29.716   c43.442-10.271,59.561-11.89,104.028-11.89l-0.242-0.164c44.448,0,60.597,1.619,104.029,11.891c0,0-1.406,17.632,0,29.716   c12.652-31.256,22.959-68.585,71.324-89.154c27.84,23.954,47.007,49.125,59.451,118.89c9.139,22.127,21.544,175.923,1,231.009   c-22.414,60.096-150.24,77.113-235.795,78.074L500.372,774.959z"
       id="path7" /><path
       fill="#6CC49C"
       d="M500.139,834.224l0.203,0.099c-211.483,0-375.11-160.378-388.496-363.342   c23.825,0.202,98.44,0.505,125.712,0.608c-2.634,16.727-22.607,155.112,0.812,229.82l1.119,2.95   c9.426,24.724,31.527,82.72,246.052,98.433l30.217-0.108c213.702-15.703,235.81-73.7,245.235-98.433l1.415-3.652   c23.117-73.709,3.236-211.474,0.506-228.909c27.266-0.203,101.896-0.505,125.716-0.708   C875.245,673.836,711.717,834.224,500.139,834.224z"
       id="path9" /><path
       fill="#6CC49C"
       stroke="#FFFFFF"
       stroke-width="2"
       stroke-miterlimit="10"
       d="M500.13,834.244"
       id="path11" /><path
       fill="#6CC49C"
       d="M289.466,161.353l-4.054,10.944l11.455,2.436c10.646,2.227,17.236,6.692,19.366,13.078   c2.939,9.024-1.827,23.014-12.064,34.671c-6.994,7.911-15.311,15.613-24.127,23.623c-16.53,15.208-33.663,30.82-41.875,49.676   c-9.02,20.682-8.614,58.7,2.029,92.153c1.218,3.856,2.535,7.604,4.055,11.257c2.738,6.688,5.88,12.975,9.529,18.855   c-2.94,0-7.094-0.099-12.063-0.203c-17.539-0.302-45.518-0.812-71.981-1.218c-23.52-0.204-45.722-0.505-58.19-0.505   c11.657-158.56,118.312-290.86,263.284-340.031c17.539,7.301,26.058,37.206,26.969,44.914   c-18.351-5.174-83.031-6.693-101.887,24.835C295.145,150.808,291.392,156.179,289.466,161.353z"
       id="path13" /><path
       fill="#6CC49C"
       d="M499.897,394.415L499.897,394.415z"
       id="path15" /><path
       fill="#1B4A4A"
       d="M675.493,364.639c0,0,47.541,39.409,47.541,118.9c-10.99-10.697-27.444-28.385-53.482-11.891   C665.334,445.145,667.848,396.058,675.493,364.639z"
       id="path17" /><path
       fill="#1B4A4A"
       d="M532.826,688.865c-9.931,1.287-19.128-1.961-17.841,23.78c4.455-3.763,4.852-6.603,11.88-5.938   c7.03,0.672,10.079-2.377,11.9-5.94C540.786,696.785,539.281,688.033,532.826,688.865z"
       id="path19" /><path
       fill="#1B4A4A"
       d="M467.444,469.936c0,0,52.176,57.928,63.788,62.74c24.723-9.664,65.047-37.161,72.878-53.8   c-10.355-33.364-12.504-57.319-27.347-71.699c-28.521-6.243-45.552,0-45.552,0s-5.395,37.452-18.216,44.804   C500.169,459.361,467.444,469.936,467.444,469.936z"
       id="path21" /><path
       fill="#1B4A4A"
       d="M413.936,483.528c0,0,25.851-14.782,23.771-29.727c-2.079-14.945-17.822-23.771-17.822-23.771   s-10.979,0-17.835,11.881C395.19,453.802,413.936,483.528,413.936,483.528z"
       id="path23" /><path
       fill="#1B4A4A"
       d="M443.657,519.189c2.535-13.503,14.247-17.746,23.786-17.82c9.52-0.078,23.519,11.563,29.717,23.781   c6.192,12.217,12.301,22.396,11.885,29.73C477.284,551.229,441.132,532.713,443.657,519.189z"
       id="path25" /><path
       fill="#1B4A4A"
       d="M865.719,305.106c-0.307,0.916-0.613,1.827-1.029,2.738c-23.019,64.175-52.413,79.18-90.529,86.479   c0,0-6.286-5.375-10.644-13.484c3.545-13.792,5.573-28.286,6.079-41.77v-0.099c7.9-16.732,16.523-39.642,12.06-73.303   c-11.06-28.994-14.802-39.028-20.573-49.775c10.644-18.756,26.157-29.706,26.157-29.706s31.018,30.924,59.313,80.802   c0.1,0.203,0.198,0.302,0.297,0.505C853.443,279.054,859.84,291.623,865.719,305.106z"
       id="path27" /><path
       fill="#1B4A4A"
       d="M141.806,292.899c0,0,0.164,19.519,4.644,24.192c15.97,2.019,56.784-9.802,71.333-23.776   c8.505-21.157,1.346-32.633,5.939-47.557c12.095-7.604,14.511-38.87,35.667-53.498c-12.146-12.45-23.815-8.871-35.667-5.94   C211.891,189.231,169.568,230.764,141.806,292.899z"
       id="path29" /><path
       fill="#1B4A4A"
       d="M244.251,399.191c-0.302,7.604-2.129,16.826-2.534,18.652c-0.099,0.203-0.099,0.302-0.099,0.302h-71.373   c0,0-0.203-0.505-0.51-1.52c-1.822-5.881-6.589-28.588,12.371-57.888c19.163-11.861,35.686,0,35.686,0   c8.01,18.658,16.322,26.459,22.405,29.196C241.414,391.791,242.733,395.538,244.251,399.191z"
       id="path31" /><path
       fill="#1B4A4A"
       d="M467.979,690.43c9.623,1.207,18.533-1.842,17.296,22.216c-4.327-3.534-4.703-6.179-11.524-5.574   c-6.826,0.646-9.776-2.196-11.529-5.544C460.256,697.815,461.696,689.637,467.979,690.43z"
       id="path33" /><path
       fill="#BE224A"
       d="M580.387,676.865c-8.196-13.73-7.651-16.663-4.117-33.8c8.96-14.078,44.374-89.937,123.399-88.174   c30.632,34.295,26.454,72.174,23.374,86.332C697.571,688.904,618.773,697.676,580.387,676.865z"
       id="path35" /><path
       fill="#FFFFFF"
       d="M623.929,614.711c-10.612,13.306-23.582,39.819,4.477,62.154   C651.433,655.342,638.465,625.799,623.929,614.711z"
       id="path37" /><g
       id="g39"><g
         id="g41"><path
           fill="#6FA842"
           d="M638.94,854.52c172.485-55.778,295.51-216.266,293.706-404.801     c-1.998-208.083-155.595-381.729-356.772-418.36c-24.325-4.431-55.978-10.301-25.226,166.854     c-23.286,12.276-41.604-5.951-41.604-5.951s0.574-15.692,0-59.438C507.202-8.452,541.905,3.74,562.031,6.631     C782.25,38.214,952.765,225.258,954.923,450.629c1.881,195.108-122.835,361.735-299.112,423.473     c-47.195,16.534-39.603,23.861-45.722,37.396c13.841-4.771,30.355,27.819,5.94,59.441     c-11.465,14.872-22.712,25.157-29.722,23.781c-20.178-29.395-31.503-50.503-23.78-83.224     C568.051,888.222,596.863,868.143,638.94,854.52z"
           id="path43" /><path
           fill="#6FA842"
           d="M437.474,911.567c7.737,32.739-3.599,53.849-23.785,83.223c-6.995,1.406-18.237-8.91-29.711-23.761     c-24.416-31.643-7.892-64.215,5.939-59.462c-6.114-13.545,1.479-20.871-45.716-37.385     c-176.279-61.74-300.99-228.386-299.124-423.479c2.159-225.37,172.685-412.42,392.901-444.002     c20.137-2.886,54.828-15.083,52.991,126.182c-0.563,43.745,0,59.438,0,59.438s-18.315,18.232-41.606,5.95     c30.751-177.14-0.892-171.283-25.212-166.853C222.97,68.049,69.379,241.693,67.374,449.777     C65.568,638.293,188.595,798.799,361.073,854.58C403.169,868.183,431.969,888.281,437.474,911.567z"
           id="path45" /></g></g><path
       fill="#1B4A4A"
       d="M330.486,471.697c-26.055-16.494-42.508,1.198-53.498,11.89c0-79.491,47.557-118.9,47.557-118.9   C332.177,396.107,334.682,445.208,330.486,471.697z"
       id="path47" /><path
       fill="#BE224A"
       d="M276.978,641.264c-3.084-14.147-7.258-52.018,23.38-86.313c79.025-1.763,114.895,73.085,123.845,87.164   c3.539,17.146,3.619,21.067-4.559,34.819C381.249,697.735,302.447,688.943,276.978,641.264z"
       id="path49" /><path
       fill="#FFFFFF"
       d="M275.284,641.264c-3.084-14.147-7.256-52.018,23.38-86.313c11.608-0.276,22.301,0.732,32.157,2.652   c-38.523,21.465-42.324,72.789-35.182,107.243C287.288,658.431,280.264,650.59,275.284,641.264z"
       id="path51" /><path
       fill="#FFFFFF"
       d="M704.421,664.847c7.148-34.454,3.347-85.778-35.187-107.263c9.86-1.91,20.555-2.91,32.156-2.653   c30.633,34.296,26.454,72.175,23.387,86.313C719.806,650.59,712.779,658.431,704.421,664.847z"
       id="path53" /><path
       fill="#FFFFFF"
       d="M371.365,676.924c28.478-24.098,15.33-52.689,4.563-67.045   C361.166,621.838,348.013,653.717,371.365,676.924z"
       id="path55" /><g
       id="g57"><path
         fill="#BE224A"
         d="M301.664,718.605c-0.801-0.396-2.614-0.673-2.128-2.217c0.771-1.002,1.896-1.348,2.911-1.782    c2.099-0.793,4.247-1.327,6.415-1.813c4.342-0.92,8.707-1.563,13.098-2.099c4.46-0.347,8.639-1.315,13.639-0.465l13.005,2.147    l51.849,9.516c17.306,3.188,34.478,6.93,51.67,10.859c8.599,1.932,17.158,4.029,25.712,6.437    c4.287,1.228,8.534,2.188,12.865,3.623l13.029,4.624l-3.511-0.299l0.145-0.038l-0.821,0.297l13.028-4.634    c4.327-1.445,8.563-2.396,12.86-3.613c8.563-2.406,17.118-4.485,25.701-6.445c17.178-3.921,34.364-7.701,51.65-10.871    l51.858-9.522l12.971-2.119c5.107-0.871,9.207,0.315,13.663,0.753c4.376,0.652,8.731,1.404,13.038,2.375    c2.158,0.525,4.297,1.07,6.405,1.822c1.03,0.387,2.118,0.723,3.029,1.535c0.644,0.515-0.04,1.355-0.544,1.436    c-0.515,0.218-1.062,0.316-1.595,0.455c0.813-0.277,2.692-0.893,1.86-1.624c-0.802-0.574-1.93-0.813-2.97-1.069    c-2.119-0.476-4.276-0.771-6.455-1.029c-4.327-0.573-8.673-0.949-13.028-1.228c-4.237-0.1-9.029-0.733-12.545,0.297l-12.82,3.269    l-51.205,12.274c-17.01,4.298-34.139,8.101-51.047,12.564c-8.476,2.157-16.989,4.208-25.307,6.663    c-4.139,1.208-8.455,2.258-12.443,3.613l-11.771,4.268l-0.818,0.287l-0.144,0.04l-1.52,0.415l-1.989-0.723l-11.772-4.238    c-3.979-1.385-8.311-2.416-12.455-3.623c-8.315-2.465-16.831-4.494-25.314-6.674c-16.91-4.453-34.038-8.275-51.058-12.572    l-51.25-12.276l-12.78-3.247c-3.629-1.061-8.347-0.613-12.604-0.604c-4.362,0.147-8.728,0.436-13.059,0.931    c-2.159,0.237-4.336,0.524-6.425,1.05c-1.017,0.268-2.149,0.563-2.817,1.258C299.314,717.447,300.823,718.189,301.664,718.605z"
         id="path59" /></g></g><path
     fill="none"
     stroke="#010101"
     stroke-width="0.25"
     stroke-miterlimit="10"
     d="M52.061,498.537"
     id="path61" /><path
     fill="none"
     stroke="#010101"
     stroke-width="0.25"
     stroke-miterlimit="10"
     d="M500.13,5.85"
     id="path63" /><path
     fill="#6FA842"
     d="M722.876,400.306c-15.208-40.454-39.859-66.101-47.552-71.373c-17.533,10.04-63.868,32.137-71.274,77.353  c-43.481-10.341-59.609-11.96-103.91-11.96h-0.104l-0.204,0.099c-44.502,0-60.625,1.624-104.118,11.861  c-7.4-45.112-53.729-67.214-71.269-77.253c-7.708,5.277-32.34,30.82-47.547,71.274c-19.569-28.083-22.104-79.991-14.095-106.856  c7.807-11.153,19.465-21.9,30.919-32.34c8.822-8.114,18.049-16.524,25.751-25.346c8.114-9.326,15.718-22.405,17.539-35.889  c0-0.104,0-0.204,0-0.204c3.451-11.658,1.827-23.419-9.019-30.82c-3.144-3.445-7.401-6.792-13.184-9.425  c7.1-7.1,18.147-14.094,25.854-16.628h0.099c0.104,0,0.104,0,0.104,0c6.994-0.712,12.672,0.203,19.261,1.925  c6.995,1.926,22.812,15.207,35.583,29.702c-11.252,16.424-19.766,46.028-17.84,65.393c3.242,31.528,16.117,55.353,29.805,77.352  c0.1-40.042,40.652-53.324,59.408-71.372c28.489-27.37,32.746-35.989,32.746-35.989l0.104-0.099c0,0,4.258,8.718,32.751,35.989  c18.761,18.147,59.313,31.429,59.502,71.373c13.683-21.999,26.453-45.824,29.701-77.253c1.931-19.365-6.584-49.068-17.842-65.393  c12.771-14.599,28.593-27.88,35.691-29.702c7-1.925,12.979-2.841,20.791-1.722c0.108-0.104,0.208,0,0.288,0  c6.801,2.128,16.434,8.01,24.146,14.9c-6.188,3.144-10.555,7.098-13.484,11.153c0,0-0.108,0-0.108,0.104  c-15,10.644-11.752,29.701-1.822,45.112c0,0.104,0.1,0.203,0.1,0.203c3.348,7.197,7.713,13.688,12.365,19.058  c7.713,8.822,16.931,17.138,25.762,25.247c9.02,8.212,18.139,16.627,25.443,25.241c0.109,0.104,0.109,0.203,0.208,0.306  c0.517,1.016,0.911,2.024,1.428,3.04C745.369,311.498,744.064,369.892,722.876,400.306z"
     id="path65" /><path
     fill="#6FA842"
     d="M500.13,394.415L500.13,394.415z"
     id="path67" /></svg>