<?xml version="1.0" encoding="utf-8"?>
<!-- Generator: Adobe Illustrator 16.0.0, SVG Export Plug-In . SVG Version: 6.00 Build 0)  -->
<!DOCTYPE svg PUBLIC "-//W3C//DTD SVG 1.1//EN" "http://www.w3.org/Graphics/SVG/1.1/DTD/svg11.dtd">
<svg version="1.1" id="Layer_1" xmlns="http://www.w3.org/2000/svg" xmlns:xlink="http://www.w3.org/1999/xlink" x="0px" y="0px"
	 width="1000px" height="1000px" viewBox="-450 -450 1000 1000" enable-background="new -450 -450 1000 1000" xml:space="preserve">
<g>
	<path fill="#6CC49C" d="M321.537-108.829v-0.099c0.613-18.148-1.524-34.474-6.277-45.522
		c-8.217-18.757-25.345-34.469-41.879-49.577c-8.812-8.108-17.128-15.712-24.128-23.722c-10.246-11.657-14.999-25.548-12.068-34.573
		c2.139-6.484,8.723-10.944,19.365-13.177l14.702-3.144l-8.306-12.366c-3.238-4.871-8.02-9.94-13.376-14.806
		c-0.109-0.099-0.109-0.099-0.208-0.099c-21.603-27.578-81.521-25.954-99.263-21.088c0.911-7.604,9.426-37.508,27.068-44.81
		c96.114,32.647,175.506,101.787,221.315,190.901c0.1,0.203,0.208,0.302,0.307,0.505c6.684,12.979,12.674,26.458,17.851,40.349
		c12.773,34.068,20.979,70.358,23.722,108.277c-29.603,0-113.944,1.42-139.814,1.925c6.505-10.846,11.366-23.722,14.92-37.206
		C319.003-80.851,321.031-95.345,321.537-108.829z"/>
	<path fill="#6CC49C" d="M52.303,327.06c-85.555-0.97-213.391-17.998-235.795-78.074c-20.549-55.107-8.148-208.886,0.995-231.029
		c12.44-69.759,31.613-94.931,59.453-118.89C-74.676-80.35-64.36-43.02-51.716-11.774c1.411-12.088,0-29.716,0-29.716
		c43.443-10.271,59.561-11.89,104.029-11.89l-0.242-0.164c44.448,0,60.596,1.619,104.029,11.891c0,0-1.406,17.632,0,29.716
		c12.652-31.256,22.959-68.585,71.324-89.154c27.84,23.954,47.007,49.125,59.451,118.89c9.139,22.127,21.544,175.922,1,231.008
		c-22.414,60.096-150.24,77.114-235.795,78.075L52.303,327.06z"/>
	<path fill="#6CC49C" d="M52.07,386.324l0.203,0.099c-211.484,0-375.111-160.378-388.496-363.342
		c23.825,0.202,98.44,0.505,125.712,0.608c-2.634,16.727-22.608,155.112,0.811,229.82l1.119,2.95
		c9.426,24.723,31.528,82.72,246.052,98.432l30.217-0.108c213.702-15.703,235.81-73.7,245.235-98.432l1.415-3.653
		c23.118-73.709,3.237-211.474,0.506-228.909c27.266-0.203,101.896-0.505,125.716-0.708
		C427.176,225.937,263.648,386.324,52.07,386.324z"/>
	<path fill="#6CC49C" stroke="#FFFFFF" stroke-width="2" stroke-miterlimit="10" d="M52.061,386.345"/>
	<path fill="#6CC49C" d="M-158.603-286.547l-4.054,10.944l11.455,2.436c10.647,2.227,17.236,6.692,19.366,13.078
		c2.94,9.024-1.827,23.014-12.064,34.671c-6.994,7.911-15.311,15.613-24.127,23.623c-16.53,15.208-33.663,30.82-41.875,49.676
		c-9.02,20.682-8.614,58.7,2.029,92.153c1.218,3.856,2.535,7.604,4.055,11.257c2.738,6.688,5.88,12.975,9.529,18.855
		c-2.94,0-7.094-0.099-12.063-0.203c-17.539-0.302-45.518-0.812-71.982-1.218c-23.519-0.204-45.721-0.505-58.19-0.505
		C-324.867-190.34-218.213-322.64-73.24-371.811c17.539,7.301,26.058,37.206,26.969,44.914
		c-18.351-5.174-83.031-6.693-101.887,24.835C-152.925-297.092-156.677-291.721-158.603-286.547z"/>
	<path fill="#6CC49C" d="M51.827-53.485L51.827-53.485z"/>
	<path fill="#1B4A4A" d="M227.424-83.261c0,0,47.541,39.409,47.541,118.9c-10.99-10.697-27.444-28.385-53.482-11.891
		C217.265-2.755,219.779-51.842,227.424-83.261z"/>
	<path fill="#1B4A4A" d="M84.757,240.966c-9.931,1.287-19.128-1.961-17.841,23.78c4.455-3.762,4.852-6.603,11.88-5.939
		c7.03,0.672,10.079-2.377,11.901-5.94C92.717,248.886,91.212,240.134,84.757,240.966z"/>
	<path fill="#1B4A4A" d="M19.374,22.036c0,0,52.176,57.928,63.788,62.74c24.723-9.663,65.047-37.161,72.878-53.8
		c-10.355-33.364-12.504-57.319-27.346-71.699c-28.522-6.243-45.552,0-45.552,0S77.747-3.271,64.926,4.081
		C52.1,11.462,19.374,22.036,19.374,22.036z"/>
	<path fill="#1B4A4A" d="M-34.134,35.629c0,0,25.851-14.782,23.772-29.727s-17.822-23.771-17.822-23.771s-10.979,0-17.835,11.881
		C-52.88,5.903-34.134,35.629-34.134,35.629z"/>
	<path fill="#1B4A4A" d="M-4.412,71.29c2.535-13.503,14.247-17.746,23.786-17.82c9.52-0.079,23.519,11.563,29.717,23.781
		c6.192,12.217,12.301,22.396,11.885,29.731C29.215,103.329-6.937,84.814-4.412,71.29z"/>
	<path fill="#1B4A4A" d="M417.65-142.793c-0.307,0.916-0.613,1.827-1.029,2.738c-23.019,64.175-52.413,79.18-90.53,86.48
		c0,0-6.286-5.375-10.643-13.484c3.545-13.792,5.573-28.286,6.079-41.77v-0.099c7.9-16.732,16.523-39.642,12.059-73.303
		c-11.059-28.994-14.801-39.028-20.573-49.775c10.644-18.756,26.157-29.706,26.157-29.706s31.018,30.924,59.313,80.802
		c0.1,0.203,0.198,0.302,0.297,0.505C405.374-168.846,411.771-156.277,417.65-142.793z"/>
	<path fill="#1B4A4A" d="M-306.263-155c0,0,0.164,19.519,4.643,24.192c15.97,2.019,56.784-9.802,71.333-23.776
		c8.505-21.157,1.346-32.633,5.94-47.557c12.094-7.604,14.51-38.87,35.667-53.498c-12.147-12.45-23.816-8.871-35.667-5.94
		C-236.178-258.668-278.502-217.136-306.263-155z"/>
	<path fill="#1B4A4A" d="M-203.818-48.708c-0.302,7.604-2.129,16.826-2.534,18.652c-0.099,0.203-0.099,0.302-0.099,0.302h-71.373
		c0,0-0.203-0.505-0.51-1.52c-1.822-5.881-6.589-28.588,12.371-57.888c19.163-11.861,35.686,0,35.686,0
		c8.01,18.658,16.322,26.459,22.405,29.196C-206.655-56.109-205.337-52.362-203.818-48.708z"/>
	<path fill="#1B4A4A" d="M19.909,242.53c9.623,1.207,18.534-1.842,17.296,22.216c-4.327-3.534-4.703-6.178-11.524-5.574
		c-6.826,0.645-9.776-2.197-11.529-5.544C12.187,249.916,13.626,241.737,19.909,242.53z"/>
	<path fill="#BE224A" d="M132.318,228.966c-8.197-13.731-7.652-16.663-4.118-33.8c8.96-14.078,44.374-89.937,123.4-88.174
		c30.632,34.295,26.454,72.174,23.374,86.332C249.501,241.005,170.703,249.776,132.318,228.966z"/>
	<path fill="#FFFFFF" d="M175.86,166.812c-10.613,13.305-23.582,39.819,4.476,62.154
		C203.364,207.442,190.396,177.899,175.86,166.812z"/>
	<g>
		<g>
			<path fill="#6FA842" d="M190.87,406.62C363.356,350.842,486.38,190.354,484.577,1.819
				c-1.998-208.083-155.595-381.729-356.773-418.36c-24.325-4.431-55.978-10.301-25.226,166.854
				c-23.286,12.276-41.603-5.951-41.603-5.951s0.574-15.692,0-59.438c-1.842-141.275,32.86-129.083,52.987-126.192
				C334.181-409.685,504.696-222.641,506.854,2.73c1.881,195.108-122.835,361.735-299.113,423.473
				c-47.195,16.534-39.602,23.861-45.721,37.396c13.841-4.772,30.355,27.819,5.94,59.441
				c-11.465,14.872-22.712,25.157-29.721,23.781c-20.178-29.394-31.503-50.503-23.781-83.223
				C119.982,440.322,148.793,420.243,190.87,406.62z"/>
			<path fill="#6FA842" d="M-10.595,463.668c7.737,32.739-3.599,53.849-23.786,83.223c-6.995,1.406-18.237-8.911-29.711-23.761
				c-24.416-31.643-7.891-64.215,5.94-59.462c-6.114-13.545,1.479-20.871-45.716-37.385
				c-176.279-61.74-300.99-228.385-299.124-423.479c2.159-225.37,172.685-412.42,392.901-444.002
				c20.137-2.886,54.829-15.083,52.992,126.182c-0.564,43.745,0,59.438,0,59.438s-18.316,18.232-41.607,5.95
				c30.751-177.14-0.891-171.283-25.212-166.853C-225.099-379.85-378.69-206.206-380.695,1.878
				C-382.502,190.394-259.474,350.9-86.997,406.68C-44.9,420.283-16.1,440.382-10.595,463.668z"/>
		</g>
	</g>
	<path fill="#1B4A4A" d="M-117.584,23.798c-26.054-16.494-42.508,1.198-53.498,11.89c0-79.491,47.557-118.9,47.557-118.9
		C-115.892-51.792-113.387-2.691-117.584,23.798z"/>
	<path fill="#BE224A" d="M-171.092,193.364c-3.084-14.147-7.257-52.018,23.38-86.313c79.026-1.763,114.895,73.085,123.845,87.164
		c3.539,17.146,3.619,21.067-4.559,34.819C-66.82,249.836-145.623,241.044-171.092,193.364z"/>
	<path fill="#FFFFFF" d="M-172.785,193.364c-3.084-14.147-7.256-52.018,23.38-86.313c11.608-0.277,22.301,0.732,32.157,2.652
		c-38.523,21.465-42.324,72.789-35.181,107.243C-160.781,210.531-167.805,202.69-172.785,193.364z"/>
	<path fill="#FFFFFF" d="M256.352,216.947c7.148-34.454,3.347-85.778-35.187-107.263c9.861-1.91,20.555-2.91,32.157-2.653
		c30.632,34.296,26.454,72.175,23.386,86.313C271.737,202.69,264.709,210.531,256.352,216.947z"/>
	<path fill="#FFFFFF" d="M-76.705,229.025c28.478-24.098,15.33-52.69,4.563-67.046C-86.903,173.939-100.056,205.818-76.705,229.025z
		"/>
	<g>
		<path fill="#BE224A" d="M-146.405,270.706c-0.801-0.396-2.614-0.673-2.128-2.217c0.771-1.001,1.896-1.347,2.911-1.782
			c2.099-0.793,4.247-1.327,6.415-1.813c4.342-0.92,8.707-1.564,13.098-2.099c4.46-0.347,8.639-1.316,13.639-0.465l13.004,2.147
			l51.849,9.516c17.306,3.187,34.478,6.93,51.67,10.86c8.599,1.931,17.158,4.029,25.712,6.436c4.287,1.228,8.534,2.188,12.865,3.623
			l13.029,4.624l-3.51-0.298l0.144-0.039l-0.821,0.297l13.028-4.634c4.327-1.445,8.564-2.396,12.861-3.613
			c8.563-2.406,17.118-4.485,25.701-6.445c17.178-3.921,34.364-7.702,51.65-10.871l51.859-9.523l12.97-2.119
			c5.108-0.871,9.207,0.316,13.663,0.753c4.376,0.653,8.732,1.405,13.038,2.375c2.159,0.525,4.297,1.07,6.406,1.822
			c1.03,0.387,2.118,0.723,3.029,1.535c0.644,0.515-0.04,1.356-0.544,1.436c-0.515,0.218-1.061,0.316-1.595,0.455
			c0.813-0.277,2.693-0.892,1.861-1.624c-0.802-0.574-1.93-0.813-2.97-1.069c-2.119-0.476-4.276-0.771-6.455-1.029
			c-4.327-0.574-8.673-0.95-13.028-1.228c-4.238-0.1-9.03-0.733-12.545,0.297l-12.821,3.268l-51.205,12.275
			c-17.009,4.298-34.138,8.1-51.047,12.564c-8.475,2.158-16.989,4.208-25.306,6.663c-4.139,1.208-8.455,2.258-12.444,3.614
			l-11.771,4.267l-0.818,0.287l-0.144,0.04l-1.52,0.415l-1.989-0.723l-11.772-4.237c-3.98-1.386-8.311-2.416-12.455-3.624
			c-8.316-2.465-16.831-4.494-25.315-6.673c-16.91-4.454-34.038-8.276-51.057-12.573l-51.25-12.276l-12.781-3.247
			c-3.629-1.061-8.346-0.614-12.604-0.604c-4.362,0.148-8.728,0.436-13.059,0.931c-2.159,0.237-4.336,0.525-6.425,1.05
			c-1.016,0.267-2.149,0.563-2.817,1.257C-148.756,269.548-147.247,270.29-146.405,270.706z"/>
	</g>
</g>
<path fill="none" stroke="#010101" stroke-width="0.25" stroke-miterlimit="10" d="M52.061,498.537"/>
<path fill="none" stroke="#010101" stroke-width="0.25" stroke-miterlimit="10" d="M52.061-442.05"/>
<path fill="#6FA842" d="M274.807-47.594c-15.208-40.454-39.859-66.101-47.552-71.373c-17.533,10.04-63.868,32.137-71.274,77.353
	c-43.482-10.341-59.61-11.96-103.91-11.96h-0.104l-0.204,0.099c-44.502,0-60.625,1.624-104.118,11.861
	c-7.401-45.112-53.73-67.214-71.269-77.253c-7.708,5.277-32.34,30.82-47.547,71.274c-19.569-28.083-22.103-79.991-14.094-106.856
	c7.806-11.153,19.464-21.9,30.919-32.34c8.822-8.114,18.048-16.524,25.751-25.346c8.114-9.326,15.717-22.405,17.539-35.889
	c0-0.104,0-0.204,0-0.204c3.451-11.658,1.827-23.419-9.019-30.82c-3.144-3.445-7.401-6.792-13.184-9.425
	c7.1-7.1,18.148-14.094,25.855-16.628h0.099c0.104,0,0.104,0,0.104,0c6.994-0.712,12.672,0.203,19.261,1.925
	c6.995,1.926,22.811,15.207,35.583,29.702c-11.252,16.424-19.766,46.028-17.84,65.393c3.242,31.528,16.117,55.353,29.805,77.352
	c0.099-40.042,40.652-53.324,59.408-71.372c28.489-27.37,32.746-35.989,32.746-35.989l0.104-0.099c0,0,4.258,8.718,32.751,35.989
	c18.761,18.147,59.314,31.429,59.502,71.373c13.683-21.999,26.454-45.824,29.702-77.253c1.93-19.365-6.584-49.068-17.842-65.393
	c12.771-14.599,28.593-27.88,35.691-29.702c7-1.925,12.98-2.841,20.791-1.722c0.109-0.104,0.208,0,0.288,0
	c6.801,2.128,16.434,8.01,24.147,14.9c-6.188,3.144-10.555,7.098-13.485,11.153c0,0-0.108,0-0.108,0.104
	c-15,10.643-11.752,29.701-1.822,45.112c0,0.104,0.099,0.203,0.099,0.203c3.348,7.197,7.713,13.688,12.366,19.058
	c7.712,8.822,16.93,17.138,25.761,25.247c9.02,8.212,18.139,16.627,25.444,25.241c0.109,0.104,0.109,0.203,0.208,0.306
	c0.516,1.016,0.911,2.024,1.427,3.04C297.3-136.402,295.994-78.008,274.807-47.594z"/>
<path fill="#6FA842" d="M52.061-53.485L52.061-53.485z"/>
<text transform="matrix(0.6737 0 0 1 -10.249 445.6621)" fill="#6FA842" font-family="'Gadugi-Bold'" font-size="59.8189">N° 001</text>
</svg>
