<?xml version="1.0" encoding="utf-8"?>
<!-- Generator: Adobe Illustrator 16.0.0, SVG Export Plug-In . SVG Version: 6.00 Build 0)  -->
<!DOCTYPE svg PUBLIC "-//W3C//DTD SVG 1.1//EN" "http://www.w3.org/Graphics/SVG/1.1/DTD/svg11.dtd">
<svg version="1.1" id="Layer_1" xmlns="http://www.w3.org/2000/svg" xmlns:xlink="http://www.w3.org/1999/xlink" x="0px" y="0px"
	 width="1000px" height="1000px" viewBox="0 0 1000 1000" enable-background="new 0 0 1000 1000" xml:space="preserve">
<path fill="#78C8B8" d="M738.567,535.502c0,15.341-3.027,30.479-5.423,42.588l-0.734,3.344c6.474,22.854,9.5,99.887,5.953,157.295
	c-0.528,8.461,3.445,17.229,7.298,25.575c4.7,10.336,9.501,20.875,5.537,31.528c-4.17,11.375-12.1,21.712-23.271,30.784
	l-3.548,2.824l-4.598-0.634c-4.169-0.621-8.247-1.56-12.109-2.497c-4.384-1.05-8.449-1.987-11.274-1.987h-1.15
	c-42.69,34.974-137.987,48.021-182.452,49.266h-0.214c-1.561,0.112-3.018,0.112-4.384,0.112v-0.112l-23.379,0.112h-6.784
	c-45.927-0.53-134.023-14.303-176.611-49.163h-1.147c-2.716,0-6.789,0.938-11.172,1.977c-3.857,0.938-7.93,1.887-12.211,2.51
	l-4.491,0.62l-3.647-2.813c-11.172-9.082-19.001-19.417-23.277-30.793c-3.97-10.643,0.938-21.192,5.638-31.519
	c3.756-8.462,7.722-17.126,7.201-25.575c-3.552-57.409-0.418-134.442,5.948-157.306l-0.626-3.344
	c-2.401-12.212-5.428-27.339-5.428-42.792H98.088c14.403,208.242,187.886,372.642,399.883,372.642
	c211.892,0,385.373-164.398,399.879-372.642H738.567L738.567,535.502z M726.66,772.968c-4.484-9.704-9.906-21.813-9.07-35.494
	c3.751-61.792-0.735-139.547-5.535-151.454l-1.152-2.813l1.773-9.185c2.304-11.591,5.016-25.26,5.016-38.521h-66.706
	c-17.216,9.5-30.886,18.583-41.538,27.553l-14.82,12.427l-2.294-19.204c-0.733-6.474-0.733-14.2-0.53-20.04
	c-1.143-0.316-2.283-0.521-3.333-0.734H409.141c-1.355,0.315-2.711,0.632-4.174,0.938c0.106,5.852,0.209,13.566-0.521,20.04
	l-2.298,19.203l-14.821-12.414c-10.856-9.084-24.633-18.165-41.961-27.768h-66.282c0,13.262,2.717,27.135,5.01,38.725l1.773,9.186
	l-1.147,2.823c-4.903,11.896-9.393,89.56-5.53,151.455c0.836,13.565-4.7,25.677-9.083,35.492c-2.507,5.524-5.947,13.048-5.01,15.544
	c2.4,6.688,6.891,12.946,13.256,18.798c1.356-0.316,2.819-0.633,4.174-0.948h0.938c4.802-0.103,15.866-0.203,28.288-0.103
	c0.417,0.103,0.835,0.418,1.253,0.633l0.942,0.725c36.008,30.173,117.739,44.463,164.293,44.994l34.132-0.112
	c44.465-1.244,134.655-15.128,170.455-45.086l0.938-0.734c0.204-0.102,0.418-0.203,0.632-0.315
	c16.8-0.203,30.998,0.112,30.998,0.112c0.938,0.203,1.876,0.418,2.926,0.621c6.361-5.841,10.848-12.108,13.354-18.785
	C732.614,786.016,729.17,778.503,726.66,772.968z M288.583,449.602l-2.508-7.939l-1.875-4.169
	c-1.881-3.966-3.136-8.146-3.971-12.213c-12.003,5.943-22.44,9.49-31.727,10.958c-7.937,1.459-14.931,1.255-21.192-0.214l2.298,8.98
	h-24.529c-1.462,0.836-3.655,2.191-5.326,3.13c-5.428,3.343-11.585,7.104-18.686,9.398c-3.965,1.355-8.241,2.19-12.731,2.19
	c-9.5,0-18.059-3.761-24.632-10.754c-1.152-1.253-2.299-2.608-3.237-4.065c-7.099,1.772-13.047,2.608-18.475,2.608
	c-7.31,0-13.885-1.569-19.729-4.495c-1.983,11.905-3.338,23.903-4.174,36.115h208.863
	C298.395,470.58,292.028,460.458,288.583,449.602z M688.568,373.191c-6.37-4.485-12.526-8.46-19.418-11.793
	c-0.102,0-0.102,0-0.102,0c-4.384-2.089-9.073-3.863-14.292-5.219c9.603-2.191,18.47,15.861,17.318-12.629
	c6.574,10.122,8.664,9.082,11.06,13.669c0.327,0.316,0.53,0.733,0.733,1.253C685.021,361.184,686.479,365.465,688.568,373.191z
	 M327.726,343.549c-0.106,0.938-0.106,1.875-0.106,2.813c-0.103,6.993,0.525,10.652,1.672,12.324
	c2.926,4.067,9.186-3.975,15.765-2.507c-5.117,1.356-9.709,3.027-13.883,5.005c-0.106,0-0.106,0-0.106,0
	c-6.576,3.129-12.421,6.89-18.477,11.07c-0.52,0.307-0.938,0.623-1.458,0.938C318.017,347.83,317.39,359.41,327.726,343.549z
	 M896.493,464.943l-16.481,0.621l-23.7,1.469c-22.965,1.457-41.752-6.475-56.472-12.631l-12.528-5.219l-4.586-1.987v-0.315
	c-16.493-4.486-34.974-9.388-55.229-18.685c-1.978-0.938-3.955-1.876-6.055-2.917c-0.724,4.067-2.078,8.247-3.853,12.213
	l-1.979,4.169l-2.101,6.687l-0.408,1.254c-2.711,8.654-7.206,16.8-13.475,24.107c-1.457,1.876-3.12,3.762-4.895,5.423h203.115
	C897.543,474.331,897.115,469.642,896.493,464.943z M321.36,147.228c0.208,0.103,0.521,0.103,0.729,0.209
	c0.103-0.209,0.209-0.525,0.311-0.734C322.089,146.912,321.671,147.122,321.36,147.228z M890.133,424.357
	c-1.885-9.185-4.178-18.267-6.788-27.241c-26.311-92.485-84.962-171.184-162.942-223.375c-8.969-6.055-18.267-11.692-27.767-16.911
	c-0.621-0.418-1.355-0.835-1.979-1.146c-2.609,0.621-5.117,1.355-7.624,2.191c-6.056,1.983-18.053,15.55-24.107,19.306
	c-0.621,0.417-1.151,0.733-1.57,0.943c1.673-3.654,1.355-5.846,0.734-7.62c-0.203-0.417-0.417-0.835-0.622-1.151
	c0-0.103-0.112-0.209-0.112-0.311c-0.938-1.773-1.773-3.236-0.417-5.739c0.112-0.209,0.214-0.525,0.417-0.836
	c-5.218-3.97-11.477-1.774-18.368-2.298c-1.038-0.102-1.978-0.209-3.026-0.418c6.474-3.965,17.227-1.875,25.156-0.519
	c-0.314-1.982-1.039-3.966-1.876-5.953c-0.213-0.52-0.528-1.04-0.937-1.667c-3.242-6.366-9.083-12.527-15.25-18.058l-1.561-0.627
	c-8.145-3.134-16.289-5.948-24.638-8.558c-7.726-2.405-15.656-4.597-23.587-6.58c0,0-0.104,0-0.204,0
	c-3.141-0.835-6.269-1.564-9.5-2.191h-0.112c-15.024-3.338-30.479-5.74-46.137-7.202c-9.183-0.938-18.47-1.565-27.755-1.773
	c-5.016,18.684-8.981,36.218-14.828,42.689c2.084-12.002,3.338-24.005,3.237-42.898c-14.51,0-28.914,0.728-43.006,2.299
	c1.146,5.632,2.089,11.793,2.818,18.057c3.547,29.118,3.755,62.313-3.654,79.224c1.355-18.165,1.146-34.031-0.209-48.118
	c-0.102-0.626-0.102-1.253-0.209-1.88c-1.666-15.556-4.693-28.705-8.766-40.081c-0.52-1.983-1.254-3.864-1.982-5.744
	c-8.874,1.253-17.641,2.717-26.306,4.49c-0.417,0.102-0.938,0.208-1.462,0.311c-3.655,0.733-7.411,1.569-11.064,2.507
	c0,0,0,0-0.103,0c-1.463,0.311-2.819,0.729-4.174,1.044c-3.653,0.938-7.31,1.876-10.963,3.028
	c-8.247,2.191-16.284,4.801-24.322,7.619c-1.354,0.418-2.817,0.938-4.174,1.458c0,0-0.103,0-0.103,0.108
	c-9.811,3.547-19.418,7.512-28.812,11.793c-4.592,8.665-8.455,16.805-11.691,24.531c-0.311-0.107-0.623-0.107-0.938-0.209
	c-7.411-1.88-15.656-3.654-24.214-5.117c-0.627,0.418-1.361,0.733-1.983,1.152c-9.082,5.428-17.849,11.167-26.411,17.323
	c-34.443,24.429-64.922,54.173-90.079,87.995c-32.985,44.464-57.099,95.823-69.52,151.663c7.201,6.789,17.222,6.264,29.856,2.818
	c-7.828-37.68-0.209-59.703,12.838-82.353c-0.106,1.146-0.106,2.191-0.209,3.338c-3.236,48.434-0.208,73.275,5.841,84.861
	c0.106,0.208,0.208,0.314,0.316,0.417c12.003,22.13,35.596-6.265,46.45-6.265c-6.472-24.113-9.188-61.894,0.312-88.725
	c0,1.255,0.102,2.508,0.102,3.655c1.044,28.913,4.808,48.327,10.963,60.437c0.417,0.836,0.835,1.671,1.255,2.4
	c0.207,0.316,0.417,0.729,0.621,1.045c11.591,18.894,30.483,15.866,55.428,3.446c0-0.107,0.105-0.107,0.105-0.107
	c-0.626-1.249-1.354-2.4-2.09-3.547c-0.311-0.836-0.835-1.672-1.457-2.507c-1.152-2.192-2.508-4.276-3.762-6.366
	c-0.938-1.672-1.773-3.237-2.711-4.903c-0.417-0.733-0.835-1.463-1.152-2.191c-0.204-0.418-0.412-0.734-0.519-1.152
	c-0.729-1.458-1.356-2.92-1.882-4.485c-4.901-12.217-5.528-26.829,6.057-50.835c0.106,0.836,0.208,1.774,0.314,2.61
	c1.355,13.883,4.384,23.796,8.14,30.789c0,0.107,0.106,0.208,0.209,0.316c0.836,1.564,1.671,2.92,2.609,4.174
	c11.584,16.177,28.495,10.958,34.55,8.246c-0.312,0.626-0.627,1.356-0.938,2.192c-3.235,7.518-8.664,21.085-8.664,34.444
	c0,5.428,0.836,10.754,3.129,15.657l0.107-0.103c8.455-3.026,22.231-12.528,31.834-14.51c-1.773,0.943-3.548,2.09-5.22,3.446
	c-9.184,7.099-16.385,18.684-21.396,25.785c1.044,3.13,2.293,6.056,3.857,8.867c0.106,0.209,0.209,0.316,0.316,0.418
	c4.699,8.246,11.691,15.035,19.729,20.147c9.077-12.211,21.814-14.403,46.555-21.503c-0.943,0.734-1.774,1.563-2.61,2.399
	c-5.953,6.265-10.438,16.601-11.381,26.933h271.91c-0.521-5.22-1.876-10.438-3.966-15.137c-0.521-1.147-1.039-2.191-1.561-3.231
	c-0.632-1.152-1.354-2.299-2.089-3.344c-1.254-2.293-2.927-4.276-4.597-5.847c-0.623-0.728-1.255-1.247-1.877-1.772
	c24.842,7.1,37.574,9.292,46.656,21.503c10.65-6.891,19.733-16.803,23.698-29.225c0.104-0.106,0.104-0.106,0.104-0.209
	c-5.22-7.519-12.946-19.938-22.649-26.83c-1.255-0.938-2.509-1.667-3.864-2.4c9.501,1.982,23.486,11.59,31.937,14.612
	c5.749-12.522,2.609-27.868-1.243-39.245c-0.733-2.4-1.569-4.592-2.406-6.473c-0.836-1.876-1.568-3.548-2.089-5.01
	c-0.307-0.521-0.521-1.045-0.724-1.463c8.97,3.97,40.702,12.844,45.718-46.238c0.306,0.627,0.52,1.147,0.836,1.673
	c17.432,36.844,5.106,51.247-5.75,69.83c-0.825,1.458-1.661,2.919-2.498,4.484l1.255,0.627
	c20.143,9.918,38.409,14.928,55.941,19.623h0.102c1.152,0.316,2.192,0.627,3.344,0.943c9.185-11.59,13.885-23.802,15.453-46.135
	c0.204,1.039,0.419,2.084,0.623,3.128c3.546,18.369,1.255,42.797-0.419,50.208c0.316,0.103,0.733,0.311,1.051,0.418
	c13.984,5.846,29.011,12.212,47.276,11.064c0.103-0.315,0.214-0.525,0.316-0.836c2.813-6.993,5.737-20.876,6.891-36.431
	c1.354-16.177,0.836-34.133-3.242-47.701c3.864,7.1,16.075,50.208,19.838,66.803c0.52,2.4,0.834,4.281,0.938,5.428
	c3.966,1.045,8.461,1.564,12.946,1.464C891.377,430.413,890.858,427.385,890.133,424.357z"/>
<g>
	<path fill="#78C8B8" d="M731.677,788.523c-2.507,6.677-6.992,12.944-13.354,18.785c-1.05-0.203-1.986-0.418-2.926-0.621
		c0,0-14.198-0.315-30.998-0.112c-0.214,0.112-0.428,0.215-0.632,0.315l-0.938,0.734c-35.8,29.958-125.99,43.842-170.455,45.086
		l-34.132,0.112c-46.554-0.531-128.285-14.821-164.293-44.994l-0.942-0.726c-0.418-0.214-0.836-0.529-1.253-0.632
		c-12.422-0.102-23.486,0-28.288,0.103h-0.938c-1.354,0.315-2.817,0.632-4.174,0.947c-6.365-5.851-10.855-12.108-13.256-18.797
		c-0.938-2.496,2.502-10.02,5.01-15.544c4.383-9.815,9.918-21.927,9.083-35.493c-3.862-61.896,0.626-139.56,5.53-151.454
		l1.147-2.823l-1.773-9.186c-2.293-11.59-5.01-25.463-5.01-38.725c0-10.336,1.671-20.357,6.682-28.705
		c23.378,10.122,43.107,19.623,59.602,28.705c17.329,9.602,31.104,18.684,41.961,27.767l14.821,12.415l2.298-19.203
		c0.729-6.474,0.627-14.188,0.521-20.04c1.463-0.307,2.818-0.622,4.174-0.938c20.565-4.587,34.133-6.473,53.027-7.309l54.692-0.521
		c29.856,0.215,44.678,1.774,71.608,7.829c1.05,0.214,2.19,0.418,3.333,0.734c-0.203,5.84-0.203,13.566,0.529,20.04l2.295,19.203
		l14.82-12.426c10.652-8.97,24.322-18.053,41.538-27.553c16.493-9.082,36.431-18.686,60.021-28.909
		c4.913,8.451,6.687,18.471,6.687,28.909c0,13.262-2.712,26.931-5.016,38.521l-1.773,9.186l1.152,2.813
		c4.8,11.907,9.286,89.662,5.535,151.454c-0.836,13.682,4.586,25.79,9.07,35.494C729.17,778.503,732.614,786.016,731.677,788.523z"
		/>
	<path fill="#FFFFFF" d="M715.185,806.575c-0.938-0.203-1.876-0.417-2.712-0.621c-10.54-2.406-20.877-3.649-28.073,0.621
		c16.8-0.203,30.998,0.112,30.998,0.112S715.284,806.688,715.185,806.575z M300.275,803.661c-5.116,0-10.438,1.253-15.973,2.497
		c-0.417,0.111-0.52,0.314-0.836,0.417c4.802-0.103,15.866-0.203,28.288-0.103C308.521,804.599,304.658,803.661,300.275,803.661z"/>
</g>
<path fill="#BE224A" d="M575.961,754.365c-7.358-12.346,4.17-19.521-12.323-8.135c-3.404,5.352,56.829-88.122,104.676-87.053
	c27.513,30.795,27.238,63.25,24.476,75.952C677.509,763.732,575.981,754.376,575.961,754.365z"/>
<path fill="#010101" d="M620.813,685.172c-18.95,7.737-34.719,31.631-1.367,55.075C646.755,717.679,627.184,703.713,620.813,685.172
	z"/>
<path fill="#FFFFFF" d="M668.11,750.196c6.422-30.938-4.036-63.313-25.892-83.791c10.438-7.228,15.678-7.461,26.095-7.216
	c27.523,30.794,27.238,63.26,24.485,75.94C688.314,743.509,677.713,747.648,668.11,750.196z"/>
<path fill="#BE224A" d="M417.524,754.365c7.35-12.346-4.174-19.521,12.319-8.135c3.399,5.352-56.838-88.122-104.688-87.053
	c-27.501,30.795-27.222,63.25-24.464,75.952C315.973,763.732,417.493,754.376,417.524,754.365z"/>
<path fill="#010101" d="M374.05,740.247c33.338-23.424,17.589-47.338-1.375-55.055C366.298,703.713,346.727,717.679,374.05,740.247z
	"/>
<path fill="#FFFFFF" d="M325.365,750.196c-6.417-30.938,4.041-63.313,25.887-83.791c-10.438-7.228-15.668-7.461-26.096-7.216
	c-27.501,30.794-27.222,63.26-24.464,75.94C305.166,743.509,315.774,747.648,325.365,750.196z"/>
<path fill="#518990" d="M531.06,764.61c-16.442-0.512-24.209,2.548-27.282,11.466c-3.079,8.92-0.806,9.349-0.419,11.958
	c6.04-9.583,7.772-10.968,10.525-11.743C529.796,771.796,531.06,764.61,531.06,764.61z"/>
<path fill="#518990" d="M546.809,547.204c0,0-13.965,22.843-39.571,42.466c-25.621,19.633-14.193,66.461-14.193,66.461
	s35.946,0,53.765,26.177c24.28-1.08,37.857-11.905,41.834-18.03c3.996-6.147,22.813-36.341,8.431-74.598
	C582.669,551.414,546.809,547.204,546.809,547.204z"/>
<path fill="#518990" d="M433.529,674.459c19.99-8.43,41.314-0.928,51.533,4.016c10.22,4.965-6.304,18.287,0.219,34.24
	c6.524,15.953-65.563-18.431-65.563-18.431L433.529,674.459z"/>
<path fill="#518990" d="M433.529,568.6c0,0,23.466,13.068,13.027,30.021c-10.438,16.95-45.229,34.352-43.495,43.046
	c1.732,8.694-13.914-36.533-13.914-36.533L433.529,568.6z"/>
<path fill="#518990" d="M647.356,584.257c0,0,45.238-22.599,53.923-46.961c8.705-24.362,4.302,33.047-10.028,46.961
	C676.938,598.171,701.279,566.867,647.356,584.257z"/>
<path fill="#518990" d="M460.908,765.058c16.447-0.487,24.204,2.55,27.282,11.479c3.079,8.931,0.806,9.357,0.418,11.969
	c-6.035-9.563-7.778-10.969-10.52-11.743C462.166,772.255,460.908,765.058,460.908,765.058z"/>
<path fill="#518990" d="M347.455,583.207c0,0-45.237-22.609-53.934-46.971c-8.693-24.363-4.292,33.046,10.031,46.971
	C317.873,597.11,293.532,565.817,347.455,583.207z"/>
<path fill="#518990" d="M782.726,447.195l4.586,1.987c-3.751,3.548-9.285,7.513-17.226,11.794
	c-26.402,14.087-57.817,13.67-70.457,12.731c6.269-7.309,10.764-15.453,13.475-24.107l0.408-1.254
	c5.219-2.722,11.489-8.358,13.984-20.151c20.256,9.296,38.735,14.198,55.229,18.685V447.195z"/>
<path fill="#518990" d="M786.895,425.065c-17.532-4.699-35.8-9.705-55.952-19.623c-0.407-0.204-0.836-0.417-1.244-0.622
	c0.837-1.569,1.673-3.028,2.509-4.495c0.51-0.418,1.243-0.622,1.979-0.836C746.295,395.739,774.162,415.362,786.895,425.065z"/>
<path fill="#518990" d="M248.503,436.237c-6.683,7.31-19.313,18.054-38.104,23.271c-25.051,6.994-30.999,7.411-29.332-1.977
	c7.101-2.294,13.258-6.056,18.686-9.398c1.671-0.938,3.864-2.294,5.326-3.13h24.529l-2.298-8.98
	C233.573,437.492,240.567,437.696,248.503,436.237z"/>
<path fill="#78C8B8" d="M799.627,810.888c0,0,5.4,3.455,20.528,40.896c6.207,15.36-1.306,29.355,20.651,56.39
	c14.006-12.09,19.143-13.333,19.143-13.333s5.872,3.915,18.269,13.333c16.318,4.017,68.071-0.663,80.252-4.199
	c-9.796-40.713-16.818-45.688-26.758-53.494c-18.267-14.354-34.475-96.31-46.971-156.694
	C864.09,764.456,799.627,810.888,799.627,810.888z"/>
<path fill="#78C8B8" d="M202.52,810.888c0,0-5.401,3.455-20.528,40.896c-6.214,15.36,1.305,29.355-20.657,56.39
	c-14.005-12.09-19.132-13.333-19.132-13.333s-5.867,3.915-18.269,13.333c-16.313,4.017-68.065-0.663-80.248-4.199
	c9.791-40.713,16.814-45.688,26.753-53.494c18.268-14.354,34.464-96.31,46.972-156.694
	C138.067,764.456,202.52,810.888,202.52,810.888z"/>
<path fill="#518990" d="M116.671,809.827c0,0,15.219,13.271,33.057-5.219c3.477-30.651-33.057-55.27-33.057-55.27V809.827z"/>
<path fill="#518990" d="M83.624,837.229c0,0,16.094-7.828,16.962-8.705c0.866-0.856,2.293-19.275-2.548-23.914
	c-4.843-4.649-8.635,7.869-8.635,7.869l-7.481,20.225L83.624,837.229z"/>
<path fill="#518990" d="M871.623,741.879c1.241-8.828,16.278-26.729,16.278-26.729s15.655,38.652,0,47.614
	c-15.658,8.97-31.763,29.388-29.327,20.743C862.459,769.767,871.623,741.879,871.623,741.879z"/>
<path fill="#518990" d="M905.088,785.607l-10.234,25.279c0,0-6.3,5.483,10.234,15.198c16.533,9.704,12.354-0.193,12.354-0.193
	L905.088,785.607z"/>
<path fill="#518990" d="M844.293,830.337l23.486-13.558c0,0,20.876,24.343,18.268,32.17c-2.61,7.829-20.633,17.289-27.707,14.292
	C851.266,860.265,844.293,830.337,844.293,830.337z"/>
<path fill="#61893C" d="M688.568,373.191c-6.37-4.485-12.526-8.46-19.418-11.793c-0.102,0-0.102,0-0.102,0
	c-4.384-2.089-9.073-3.863-14.292-5.219c9.603-2.191,18.47,15.861,17.318-12.629c6.574,10.122,8.664,9.082,11.06,13.669
	c0.327,0.316,0.53,0.733,0.733,1.253C685.021,361.184,686.479,365.465,688.568,373.191z M327.726,343.549
	c-0.106,0.938-0.106,1.875-0.106,2.813c-0.103,6.993,0.525,10.652,1.672,12.324c2.926,4.067,9.186-3.975,15.765-2.507
	c-5.117,1.356-9.709,3.027-13.883,5.005c-0.106,0-0.106,0-0.106,0c-6.576,3.129-12.421,6.89-18.477,11.07
	c-0.52,0.307-0.938,0.623-1.458,0.938C318.017,347.83,317.39,359.41,327.726,343.549z M955.678,283.132
	c-0.307-0.734-0.622-1.463-0.938-2.191c-0.937-2.61-1.977-5.117-3.129-7.624c-1.04-2.61-2.293-5.22-3.444-7.723
	c0-0.107-0.103-0.107-0.103-0.208c-29.644-62.318-79.854-92.795-148.743-107.409c-27.664-5.948-73.483-11.273-108.662-2.292
	c-2.609,0.621-5.117,1.355-7.624,2.191c-6.056,1.983-18.053,15.55-24.107,19.306c-0.621,0.417-1.151,0.733-1.57,0.943
	c1.673-3.654,1.356-5.846,0.734-7.62c-0.203-0.417-0.417-0.835-0.622-1.151c0-0.103-0.112-0.209-0.112-0.311
	c-0.937-1.773-1.772-3.236-0.417-5.739c0.112-0.209,0.214-0.525,0.417-0.836c-5.218-3.97-11.477-1.774-18.368-2.298
	c-1.038-0.102-1.978-0.209-3.026-0.418c6.474-3.965,17.227-1.875,25.156-0.519c-0.314-1.982-1.039-3.966-1.876-5.953
	c-0.213-0.52-0.528-1.04-0.937-1.667c-3.242-6.366-9.083-12.527-15.25-18.058c-6.88-6.264-13.985-11.794-18.47-16.391
	c-3.968-0.831-8.451-1.564-13.252-1.875c-5.017-0.316-10.338-0.209-15.771,0.627c-1.141,0-2.19,0.208-3.333,0.417
	c7.614-4.7,3.548-8.038,8.664-10.025c0.725-0.312,1.662-0.52,2.814-0.729c-7.729-1.88-25.894-5.738-37.27-9.602
	c-5.422-1.88-9.285-3.654-9.806-5.219c-3.445,0.938-10.133,2.609-12.11,3.339c-3.647,1.461-7.308,3.654-10.019,6.579
	c-0.216,0.312-0.521,0.521-0.735,0.832c-0.723,0.733-1.354,1.57-1.875,2.507c0-0.209,0-0.418,0.102-0.729
	c0.419-0.943,0.837-1.987,1.256-2.925c2.607-6.264,4.901-12.213,10.232-16.595c0.204-0.209,0.408-0.418,0.725-0.627
	c-2.609-1.255-5.007-3.028-7.614-3.864c-5.434-1.876-11.273-2.819-17.328-3.129c-0.215,0.52-0.419,0.938-0.632,1.458
	c-3.548,9.083-6.464,19.21-9.072,29.021c-5.016,18.684-8.98,36.218-14.828,42.689c2.084-12.002,3.338-24.005,3.237-42.898
	c0-6.055-0.209-12.838-0.525-20.458c-11.268,4.801-22.333,9.914-30.478,14.194h-0.104c0.312,0.627,0.521,1.253,0.836,1.88
	c0.103,0.418,0.312,0.836,0.521,1.254c0,0.311,0,0.52,0.102,0.729c-0.728-1.147-1.563-2.192-2.502-3.237
	c-0.209,0-0.418,0.107-0.627,0.209c-4.909,2.609-8.557,4.801-10.438,6.365c0.105,0.417,0.208,0.943,0.208,1.361
	c1.146,5.632,2.089,11.793,2.818,18.057c3.547,29.118,3.755,62.313-3.654,79.224c1.355-18.165,1.146-34.031-0.208-48.118
	c-0.103-0.626-0.103-1.253-0.209-1.88c-1.667-15.556-4.694-28.705-8.767-40.081c-0.52-1.983-1.254-3.864-1.982-5.744
	c-1.881-4.903-3.967-9.394-6.055-13.567c-0.312-0.525-0.52-0.938-0.729-1.463c-10.963,4.073-31.314,8.456-39.771,10.438
	c1.045,0.209,2.294,0.526,3.548,0.938c4.908,1.673,10.957,4.807,16.701,8.146c5.531,3.235,10.647,6.575,14.404,8.766
	c-1.355-0.728-3.027-1.354-5.01-1.982c-5.739-1.88-13.776-3.129-21.921-3.965c0,0,0,0-0.103,0c-5.01-0.525-9.917-0.836-14.404-0.938
	c-6.16-0.209-11.38,0-14.092,0.622c-3.761,3.864-9.394,8.354-15.137,13.465c0,0-0.102,0-0.102,0.108
	c-9.607,8.348-19.521,18.266-21.295,28.496c0.418-0.107,0.836-0.107,1.25-0.107c9.082-1.249,17.745-0.627,24.429,0.525
	c-1.356,0.417-2.401,0.728-3.344,0.938c-4.902,1.462-5.633,2.09-10.54,5.846c0.311,0.627,0.626,1.147,0.729,1.564l0.107,0.106
	c1.253,4.277-7.519,0.938-3.967,5.948c0,0.103,0,0.103,0,0.103c0.312,0.209,0.521,0.525,0.831,0.836c-0.102,0-0.208,0-0.418-0.103
	c-3.23-0.316-7.827-1.773-13.251-3.547c-4.489-1.57-9.606-2.926-15.035-4.281c-0.311-0.107-0.622-0.107-0.938-0.209
	c-7.411-1.88-15.656-3.654-24.214-5.117c-34.03-5.846-73.067-8.139-93.732-3.757c-91.861,19.412-150.52,67.117-171.396,180.891
	c0.831,13.256,3.13,24.322,7.512,33.506c0.628,1.355,1.254,2.609,1.983,3.862c0.525,1.045,1.146,1.983,1.672,2.921
	c6.992,10.439,17.538,18.058,33.195,23.593c2.503-17.431,1.249-52.298,19.516-60.962v1.982c-0.52,36.952,2.507,58.353,8.664,69.835
	c0.209,0.209,0.316,0.418,0.418,0.729c1.253,2.191,2.716,4.072,4.174,5.53c7.201,6.789,17.223,6.264,29.856,2.818
	c-7.828-37.68-0.209-59.703,12.838-82.353c-0.106,1.146-0.106,2.191-0.209,3.338c-3.236,48.434-0.208,73.275,5.841,84.861
	c0.106,0.208,0.208,0.314,0.316,0.417c12.003,22.13,35.596-6.265,46.45-6.265c-6.472-24.113-9.188-61.894,0.312-88.725
	c0,1.255,0.102,2.508,0.102,3.655c1.044,28.913,4.808,48.327,10.963,60.437c0.418,0.836,0.836,1.671,1.255,2.4
	c0.208,0.316,0.417,0.729,0.622,1.045c11.59,18.894,30.482,15.866,55.427,3.446c0-0.107,0.105-0.107,0.105-0.107
	c-0.626-1.249-1.354-2.4-2.09-3.547c-0.311-0.836-0.835-1.672-1.457-2.507c-1.151-2.192-2.508-4.276-3.762-6.366
	c-0.938-1.672-1.773-3.237-2.711-4.903c-0.417-0.733-0.835-1.463-1.152-2.191c-0.204-0.418-0.412-0.734-0.519-1.152
	c-0.729-1.458-1.356-2.92-1.881-4.485c-4.902-12.217-5.529-26.829,6.056-50.835c0.106,0.836,0.208,1.774,0.314,2.61
	c1.355,13.883,4.384,23.796,8.14,30.789c0,0.107,0.106,0.208,0.209,0.316c0.836,1.564,1.671,2.92,2.609,4.174
	c11.584,16.177,28.495,10.958,34.55,8.246c-0.312,0.626-0.627,1.356-0.938,2.192c-3.235,7.518-8.664,21.085-8.664,34.444
	c0,5.428,0.836,10.754,3.129,15.657l0.107-0.103c8.456-3.026,22.231-12.528,31.834-14.51c-1.773,0.943-3.547,2.09-5.22,3.446
	c-9.184,7.099-16.385,18.684-21.396,25.785c1.044,3.13,2.293,6.056,3.857,8.867c0.106,0.209,0.209,0.316,0.316,0.418
	c4.699,8.246,11.691,15.035,19.729,20.147c9.076-12.211,21.813-14.403,46.554-21.503c-0.943,0.733-1.774,1.563-2.61,2.399
	c-5.953,6.265-10.438,16.601-11.381,26.933c-0.311,2.19-0.311,4.383-0.209,6.575c0.316,0.209,0.525,0.315,0.836,0.524
	c11.381,7.41,23.276,16.697,33.924,14.505c6.993-12.104,20.355-16.277,28.705-19.306c-0.311,0.729-0.418,1.355-0.52,1.982
	c-0.526,2.609,0.101,4.801,1.354,6.677c5.326,7.727,22.339,10.961,31.839,15.346c21.605-28.603,33.19-23.904,39.975-23.486
	c0.106,0,0.106,0,0.106,0c1.773-0.102,3.965-0.52,6.574-0.52c7.207,0,17.646,3.129,33.405,24.006
	c12.526-5.739,37.787-9.602,32.567-24.006c8.349,3.028,21.813,7.202,28.704,19.306c10.958,2.192,23.271-7.513,34.761-15.029
	c0.102-2.192,0.102-4.385-0.112-6.575c-0.521-5.22-1.876-10.438-3.966-15.137c-0.521-1.147-1.039-2.191-1.561-3.231
	c-0.632-1.152-1.354-2.299-2.089-3.344c-1.254-2.293-2.927-4.276-4.597-5.847c-0.623-0.728-1.255-1.247-1.877-1.772
	c24.842,7.1,37.574,9.292,46.656,21.503c10.65-6.891,19.733-16.803,23.698-29.225c0.104-0.106,0.104-0.106,0.104-0.209
	c-5.22-7.519-12.946-19.938-22.649-26.83c-1.255-0.938-2.509-1.667-3.863-2.4c9.501,1.982,23.485,11.59,31.936,14.612
	c5.749-12.522,2.61-27.868-1.243-39.245c-0.836-2.298-1.672-4.49-2.406-6.473c-0.836-1.876-1.568-3.548-2.089-5.01
	c-0.307-0.521-0.521-1.045-0.724-1.463c8.97,3.97,40.702,12.844,45.718-46.238c0.307,0.627,0.52,1.147,0.836,1.673
	c17.432,36.844,5.106,51.247-5.75,69.83c-0.825,1.458-1.661,2.919-2.498,4.484l1.255,0.627
	c20.143,9.918,38.409,14.928,55.941,19.623h0.102c1.152,0.316,2.192,0.627,3.344,0.943c9.185-11.59,13.885-23.802,15.454-46.135
	c0.203,1.039,0.418,2.084,0.623,3.128c3.546,18.369,1.254,42.797-0.42,50.208c0.316,0.103,0.733,0.311,1.051,0.418
	c13.984,5.846,29.011,12.212,47.276,11.064c0.103-0.315,0.214-0.525,0.316-0.836c2.813-6.993,5.737-20.876,6.891-36.431
	c1.355-16.177,0.836-34.133-3.242-47.701c3.864,7.1,16.075,50.208,19.839,66.803c0.519,2.4,0.834,4.281,0.937,5.428
	c3.966,1.045,8.461,1.564,12.946,1.464c9.918-0.316,19.519-3.554,22.23-9.71c0.103-11.375,4.599-34.968-6.676-78.597
	c-0.215-1.151-0.531-2.192-0.837-3.343c3.864,1.88,6.892,4.908,9.185,8.771c0.521,0.626,0.938,1.356,1.143,2.084
	c7.521,14.301,7.308,37.059,9.296,50.106c0.205-0.108,0.315-0.108,0.521-0.209c30.896-10.963,41.754-30.687,43.843-63.673
	C966.951,318.203,961.834,299.727,955.678,283.132z M511.336,278.953c-3.141,0.419-6.999,1.045-11.489,1.672
	c-4.382-0.627-8.349-1.253-11.375-1.672l1.88-5.841c2.191,0,5.53-0.315,9.495-0.733c4.071,0.418,7.31,0.733,9.604,0.733
	L511.336,278.953z"/>
<path fill="#D15988" d="M455.903,29.8c-0.417,0-0.835,0.102-1.354,0.208c-5.53,1.249-12.941,6.784-15.448,8.66
	c2.507-2.61,5.53-5.632,9.394-9.078C451.627,26.874,454.027,27.501,455.903,29.8z"/>
<path fill="#D15988" d="M475.322,55.686c-1.672,7.094-3.026,10.749-4.598,2.4h-0.102c-1.254,0.938-2.299,0.627-3.13-0.316
	c0.938-0.311,1.876-0.835,2.819-1.774v-0.101c0.208-0.107,0.311-0.316,0.52-0.525c1.044-1.044,1.982-2.502,3.027-4.382
	C474.17,52.969,474.695,54.535,475.322,55.686z"/>
<path fill="#D15988" d="M493.797,44.932c0,0.734,0,1.463-0.208,2.09c-0.943,3.966-13.466,17.848-18.268,8.664
	c1.147-5.117,2.4-12.008,3.965-17.227c1.356,0.734,2.293,1.361,2.711,1.569c-0.208-0.417-0.835-1.671-2.084-3.235
	c0.938-2.926,1.982-5.117,3.237-5.536c0.521-0.311,0.938-0.311,1.457,0c2.819,1.57,5.01,3.654,6.473,5.846
	c0.209,0.209,0.316,0.418,0.521,0.627C493.064,40.238,493.797,42.741,493.797,44.932z"/>
<path fill="#D15988" d="M515.188,42.011c0,2.819-0.408,5.74-0.938,8.665c-0.104,0.209-0.204,0.418-0.204,0.627
	c-0.315,1.458-0.634,2.813-1.05,4.174c-0.104,0.312-0.205,0.628-0.205,0.939c-2.089,6.784-4.698,12.318-5.115,13.154
	c-1.774,4.592-4.486,5.841-9.496,7.411c0,0-0.108,0-0.209,0c-4.072,1.355-9.812,2.92-17.849,6.676
	c-9.812,4.593-15.448,5.536-19.521,4.073c-3.445-1.147-5.845-4.073-8.665-7.931c-5.112,6.157-2.293,7.094-2.293,8.557
	c0,1.564-13.991-16.911-22.237-24.321c-8.14-7.411-0.836-15.866,4.801-17.539c0,0-3.857,10.23,9.398,14.302
	c4.067,1.254,16.386-10.54,11.27-11.793c-5.01-1.253-8.976-2.716-5.01-5.846c4.072-3.338,8.037-5.321,11.692-6.365
	c2.925,7.619,4.908,17.849,7.935,20.978c-4.489,1.565-8.354-3.338-11.69-3.445c-5.011,0-6.683,14.092,7.931,13.572
	c14.618-0.524,24.113-5.117,34.133-12.945c5.639-4.384,9.087-15.031,6.997-27.452c1.773,0.316,3.231,0.938,4.383,1.672v0.101
	c3.967,2.192,5.64,6.372,5.843,11.172C515.188,40.967,515.188,41.487,515.188,42.011z"/>
<path fill="#D15988" d="M666.725,272.409c0,7.411-1.143,13.986-3.242,19.831c-2.711,7.721-7.094,14.093-12.721,19.312
	c-43.425,41.018-160.858,16.284-160.858,16.284s-66.492,22.44-115.863,13.048c-7.518-1.463-14.611-3.654-20.978-6.79
	c-1.045-0.417-2.09-0.938-3.027-1.458c-9.812-5.326-17.748-13.048-22.757-23.903c-0.52-1.046-1.045-2.193-1.463-3.344
	c-18.16-47.181-22.65-77.552-13.466-117.429c1.463-6.259,3.762-13.466,6.682-21.188C337.196,118.656,379.677,49.448,396.899,34
	c-0.627,7.829,5.01,14.822,13.155,24.322c4.484,5.218,9.704,11.272,14.923,18.582c3.863,5.321,7.727,11.269,11.381,18.16
	c0.209,0.525,0.418,0.938,0.729,1.462c2.09,4.174,4.174,8.665,6.055,13.568c0.729,1.88,1.463,3.761,1.981,5.743
	c4.073,11.376,7.101,24.526,8.768,40.081c0.106,0.626,0.106,1.254,0.208,1.881c1.355,14.087,1.564,29.954,0.209,48.118
	c7.411-16.911,7.202-50.106,3.654-79.224c-0.729-6.264-1.671-12.426-2.818-18.057c0-0.418-0.103-0.943-0.209-1.361
	c1.881-1.564,5.53-3.756,10.438-6.365c0.21-0.103,0.417-0.209,0.628-0.209c0.311-0.311,0.627-0.52,1.045-0.627h0.101
	c8.146-4.281,19.209-9.394,30.479-14.194c0.315,7.62,0.523,14.404,0.523,20.458c0.104,18.894-1.15,30.896-3.237,42.899
	c5.848-6.472,9.816-24.005,14.832-42.69c2.609-9.811,5.525-19.938,9.072-29.021c0.204-0.52,0.408-0.938,0.632-1.458
	c2.916-7.202,6.36-13.675,10.643-18.476c3.648-4.383,6.156-29.75,11.173-31.003c32.354,34.45,54.596,63.883,70.252,88.622
	c1.876,3.129,3.752,6.157,5.525,9.082c24.831,41.543,30.274,68.052,35.8,79.744C661.709,223.037,666.725,244.535,666.725,272.409z"
	/>
<text transform="matrix(0.6737 0 0 1 429.9836 961.9824)" fill="#78C8B8" font-family="'Gadugi-Bold'" font-size="61.5889">N° 002</text>
<path fill="#FFFFFF" d="M391.739,813.182c0,0-7.239,17.167-15.372,23.917c-6.491-2.813-17.719-20.707-17.867-27.534L391.739,813.182
	z"/>
<path fill="#FFFFFF" d="M600.172,813.182c0,0,7.238,17.167,15.371,23.917c6.491-2.813,17.719-20.707,17.867-27.534L600.172,813.182z
	"/>
<path fill="#518990" d="M715.397,806.688c0,0-14.198-0.314-30.998-0.111c-19.633,0.215-42.802,1.255-50.846,4.282
	c-14.709,5.637-68.051,0-80.681,0c-17.114,0-52.19,14.302-54.382,15.138c2.19-2.09,27.45-25.994,50.724-25.994
	c24.319,0,64.625,3.343,104.177-2.813c38.307-6.057,59.712,7.93,61.793,9.387C715.284,806.688,715.397,806.688,715.397,806.688z"/>
<path fill="#518990" d="M497.865,825.791c-2.191-0.837-37.37-15.036-54.483-15.036c-12.528,0-65.865,5.535-80.687,0
	c-7.936-3.129-31.213-4.067-50.94-4.281c-12.422-0.102-23.486,0-28.288,0.103h-0.938c-1.044,0-1.563,0-1.563,0
	s21.503-15.86,62.002-9.603c39.561,6.157,79.85,2.823,104.171,2.823C470.413,799.797,495.673,823.701,497.865,825.791z"/>
</svg>
