<?xml version="1.0" encoding="utf-8"?>
<!-- Generator: Adobe Illustrator 16.0.0, SVG Export Plug-In . SVG Version: 6.00 Build 0)  -->
<!DOCTYPE svg PUBLIC "-//W3C//DTD SVG 1.1//EN" "http://www.w3.org/Graphics/SVG/1.1/DTD/svg11.dtd">
<svg version="1.1" id="Layer_1" xmlns="http://www.w3.org/2000/svg" xmlns:xlink="http://www.w3.org/1999/xlink" x="0px" y="0px"
	 width="100px" height="100px" viewBox="0 0 100 100" enable-background="new 0 0 100 100" xml:space="preserve">
<path fill="#78C8B8" d="M73.42,54.128c0,1.47-0.29,2.92-0.52,4.08l-0.07,0.32c0.62,2.189,0.91,9.569,0.57,15.069
	c-0.051,0.811,0.33,1.65,0.699,2.45c0.45,0.99,0.91,2,0.53,3.021c-0.399,1.09-1.159,2.08-2.229,2.949l-0.34,0.271l-0.44-0.061
	c-0.399-0.06-0.79-0.149-1.16-0.239c-0.42-0.101-0.81-0.19-1.08-0.19h-0.11c-4.09,3.351-13.22,4.601-17.479,4.72H51.77
	c-0.149,0.011-0.289,0.011-0.42,0.011v-0.011l-2.24,0.011h-0.65c-4.4-0.051-12.84-1.37-16.92-4.71h-0.11
	c-0.26,0-0.65,0.09-1.07,0.189c-0.37,0.09-0.76,0.181-1.17,0.24l-0.43,0.06l-0.35-0.27c-1.07-0.87-1.82-1.86-2.23-2.95
	c-0.38-1.02,0.09-2.03,0.54-3.02c0.36-0.811,0.74-1.641,0.69-2.45c-0.34-5.5-0.04-12.88,0.57-15.07l-0.06-0.32
	c-0.23-1.17-0.52-2.619-0.52-4.1H12.06c1.38,19.95,18,35.7,38.31,35.7c20.3,0,36.92-15.75,38.31-35.7H73.42z M72.279,76.878
	c-0.43-0.93-0.949-2.09-0.869-3.4c0.359-5.92-0.07-13.369-0.53-14.51l-0.11-0.27l0.17-0.88c0.221-1.11,0.48-2.42,0.48-3.69h-6.391
	c-1.649,0.91-2.959,1.78-3.979,2.64l-1.42,1.19l-0.22-1.84c-0.07-0.62-0.07-1.36-0.051-1.92c-0.109-0.03-0.219-0.05-0.319-0.07
	H41.86c-0.13,0.03-0.26,0.061-0.4,0.09c0.01,0.561,0.02,1.3-0.05,1.92l-0.22,1.84l-1.42-1.189c-1.04-0.87-2.36-1.74-4.02-2.66H29.4
	c0,1.271,0.26,2.6,0.48,3.71l0.17,0.88l-0.11,0.271c-0.47,1.14-0.9,8.58-0.53,14.51c0.08,1.3-0.45,2.46-0.87,3.4
	c-0.24,0.529-0.57,1.25-0.48,1.489c0.23,0.641,0.66,1.24,1.27,1.801c0.13-0.03,0.27-0.061,0.4-0.091h0.09
	c0.46-0.01,1.52-0.02,2.71-0.01c0.04,0.01,0.08,0.04,0.12,0.061l0.09,0.069c3.45,2.891,11.28,4.26,15.74,4.311l3.27-0.011
	c4.26-0.119,12.9-1.449,16.33-4.319l0.09-0.07c0.02-0.01,0.04-0.02,0.061-0.03c1.609-0.02,2.97,0.011,2.97,0.011
	c0.09,0.02,0.18,0.04,0.28,0.06c0.609-0.56,1.039-1.16,1.279-1.8C72.85,78.128,72.52,77.408,72.279,76.878z M30.31,45.898
	l-0.24-0.761l-0.18-0.399c-0.18-0.38-0.3-0.78-0.38-1.17c-1.15,0.569-2.15,0.909-3.04,1.05c-0.76,0.14-1.43,0.12-2.03-0.021
	l0.22,0.86h-2.35c-0.14,0.08-0.35,0.21-0.51,0.3c-0.52,0.32-1.11,0.681-1.79,0.9c-0.38,0.13-0.79,0.21-1.22,0.21
	c-0.91,0-1.73-0.36-2.36-1.03c-0.11-0.12-0.22-0.25-0.31-0.39c-0.68,0.17-1.25,0.25-1.77,0.25c-0.7,0-1.33-0.15-1.89-0.431
	c-0.19,1.141-0.32,2.29-0.4,3.46h20.01C31.25,47.908,30.64,46.938,30.31,45.898z M68.63,38.578c-0.61-0.43-1.2-0.811-1.86-1.13
	c-0.01,0-0.01,0-0.01,0c-0.42-0.2-0.869-0.37-1.369-0.5c0.92-0.21,1.77,1.52,1.659-1.21c0.63,0.97,0.83,0.87,1.06,1.31
	c0.031,0.03,0.051,0.07,0.07,0.12C68.29,37.428,68.43,37.838,68.63,38.578z M34.06,35.738c-0.01,0.09-0.01,0.18-0.01,0.27
	c-0.01,0.67,0.05,1.021,0.16,1.181c0.28,0.39,0.88-0.381,1.51-0.24c-0.49,0.13-0.93,0.29-1.33,0.479c-0.01,0-0.01,0-0.01,0
	c-0.63,0.3-1.19,0.66-1.77,1.061c-0.05,0.029-0.09,0.06-0.14,0.09C33.13,36.148,33.07,37.258,34.06,35.738z M88.55,47.368
	l-1.579,0.06L84.7,47.568c-2.2,0.14-4-0.62-5.41-1.21l-1.2-0.5l-0.439-0.19v-0.03c-1.58-0.43-3.351-0.899-5.291-1.79
	c-0.189-0.09-0.379-0.18-0.58-0.279c-0.069,0.39-0.199,0.79-0.369,1.17l-0.189,0.399l-0.201,0.641l-0.039,0.12
	c-0.26,0.829-0.69,1.609-1.291,2.31c-0.14,0.18-0.299,0.36-0.469,0.52H88.68C88.65,48.268,88.609,47.818,88.55,47.368z M33.45,16.93
	c0.02,0.01,0.05,0.01,0.07,0.02c0.01-0.02,0.02-0.05,0.03-0.07C33.52,16.9,33.48,16.92,33.45,16.93z M87.94,43.48
	c-0.181-0.88-0.4-1.75-0.65-2.61c-2.521-8.86-8.14-16.4-15.61-21.4c-0.859-0.58-1.75-1.12-2.66-1.62
	c-0.06-0.04-0.13-0.08-0.189-0.11c-0.25,0.06-0.49,0.13-0.73,0.21c-0.58,0.19-1.729,1.49-2.31,1.85c-0.06,0.04-0.11,0.07-0.15,0.09
	c0.16-0.35,0.13-0.56,0.07-0.73c-0.02-0.04-0.04-0.08-0.06-0.11c0-0.01-0.011-0.02-0.011-0.03c-0.09-0.17-0.17-0.31-0.04-0.55
	c0.011-0.02,0.021-0.05,0.04-0.08c-0.5-0.38-1.1-0.17-1.76-0.22c-0.1-0.01-0.189-0.02-0.29-0.04c0.62-0.38,1.65-0.18,2.41-0.05
	c-0.03-0.19-0.1-0.38-0.18-0.57c-0.021-0.05-0.051-0.1-0.09-0.16c-0.311-0.61-0.87-1.2-1.461-1.73l-0.149-0.06
	c-0.78-0.3-1.561-0.57-2.36-0.82c-0.74-0.23-1.5-0.44-2.26-0.63c0,0-0.01,0-0.02,0c-0.301-0.08-0.601-0.15-0.91-0.21H58.56
	c-1.439-0.32-2.92-0.55-4.42-0.69c-0.88-0.09-1.77-0.15-2.659-0.17c-0.48,1.79-0.86,3.47-1.42,4.09c0.2-1.15,0.32-2.3,0.31-4.11
	c-1.39,0-2.77,0.07-4.12,0.22c0.11,0.54,0.2,1.13,0.27,1.73c0.34,2.79,0.36,5.97-0.35,7.59c0.13-1.74,0.11-3.26-0.02-4.61
	c-0.01-0.06-0.01-0.12-0.02-0.18c-0.16-1.49-0.45-2.75-0.84-3.84c-0.05-0.19-0.12-0.37-0.19-0.55c-0.85,0.12-1.69,0.26-2.52,0.43
	c-0.04,0.01-0.09,0.02-0.14,0.03c-0.35,0.07-0.71,0.15-1.06,0.24c0,0,0,0-0.01,0c-0.14,0.03-0.27,0.07-0.4,0.1
	c-0.35,0.09-0.7,0.18-1.05,0.29c-0.79,0.21-1.56,0.46-2.33,0.73c-0.13,0.04-0.27,0.09-0.4,0.14c0,0-0.01,0-0.01,0.01
	c-0.94,0.34-1.86,0.72-2.76,1.13c-0.44,0.83-0.81,1.61-1.12,2.35c-0.03-0.01-0.06-0.01-0.09-0.02c-0.71-0.18-1.5-0.35-2.32-0.49
	c-0.06,0.04-0.13,0.07-0.19,0.11c-0.87,0.52-1.71,1.07-2.53,1.66c-3.3,2.34-6.22,5.19-8.63,8.43c-3.16,4.26-5.47,9.18-6.66,14.53
	c0.69,0.65,1.65,0.6,2.86,0.27c-0.75-3.61-0.02-5.72,1.23-7.89c-0.01,0.11-0.01,0.21-0.02,0.32c-0.31,4.64-0.02,7.02,0.56,8.13
	c0.01,0.02,0.02,0.03,0.03,0.04c1.15,2.12,3.41-0.6,4.45-0.6c-0.62-2.31-0.88-5.93,0.03-8.5c0,0.12,0.01,0.24,0.01,0.35
	c0.1,2.77,0.46,4.63,1.05,5.79c0.04,0.08,0.08,0.16,0.12,0.23c0.02,0.03,0.04,0.07,0.06,0.1c1.11,1.81,2.92,1.52,5.31,0.33
	c0-0.01,0.01-0.01,0.01-0.01c-0.06-0.12-0.13-0.23-0.2-0.34c-0.03-0.08-0.08-0.16-0.14-0.24c-0.11-0.21-0.24-0.41-0.36-0.61
	c-0.09-0.16-0.17-0.31-0.26-0.47c-0.04-0.07-0.08-0.14-0.11-0.21c-0.02-0.04-0.04-0.07-0.05-0.11c-0.07-0.14-0.13-0.28-0.18-0.43
	c-0.47-1.17-0.53-2.57,0.58-4.87c0.01,0.08,0.02,0.17,0.03,0.25c0.13,1.33,0.42,2.28,0.78,2.95c0,0.01,0.01,0.02,0.02,0.03
	c0.08,0.15,0.16,0.28,0.25,0.4c1.11,1.55,2.73,1.05,3.31,0.79c-0.03,0.06-0.06,0.13-0.09,0.21c-0.31,0.72-0.83,2.02-0.83,3.3
	c0,0.52,0.08,1.03,0.3,1.5l0.01-0.01c0.81-0.29,2.13-1.2,3.05-1.39c-0.17,0.09-0.34,0.2-0.5,0.33c-0.88,0.68-1.57,1.79-2.05,2.47
	c0.1,0.3,0.22,0.58,0.37,0.85c0.01,0.02,0.02,0.03,0.03,0.04c0.45,0.79,1.12,1.44,1.89,1.93c0.87-1.17,2.09-1.38,4.46-2.06
	c-0.09,0.07-0.17,0.15-0.25,0.23c-0.57,0.6-1,1.59-1.09,2.58H63.6c-0.05-0.5-0.18-1-0.38-1.45c-0.05-0.11-0.1-0.21-0.149-0.31
	c-0.061-0.11-0.13-0.22-0.2-0.32c-0.12-0.22-0.28-0.41-0.44-0.56c-0.06-0.07-0.12-0.12-0.18-0.17c2.38,0.68,3.6,0.89,4.47,2.06
	c1.021-0.66,1.891-1.61,2.271-2.8C69,45.17,69,45.17,69,45.16c-0.5-0.72-1.24-1.91-2.17-2.57c-0.12-0.09-0.24-0.16-0.37-0.23
	c0.91,0.19,2.25,1.11,3.06,1.4c0.551-1.2,0.25-2.67-0.119-3.76c-0.07-0.23-0.15-0.44-0.23-0.62c-0.08-0.18-0.15-0.34-0.2-0.48
	c-0.029-0.05-0.05-0.1-0.069-0.14c0.859,0.38,3.899,1.23,4.38-4.43c0.029,0.06,0.05,0.11,0.08,0.16c1.67,3.53,0.489,4.91-0.551,6.69
	c-0.079,0.14-0.159,0.28-0.239,0.43l0.12,0.06c1.93,0.95,3.68,1.43,5.359,1.88h0.01c0.11,0.03,0.21,0.06,0.32,0.09
	c0.88-1.11,1.33-2.28,1.48-4.42c0.02,0.1,0.04,0.2,0.06,0.3c0.34,1.76,0.12,4.1-0.04,4.81c0.03,0.01,0.07,0.03,0.101,0.04
	c1.34,0.56,2.779,1.17,4.529,1.06c0.01-0.03,0.021-0.05,0.03-0.08c0.27-0.67,0.55-2,0.66-3.49c0.13-1.55,0.08-3.27-0.311-4.57
	c0.37,0.68,1.54,4.81,1.9,6.4c0.05,0.23,0.08,0.41,0.09,0.52c0.38,0.1,0.811,0.15,1.24,0.14C88.06,44.06,88.01,43.77,87.94,43.48z"
	/>
<g>
	<path fill="#78C8B8" d="M72.76,78.368c-0.24,0.64-0.67,1.24-1.279,1.8c-0.101-0.02-0.19-0.04-0.28-0.06c0,0-1.36-0.03-2.97-0.011
		c-0.021,0.011-0.041,0.021-0.061,0.03l-0.09,0.07c-3.43,2.87-12.07,4.2-16.33,4.319l-3.27,0.011
		c-4.46-0.051-12.29-1.42-15.74-4.311l-0.09-0.069c-0.04-0.021-0.08-0.051-0.12-0.061c-1.19-0.01-2.25,0-2.71,0.01h-0.09
		c-0.13,0.03-0.27,0.061-0.4,0.091c-0.61-0.561-1.04-1.16-1.27-1.801c-0.09-0.239,0.24-0.96,0.48-1.489
		c0.42-0.94,0.95-2.101,0.87-3.4c-0.37-5.93,0.06-13.37,0.53-14.51l0.11-0.271l-0.17-0.88c-0.22-1.11-0.48-2.439-0.48-3.71
		c0-0.99,0.16-1.95,0.64-2.75c2.24,0.97,4.13,1.88,5.71,2.75c1.66,0.92,2.98,1.79,4.02,2.66l1.42,1.189l0.22-1.84
		c0.07-0.62,0.06-1.359,0.05-1.92c0.14-0.029,0.27-0.06,0.4-0.09c1.97-0.439,3.27-0.62,5.08-0.7l5.24-0.05
		c2.86,0.021,4.28,0.17,6.86,0.75c0.101,0.021,0.21,0.04,0.319,0.07c-0.02,0.56-0.02,1.3,0.051,1.92l0.22,1.84l1.42-1.19
		c1.021-0.859,2.33-1.729,3.979-2.64c1.58-0.87,3.49-1.79,5.75-2.77c0.471,0.81,0.641,1.77,0.641,2.77c0,1.271-0.26,2.58-0.48,3.69
		l-0.17,0.88l0.11,0.27c0.46,1.141,0.89,8.59,0.53,14.51c-0.08,1.311,0.439,2.471,0.869,3.4C72.52,77.408,72.85,78.128,72.76,78.368
		z"/>
	<path fill="#FFFFFF" d="M71.18,80.098c-0.09-0.02-0.18-0.04-0.26-0.06c-1.01-0.23-2-0.35-2.689,0.06
		c1.609-0.02,2.97,0.011,2.97,0.011S71.189,80.108,71.18,80.098z M31.43,79.818c-0.49,0-1,0.12-1.53,0.239
		c-0.04,0.011-0.05,0.03-0.08,0.04c0.46-0.01,1.52-0.02,2.71-0.01C32.22,79.908,31.85,79.818,31.43,79.818z"/>
</g>
<path fill="#BE224A" d="M57.842,75.096c-0.705-1.183,0.399-1.87-1.181-0.779c-0.326,0.513,5.444-8.442,10.028-8.34
	c2.636,2.95,2.609,6.06,2.345,7.276C67.57,75.993,57.844,75.097,57.842,75.096z"/>
<path fill="#010101" d="M62.139,68.467c-1.815,0.741-3.326,3.03-0.131,5.276C64.624,71.581,62.749,70.243,62.139,68.467z"/>
<path fill="#FFFFFF" d="M66.67,74.696c0.615-2.964-0.387-6.065-2.48-8.027c1-0.692,1.502-0.715,2.5-0.691
	c2.637,2.95,2.609,6.061,2.346,7.275C68.605,74.056,67.59,74.452,66.67,74.696z"/>
<path fill="#BE224A" d="M42.663,75.096c0.704-1.183-0.4-1.87,1.18-0.779c0.326,0.513-5.445-8.442-10.029-8.34
	c-2.635,2.95-2.608,6.06-2.344,7.276C32.934,75.993,42.66,75.097,42.663,75.096z"/>
<path fill="#010101" d="M38.498,73.743c3.194-2.244,1.685-4.535-0.132-5.274C37.755,70.243,35.88,71.581,38.498,73.743z"/>
<path fill="#FFFFFF" d="M33.834,74.696c-0.615-2.964,0.387-6.065,2.48-8.027c-1-0.692-1.501-0.715-2.5-0.691
	c-2.635,2.95-2.608,6.061-2.344,7.275C31.899,74.056,32.915,74.452,33.834,74.696z"/>
<path fill="#518990" d="M71.2,80.108c0,0-1.36-0.03-2.97-0.011c-1.881,0.021-4.101,0.12-4.871,0.41c-1.409,0.54-6.52,0-7.729,0
	c-1.64,0-5,1.37-5.21,1.45c0.21-0.2,2.63-2.49,4.859-2.49c2.33,0,6.191,0.32,9.98-0.27c3.67-0.58,5.721,0.76,5.92,0.899
	C71.189,80.108,71.2,80.108,71.2,80.108z"/>
<path fill="#518990" d="M53.54,76.077c-1.575-0.049-2.319,0.244-2.614,1.099c-0.295,0.854-0.077,0.896-0.04,1.146
	c0.579-0.918,0.745-1.051,1.008-1.125C53.419,76.766,53.54,76.077,53.54,76.077z"/>
<path fill="#518990" d="M55.049,55.249c0,0-1.338,2.188-3.791,4.068c-2.455,1.881-1.36,6.367-1.36,6.367s3.444,0,5.151,2.508
	c2.326-0.104,3.627-1.141,4.008-1.728c0.383-0.589,2.186-3.481,0.808-7.146C58.484,55.652,55.049,55.249,55.049,55.249z"/>
<path fill="#518990" d="M44.196,67.44c1.915-0.808,3.958-0.089,4.937,0.385c0.979,0.476-0.604,1.752,0.021,3.28
	s-6.281-1.766-6.281-1.766L44.196,67.44z"/>
<path fill="#518990" d="M44.196,57.299c0,0,2.248,1.252,1.248,2.876s-4.333,3.291-4.167,4.124s-1.333-3.5-1.333-3.5L44.196,57.299z"
	/>
<path fill="#518990" d="M64.682,58.799c0,0,4.334-2.165,5.166-4.499c0.834-2.334,0.412,3.166-0.961,4.499
	C67.516,60.132,69.848,57.133,64.682,58.799z"/>
<path fill="#518990" d="M50.36,81.938c-0.21-0.08-3.58-1.44-5.22-1.44c-1.2,0-6.31,0.53-7.73,0c-0.76-0.3-2.99-0.39-4.88-0.41
	c-1.19-0.01-2.25,0-2.71,0.01h-0.09c-0.1,0-0.15,0-0.15,0s2.06-1.52,5.94-0.92c3.79,0.59,7.65,0.271,9.98,0.271
	C47.73,79.448,50.15,81.738,50.36,81.938z"/>
<path fill="#518990" d="M46.819,76.12c1.576-0.047,2.319,0.244,2.614,1.1s0.077,0.896,0.04,1.146
	c-0.578-0.916-0.745-1.051-1.008-1.125C46.94,76.81,46.819,76.12,46.819,76.12z"/>
<path fill="#518990" d="M35.95,58.698c0,0-4.334-2.166-5.167-4.5s-0.411,3.166,0.961,4.5C33.116,60.03,30.784,57.032,35.95,58.698z"
	/>
<path fill="#518990" d="M77.65,45.668l0.439,0.19c-0.359,0.34-0.89,0.72-1.65,1.13c-2.529,1.35-5.539,1.31-6.75,1.22
	c0.601-0.7,1.031-1.48,1.291-2.31l0.039-0.12c0.5-0.261,1.101-0.801,1.34-1.931c1.94,0.891,3.711,1.36,5.291,1.79V45.668z"/>
<path fill="#518990" d="M78.05,43.548c-1.68-0.45-3.43-0.93-5.36-1.88c-0.039-0.02-0.08-0.04-0.119-0.06
	c0.08-0.15,0.16-0.29,0.24-0.431c0.049-0.04,0.119-0.06,0.189-0.08C74.16,40.738,76.83,42.618,78.05,43.548z"/>
<path fill="#518990" d="M26.47,44.618c-0.64,0.7-1.85,1.729-3.65,2.229c-2.4,0.67-2.97,0.71-2.81-0.189
	c0.68-0.22,1.27-0.58,1.79-0.9c0.16-0.09,0.37-0.22,0.51-0.3h2.35l-0.22-0.86C25.04,44.738,25.71,44.758,26.47,44.618z"/>
<path fill="#78C8B8" d="M79.27,80.511c0,0,0.518,0.331,1.967,3.918c0.595,1.472-0.125,2.813,1.979,5.402
	c1.342-1.158,1.834-1.277,1.834-1.277s0.563,0.375,1.75,1.277c1.563,0.385,6.521-0.063,7.688-0.402
	c-0.938-3.9-1.611-4.377-2.563-5.125c-1.75-1.375-3.303-9.227-4.5-15.012C85.445,76.063,79.27,80.511,79.27,80.511z"/>
<path fill="#78C8B8" d="M22.065,80.511c0,0-0.518,0.331-1.967,3.918c-0.595,1.472,0.125,2.813-1.979,5.402
	c-1.342-1.158-1.833-1.277-1.833-1.277s-0.562,0.375-1.75,1.277c-1.563,0.385-6.521-0.063-7.688-0.402
	c0.938-3.9,1.611-4.377,2.563-5.125c1.75-1.375,3.302-9.227,4.5-15.012C15.89,76.063,22.065,80.511,22.065,80.511z"/>
<path fill="#518990" d="M13.84,80.409c0,0,1.458,1.271,3.167-0.5c0.333-2.937-3.167-5.295-3.167-5.295V80.409z"/>
<path fill="#518990" d="M10.674,83.034c0,0,1.542-0.75,1.625-0.834c0.083-0.082,0.22-1.847-0.244-2.291
	c-0.464-0.445-0.827,0.754-0.827,0.754l-0.717,1.938L10.674,83.034z"/>
<path fill="#518990" d="M86.167,73.899c0.119-0.846,1.56-2.561,1.56-2.561s1.5,3.703,0,4.562c-1.5,0.859-3.043,2.815-2.81,1.987
	C85.289,76.571,86.167,73.899,86.167,73.899z"/>
<path fill="#518990" d="M89.373,78.089l-0.98,2.422c0,0-0.604,0.525,0.98,1.456c1.584,0.93,1.184-0.019,1.184-0.019L89.373,78.089z"
	/>
<path fill="#518990" d="M83.549,82.374l2.25-1.299c0,0,2,2.332,1.75,3.082s-1.977,1.656-2.654,1.369
	C84.217,85.241,83.549,82.374,83.549,82.374z"/>
<path fill="#61893C" d="M68.63,38.578c-0.61-0.43-1.2-0.811-1.86-1.13c-0.01,0-0.01,0-0.01,0c-0.42-0.2-0.869-0.37-1.369-0.5
	c0.92-0.21,1.77,1.52,1.659-1.21c0.63,0.97,0.83,0.87,1.06,1.31c0.031,0.03,0.051,0.07,0.07,0.12
	C68.29,37.428,68.43,37.838,68.63,38.578z M34.06,35.738c-0.01,0.09-0.01,0.18-0.01,0.27c-0.01,0.67,0.05,1.021,0.16,1.181
	c0.28,0.39,0.88-0.381,1.51-0.24c-0.49,0.13-0.93,0.29-1.33,0.479c-0.01,0-0.01,0-0.01,0c-0.63,0.3-1.19,0.66-1.77,1.061
	c-0.05,0.029-0.09,0.06-0.14,0.09C33.13,36.148,33.07,37.258,34.06,35.738z M94.22,29.95c-0.029-0.07-0.06-0.14-0.09-0.21
	c-0.09-0.25-0.189-0.49-0.3-0.73c-0.1-0.25-0.22-0.5-0.33-0.74c0-0.01-0.01-0.01-0.01-0.02c-2.84-5.97-7.65-8.89-14.25-10.29
	c-2.65-0.57-7.04-1.08-10.41-0.22c-0.25,0.06-0.49,0.13-0.73,0.21c-0.58,0.19-1.729,1.49-2.31,1.85c-0.06,0.04-0.11,0.07-0.15,0.09
	c0.16-0.35,0.13-0.56,0.07-0.73c-0.02-0.04-0.04-0.08-0.06-0.11c0-0.01-0.011-0.02-0.011-0.03c-0.09-0.17-0.17-0.31-0.04-0.55
	c0.011-0.02,0.021-0.05,0.04-0.08c-0.5-0.38-1.1-0.17-1.76-0.22c-0.1-0.01-0.189-0.02-0.29-0.04c0.62-0.38,1.65-0.18,2.41-0.05
	c-0.03-0.19-0.1-0.38-0.18-0.57c-0.021-0.05-0.051-0.1-0.09-0.16c-0.311-0.61-0.87-1.2-1.461-1.73c-0.659-0.6-1.34-1.13-1.77-1.57
	c-0.38-0.08-0.81-0.15-1.27-0.18c-0.48-0.03-0.99-0.02-1.511,0.06c-0.109,0-0.21,0.02-0.319,0.04c0.729-0.45,0.34-0.77,0.83-0.96
	c0.069-0.03,0.159-0.05,0.27-0.07c-0.74-0.18-2.48-0.55-3.57-0.92c-0.52-0.18-0.89-0.35-0.939-0.5c-0.33,0.09-0.971,0.25-1.16,0.32
	c-0.35,0.14-0.7,0.35-0.96,0.63c-0.021,0.03-0.05,0.05-0.07,0.08c-0.069,0.07-0.13,0.15-0.18,0.24c0-0.02,0-0.04,0.01-0.07
	c0.04-0.09,0.08-0.19,0.12-0.28c0.25-0.6,0.47-1.17,0.98-1.59c0.02-0.02,0.039-0.04,0.069-0.06c-0.25-0.12-0.479-0.29-0.729-0.37
	c-0.521-0.18-1.08-0.27-1.66-0.3c-0.021,0.05-0.04,0.09-0.061,0.14c-0.34,0.87-0.619,1.84-0.869,2.78
	c-0.48,1.79-0.86,3.47-1.42,4.09c0.2-1.15,0.32-2.3,0.31-4.11c0-0.58-0.02-1.23-0.05-1.96c-1.08,0.46-2.14,0.95-2.92,1.36h-0.01
	c0.03,0.06,0.05,0.12,0.08,0.18c0.01,0.04,0.03,0.08,0.05,0.12c0,0.03,0,0.05,0.01,0.07c-0.07-0.11-0.15-0.21-0.24-0.31
	c-0.02,0-0.04,0.01-0.06,0.02c-0.47,0.25-0.82,0.46-1,0.61c0.01,0.04,0.02,0.09,0.02,0.13c0.11,0.54,0.2,1.13,0.27,1.73
	c0.34,2.79,0.36,5.97-0.35,7.59c0.13-1.74,0.11-3.26-0.02-4.61c-0.01-0.06-0.01-0.12-0.02-0.18c-0.16-1.49-0.45-2.75-0.84-3.84
	c-0.05-0.19-0.12-0.37-0.19-0.55c-0.18-0.47-0.38-0.9-0.58-1.3c-0.03-0.05-0.05-0.09-0.07-0.14c-1.05,0.39-3,0.81-3.81,1
	c0.1,0.02,0.22,0.05,0.34,0.09c0.47,0.16,1.05,0.46,1.6,0.78c0.53,0.31,1.02,0.63,1.38,0.84c-0.13-0.07-0.29-0.13-0.48-0.19
	c-0.55-0.18-1.32-0.3-2.1-0.38c0,0,0,0-0.01,0c-0.48-0.05-0.95-0.08-1.38-0.09c-0.59-0.02-1.09,0-1.35,0.06
	c-0.36,0.37-0.9,0.8-1.45,1.29c0,0-0.01,0-0.01,0.01c-0.92,0.8-1.87,1.75-2.04,2.73c0.04-0.01,0.08-0.01,0.12-0.01
	c0.87-0.12,1.7-0.06,2.34,0.05c-0.13,0.04-0.23,0.07-0.32,0.09c-0.47,0.14-0.54,0.2-1.01,0.56c0.03,0.06,0.06,0.11,0.07,0.15
	l0.01,0.01c0.12,0.41-0.72,0.09-0.38,0.57c0,0.01,0,0.01,0,0.01c0.03,0.02,0.05,0.05,0.08,0.08c-0.01,0-0.02,0-0.04-0.01
	c-0.31-0.03-0.75-0.17-1.27-0.34c-0.43-0.15-0.92-0.28-1.44-0.41c-0.03-0.01-0.06-0.01-0.09-0.02c-0.71-0.18-1.5-0.35-2.32-0.49
	c-3.26-0.56-7-0.78-8.98-0.36c-8.8,1.86-14.42,6.43-16.42,17.33c0.08,1.27,0.3,2.33,0.72,3.21c0.06,0.13,0.12,0.25,0.19,0.37
	c0.05,0.1,0.11,0.19,0.16,0.28c0.67,1,1.68,1.73,3.18,2.26c0.24-1.67,0.12-5.01,1.87-5.84v0.19c-0.05,3.54,0.24,5.59,0.83,6.69
	c0.02,0.02,0.03,0.04,0.04,0.07c0.12,0.21,0.26,0.39,0.4,0.53c0.69,0.65,1.65,0.6,2.86,0.27c-0.75-3.61-0.02-5.72,1.23-7.89
	c-0.01,0.11-0.01,0.21-0.02,0.32c-0.31,4.64-0.02,7.02,0.56,8.13c0.01,0.02,0.02,0.03,0.03,0.04c1.15,2.12,3.41-0.6,4.45-0.6
	c-0.62-2.31-0.88-5.93,0.03-8.5c0,0.12,0.01,0.24,0.01,0.35c0.1,2.77,0.46,4.63,1.05,5.79c0.04,0.08,0.08,0.16,0.12,0.23
	c0.02,0.03,0.04,0.07,0.06,0.1c1.11,1.81,2.92,1.52,5.31,0.33c0-0.01,0.01-0.01,0.01-0.01c-0.06-0.12-0.13-0.23-0.2-0.34
	c-0.03-0.08-0.08-0.16-0.14-0.24c-0.11-0.21-0.24-0.41-0.36-0.61c-0.09-0.16-0.17-0.31-0.26-0.47c-0.04-0.07-0.08-0.14-0.11-0.21
	c-0.02-0.04-0.04-0.07-0.05-0.11c-0.07-0.14-0.13-0.28-0.18-0.43c-0.47-1.17-0.53-2.57,0.58-4.87c0.01,0.08,0.02,0.17,0.03,0.25
	c0.13,1.33,0.42,2.28,0.78,2.95c0,0.01,0.01,0.02,0.02,0.03c0.08,0.15,0.16,0.28,0.25,0.4c1.11,1.55,2.73,1.05,3.31,0.79
	c-0.03,0.06-0.06,0.13-0.09,0.21c-0.31,0.72-0.83,2.02-0.83,3.3c0,0.52,0.08,1.03,0.3,1.5l0.01-0.01c0.81-0.29,2.13-1.2,3.05-1.39
	c-0.17,0.09-0.34,0.2-0.5,0.33c-0.88,0.68-1.57,1.79-2.05,2.47c0.1,0.3,0.22,0.58,0.37,0.85c0.01,0.02,0.02,0.03,0.03,0.04
	c0.45,0.79,1.12,1.44,1.89,1.93c0.87-1.17,2.09-1.38,4.46-2.06c-0.09,0.07-0.17,0.15-0.25,0.23c-0.57,0.6-1,1.59-1.09,2.58
	c-0.03,0.21-0.03,0.42-0.02,0.63c0.03,0.02,0.05,0.03,0.08,0.05c1.09,0.71,2.23,1.6,3.25,1.39c0.67-1.16,1.95-1.56,2.75-1.85
	c-0.03,0.07-0.04,0.13-0.05,0.19c-0.05,0.25,0.01,0.46,0.13,0.64c0.51,0.74,2.14,1.05,3.05,1.47c2.07-2.74,3.18-2.29,3.83-2.25
	c0.01,0,0.01,0,0.01,0c0.17-0.01,0.38-0.05,0.63-0.05c0.69,0,1.69,0.3,3.2,2.3c1.2-0.55,3.62-0.92,3.12-2.3
	c0.8,0.29,2.09,0.69,2.75,1.85c1.05,0.21,2.229-0.72,3.33-1.44c0.01-0.21,0.01-0.42-0.011-0.63c-0.05-0.5-0.18-1-0.38-1.45
	c-0.05-0.11-0.1-0.21-0.149-0.31c-0.061-0.11-0.13-0.22-0.2-0.32c-0.12-0.22-0.28-0.41-0.44-0.56c-0.06-0.07-0.12-0.12-0.18-0.17
	c2.38,0.68,3.6,0.89,4.47,2.06c1.021-0.66,1.891-1.61,2.271-2.8C69,45.17,69,45.17,69,45.16c-0.5-0.72-1.24-1.91-2.17-2.57
	c-0.12-0.09-0.24-0.16-0.37-0.23c0.91,0.19,2.25,1.11,3.06,1.4c0.551-1.2,0.25-2.67-0.119-3.76c-0.08-0.22-0.16-0.43-0.23-0.62
	c-0.08-0.18-0.15-0.34-0.2-0.48c-0.029-0.05-0.05-0.1-0.069-0.14c0.859,0.38,3.899,1.23,4.38-4.43c0.029,0.06,0.05,0.11,0.08,0.16
	c1.67,3.53,0.489,4.91-0.551,6.69c-0.079,0.14-0.159,0.28-0.239,0.43l0.12,0.06c1.93,0.95,3.68,1.43,5.359,1.88h0.01
	c0.11,0.03,0.21,0.06,0.32,0.09c0.88-1.11,1.33-2.28,1.48-4.42c0.02,0.1,0.04,0.2,0.06,0.3c0.34,1.76,0.12,4.1-0.04,4.81
	c0.03,0.01,0.07,0.03,0.101,0.04c1.34,0.56,2.779,1.17,4.529,1.06c0.01-0.03,0.021-0.05,0.03-0.08c0.27-0.67,0.55-2,0.66-3.49
	c0.13-1.55,0.08-3.27-0.311-4.57c0.37,0.68,1.54,4.81,1.9,6.4c0.05,0.23,0.08,0.41,0.09,0.52c0.38,0.1,0.811,0.15,1.24,0.14
	c0.95-0.03,1.87-0.34,2.13-0.93c0.01-1.09,0.44-3.35-0.64-7.53c-0.021-0.11-0.051-0.21-0.08-0.32c0.37,0.18,0.66,0.47,0.88,0.84
	c0.05,0.06,0.09,0.13,0.109,0.2c0.721,1.37,0.7,3.55,0.891,4.8c0.02-0.01,0.03-0.01,0.05-0.02c2.96-1.05,4-2.94,4.2-6.1
	C95.3,33.31,94.81,31.54,94.22,29.95z M51.65,29.55c-0.301,0.04-0.67,0.1-1.101,0.16c-0.42-0.06-0.8-0.12-1.09-0.16l0.18-0.56
	c0.21,0,0.53-0.03,0.91-0.07c0.39,0.04,0.7,0.07,0.92,0.07L51.65,29.55z"/>
<path fill="#D15988" d="M46.34,5.68c-0.04,0-0.08,0.01-0.13,0.02c-0.53,0.12-1.24,0.65-1.48,0.83c0.24-0.25,0.53-0.54,0.9-0.87
	C45.93,5.4,46.16,5.46,46.34,5.68z"/>
<path fill="#D15988" d="M48.2,8.16c-0.16,0.68-0.29,1.03-0.44,0.23h-0.01c-0.12,0.09-0.22,0.06-0.3-0.03
	c0.09-0.03,0.18-0.08,0.27-0.17V8.18c0.02-0.01,0.03-0.03,0.05-0.05c0.1-0.1,0.19-0.24,0.29-0.42C48.09,7.9,48.14,8.05,48.2,8.16z"
	/>
<path fill="#D15988" d="M49.97,7.13c0,0.07,0,0.14-0.02,0.2c-0.09,0.38-1.29,1.71-1.75,0.83c0.11-0.49,0.23-1.15,0.38-1.65
	c0.13,0.07,0.22,0.13,0.26,0.15c-0.02-0.04-0.08-0.16-0.2-0.31c0.09-0.28,0.19-0.49,0.31-0.53c0.05-0.03,0.09-0.03,0.14,0
	c0.27,0.15,0.48,0.35,0.62,0.56c0.02,0.02,0.03,0.04,0.05,0.06C49.9,6.68,49.97,6.92,49.97,7.13z"/>
<path fill="#D15988" d="M52.02,6.85c0,0.27-0.039,0.55-0.09,0.83c-0.01,0.02-0.02,0.04-0.02,0.06c-0.03,0.14-0.061,0.27-0.101,0.4
	c-0.01,0.03-0.02,0.06-0.02,0.09c-0.2,0.65-0.45,1.18-0.49,1.26c-0.17,0.44-0.43,0.56-0.91,0.71c0,0-0.01,0-0.02,0
	c-0.39,0.13-0.94,0.28-1.71,0.64c-0.94,0.44-1.48,0.53-1.87,0.39c-0.33-0.11-0.56-0.39-0.83-0.76c-0.49,0.59-0.22,0.68-0.22,0.82
	c0,0.15-1.34-1.62-2.13-2.33c-0.78-0.71-0.08-1.52,0.46-1.68c0,0-0.37,0.98,0.9,1.37c0.39,0.12,1.57-1.01,1.08-1.13
	c-0.48-0.12-0.86-0.26-0.48-0.56c0.39-0.32,0.77-0.51,1.12-0.61c0.28,0.73,0.47,1.71,0.76,2.01c-0.43,0.15-0.8-0.32-1.12-0.33
	c-0.48,0-0.64,1.35,0.76,1.3c1.4-0.05,2.31-0.49,3.27-1.24c0.54-0.42,0.871-1.44,0.67-2.63c0.17,0.03,0.31,0.09,0.42,0.16v0.01
	c0.38,0.21,0.54,0.61,0.56,1.07C52.02,6.75,52.02,6.8,52.02,6.85z"/>
<path fill="#D15988" d="M66.537,28.923c0,0.71-0.109,1.34-0.311,1.9c-0.26,0.74-0.68,1.35-1.219,1.85
	c-4.16,3.93-15.411,1.56-15.411,1.56s-6.37,2.15-11.1,1.25c-0.72-0.14-1.4-0.35-2.01-0.65c-0.1-0.04-0.2-0.09-0.29-0.14
	c-0.94-0.51-1.7-1.25-2.18-2.29c-0.05-0.1-0.1-0.21-0.14-0.32c-1.74-4.52-2.17-7.43-1.29-11.25c0.14-0.6,0.36-1.29,0.64-2.03
	c1.74-4.61,5.81-11.24,7.46-12.72c-0.06,0.75,0.48,1.42,1.26,2.33c0.43,0.5,0.93,1.08,1.43,1.78c0.37,0.51,0.74,1.08,1.09,1.74
	c0.02,0.05,0.04,0.09,0.07,0.14c0.2,0.4,0.4,0.83,0.58,1.3c0.07,0.18,0.14,0.36,0.19,0.55c0.39,1.09,0.68,2.35,0.84,3.84
	c0.01,0.06,0.01,0.12,0.02,0.18c0.13,1.35,0.15,2.87,0.02,4.61c0.71-1.62,0.69-4.8,0.35-7.59c-0.07-0.6-0.16-1.19-0.27-1.73
	c0-0.04-0.01-0.09-0.02-0.13c0.18-0.15,0.53-0.36,1-0.61c0.02-0.01,0.04-0.02,0.06-0.02c0.03-0.03,0.06-0.05,0.1-0.06h0.01
	c0.78-0.41,1.84-0.9,2.92-1.36c0.03,0.73,0.05,1.38,0.05,1.96c0.01,1.81-0.11,2.96-0.31,4.11c0.56-0.62,0.94-2.3,1.421-4.09
	c0.25-0.94,0.529-1.91,0.869-2.78c0.02-0.05,0.039-0.09,0.061-0.14c0.279-0.69,0.609-1.31,1.02-1.77c0.35-0.42,0.59-2.85,1.07-2.97
	c3.1,3.3,5.23,6.12,6.73,8.49c0.18,0.3,0.359,0.59,0.529,0.87c2.379,3.98,2.9,6.52,3.43,7.64
	C66.057,24.193,66.537,26.252,66.537,28.923z"/>
<text transform="matrix(0.6737 0 0 1 43.8564 94.9863)" fill="#78C8B8" font-family="'Gadugi-Bold'" font-size="5.9004">N° 002</text>
</svg>
