<?xml version="1.0" encoding="utf-8"?>
<!-- Generator: Adobe Illustrator 16.0.0, SVG Export Plug-In . SVG Version: 6.00 Build 0)  -->
<!DOCTYPE svg PUBLIC "-//W3C//DTD SVG 1.1//EN" "http://www.w3.org/Graphics/SVG/1.1/DTD/svg11.dtd">
<svg version="1.1" id="Layer_1" xmlns="http://www.w3.org/2000/svg" xmlns:xlink="http://www.w3.org/1999/xlink" x="0px" y="0px"
	 width="1000px" height="1000px" viewBox="0 0 1000 1000" enable-background="new 0 0 1000 1000" xml:space="preserve">
<path fill="#78C8B8" d="M1434.19,368.707c-12.393,178.038-160.737,318.617-341.921,318.617
	c-181.193,0-329.529-140.579-341.904-318.617H1434.19z M750.365,320.459C762.74,142.431,911.094,1.842,1092.287,1.842
	c181.184,0,329.52,140.588,341.903,318.617H750.365z"/>
<path fill="#00AEEF" d="M607.61,773.8c-21.96,22.01-75.681-4.439-91.811,22.03c-23.99,39.36-80.75,75.99-130.75,75.99l-0.09-12.83
	c29.87-0.561,70.01-17.98,82.18-29.48c4.83-4.569,34.52-39.5,40.86-45.51c3.27-3.09,18.02-13.07,19.81-16.01
	c-8.739-0.271-17.479-1.021-26.42-0.99c-15.11,0.04-28.399,2.16-42.419,8.14c-8.72,3.721-18.1,12.32-27.5,13.36
	c-7.87,0.87-16.14-1-24.08-1c-7.52,0-15.39,1.53-22.92,1.63L383,582c18,0,33.78-0.94,83,3c18.47,1.48,28.95-5.94,49.02-11.62
	c17.811-5.05,42.921-7.21,61.4-7.68c1.58,23.3-4.57,56.149-11.36,77.46c9.561,6.62,17.801,17.12,25.271,26.17
	c13,15.75,18.27,24.99,23.75,45.15C618.3,730.01,620.05,761.33,607.61,773.8z"/>
<circle fill="#FFFFFF" stroke="#ED1C24" stroke-miterlimit="10" cx="497.722" cy="704.5" r="30.5"/>
<circle fill="#EE2A7B" stroke="#ED1C24" stroke-miterlimit="10" cx="499.389" cy="704.5" r="15.5"/>
<path fill="#00AEEF" stroke="#ED1C24" stroke-miterlimit="10" d="M534.885,693.383c-3.772-13.078-14.435-23.534-28.309-26.58
	l-35.93,11.085c-5.291,5.62-8.92,12.906-9.982,21.158c-0.805,6.258-0.046,12.346,1.984,17.88"/>
<path fill="none" stroke="#ED1C24" stroke-miterlimit="10" d="M572,760.5c0.76-0.43,1.44,0.22,1.44-0.94
	c-6.66,3.271-13.521,5.49-20.95,6.931c-8.32,1.6-16.5,1.76-24.681,1.5c-8.739-0.271-17.479-1.021-26.42-0.99
	c-15.11,0.04-28.399,2.16-42.419,8.14c-8.72,3.721-18.1,12.32-27.5,13.36c-7.87,0.87-16.14-1-24.08-1c-7.52,0-15.39,1.53-22.92,1.63
	c-1.51,0.021-3-0.01-4.47-0.13"/>
<path fill="none" stroke="#ED1C24" stroke-miterlimit="10" d="M528,767.5c0,0.13-0.06,0.29-0.19,0.49
	c-1.79,2.939-16.54,12.92-19.81,16.01c-6.34,6.01-36.03,40.94-40.86,45.51c-12.17,11.5-52.31,28.92-82.18,29.48
	c-0.49,0.01-0.97,0.01-1.46,0.01"/>
<path fill="#EE2A7B" stroke="#ED1C24" stroke-miterlimit="10" d="M518.667,609.5c12.208,5.167,28.458,20.229,38.458,29.25
	c5.375-21.083,8.577-42.377,11.208-62.917c-5.605,0.336-19.163,10.659-24.062,14.167L518.667,609.5z"/>
</svg>
