<?xml version="1.0" encoding="utf-8"?>
<!-- Generator: Adobe Illustrator 16.0.0, SVG Export Plug-In . SVG Version: 6.00 Build 0)  -->
<!DOCTYPE svg PUBLIC "-//W3C//DTD SVG 1.1//EN" "http://www.w3.org/Graphics/SVG/1.1/DTD/svg11.dtd">
<svg version="1.1" id="Layer_1" xmlns="http://www.w3.org/2000/svg" xmlns:xlink="http://www.w3.org/1999/xlink" x="0px" y="0px"
	 width="1000px" height="1000px" viewBox="0 0 1000 1000" enable-background="new 0 0 1000 1000" xml:space="preserve">
<path fill="#52CDAC" d="M614.08,714.48c-5.48-20.16-10.75-29.4-23.75-45.15c-7.47-9.05-15.71-19.55-25.271-26.17
	C571.85,621.85,578,589,576.42,565.7c-18.479,0.47-43.59,2.63-61.4,7.68C494.95,579.06,484.47,586.48,466,585
	c-46.24-3.7-62.97-3.1-79.75-3.01h-0.05c-16.78-0.09-33.51-0.69-79.75,3.01c-18.47,1.48-28.95-5.94-49.02-11.62
	c-17.81-5.05-42.92-7.21-61.4-7.68c-1.58,23.3,4.57,56.149,11.36,77.46c-9.56,6.62-17.8,17.12-25.27,26.17
	c-13,15.75-18.27,24.99-23.75,45.15c-4.22,15.529-5.97,46.85,6.47,59.319c21.96,22.01,75.68-4.439,91.81,22.03
	c23.62,38.75,78.98,74.84,128.4,75.96c0.4,0.01,0.79,0.02,1.18,0.02s0.78-0.01,1.17-0.02c49.42-1.12,104.78-37.21,128.4-75.96
	c16.13-26.47,69.851-0.021,91.811-22.03C620.05,761.33,618.3,730.01,614.08,714.48z M215.32,638.75
	c-5.37-21.08-8.57-42.38-11.21-62.92c5.61,0.34,19.17,10.66,24.07,14.17l25.6,19.5C241.57,614.67,225.32,629.73,215.32,638.75z
	 M237.56,693.38c3.78-13.08,14.44-23.53,28.31-26.58l35.93,11.09c5.29,5.62,8.92,12.9,9.98,21.16c0.81,6.25,0.05,12.34-1.98,17.88
	l-6.38-2.08C299.18,726.6,287.93,735,274.73,735c-16.85,0-30.5-13.66-30.5-30.5c0-2.97,0.42-5.84,1.22-8.55L237.56,693.38z M508,784
	c-4.46,7.51-46.25,71-121.77,74.95c-69.23,0-116.75-67.811-121.78-74.95c-9.03-12.83-18.02-13.07-19.81-16.01
	c8.74-0.271,17.48-1.021,26.42-0.99c15.11,0.04,28.4,2.16,42.42,8.14c8.72,3.721,29.03,21.99,36.55,22.83
	c6.3,0.69,12.91-0.8,19.26-0.8h33.87c6.35,0,12.96,1.49,19.26,0.8c7.52-0.84,27.83-19.109,36.55-22.83
	c14.02-5.979,27.31-8.1,42.419-8.14c8.94-0.03,17.681,0.72,26.42,0.99C526.02,770.93,513.5,774.75,508,784z M528.22,704.5
	c0,16.84-13.649,30.5-30.5,30.5c-13.21,0-24.45-8.4-28.7-20.15l-6.37,2.08c-2.03-5.54-2.79-11.63-1.99-17.88
	c1.07-8.26,4.69-15.54,9.99-21.16l35.93-11.09c13.87,3.05,24.53,13.5,28.3,26.58l-7.88,2.57
	C527.8,698.66,528.22,701.53,528.22,704.5z M518.67,609.5l25.6-19.5c4.9-3.51,18.461-13.83,24.061-14.17
	c-2.63,20.54-5.83,41.84-11.21,62.92C547.12,629.73,530.88,614.67,518.67,609.5z"/>
<path fill="#52CDAC" d="M1508.19,464.457c-12.393,178.038-160.737,318.617-341.921,318.617
	c-181.193,0-329.529-140.579-341.904-318.617H1508.19L1508.19,464.457z M824.365,416.209
	C836.74,238.181,985.094,97.592,1166.286,97.592c181.185,0,329.521,140.588,341.903,318.617H824.365z"/>
<path fill="none" d="M386.23,871.81c-0.39,0-0.78-0.01-1.18-0.02"/>
<path fill="#00AEEF" d="M568.33,575.83c-2.63,20.54-5.83,41.84-11.21,62.92c-10-9.02-26.24-24.08-38.45-29.25l25.6-19.5
	C549.17,586.49,562.731,576.17,568.33,575.83z"/>
<path fill="#FFFFFF" stroke="#ED1C24" stroke-miterlimit="10" d="M528.22,704.5c0,16.84-13.649,30.5-30.5,30.5
	c-13.21,0-24.45-8.4-28.7-20.15c-1.16-3.229-1.8-6.72-1.8-10.35c0-16.84,13.66-30.5,30.5-30.5c13.879,0,25.589,9.27,29.28,21.95
	C527.8,698.66,528.22,701.53,528.22,704.5z"/>
<circle fill="#DE4141" cx="499.389" cy="704.5" r="15.5"/>
<path fill="#00AEEF" stroke="#ED1C24" stroke-miterlimit="10" d="M610.713,818.38l-7.881,2.57l-12.75,4.16l-29.459,9.6l-15.77,5.14
	l-6.371,2.08c-2.029-5.54-2.789-11.63-1.99-17.88c1.07-8.26,4.691-15.54,9.99-21.16l35.93-11.09
	C596.283,794.85,606.944,805.3,610.713,818.38z"/>
<path fill="#DE4141" d="M568.33,575.83c-2.63,20.54-5.83,41.84-11.21,62.92c-10-9.02-26.24-24.08-38.45-29.25l25.6-19.5
	C549.17,586.49,562.731,576.17,568.33,575.83z"/>
<path fill="#DE4141" d="M527.81,767.99c-1.79,2.939-14.31,6.76-19.81,16.01c-4.46,7.51-46.25,71-121.77,74.95
	c-69.23,0-116.75-67.811-121.78-74.95c-9.03-12.83-18.02-13.07-19.81-16.01c8.74-0.271,17.48-1.021,26.42-0.99
	c15.11,0.04,28.4,2.16,42.42,8.14c8.72,3.721,29.03,21.99,36.55,22.83c6.3,0.69,12.91-0.8,19.26-0.8h33.87
	c6.35,0,12.96,1.49,19.26,0.8c7.52-0.84,27.83-19.109,36.55-22.83c14.02-5.979,27.31-8.1,42.419-8.14
	C510.33,766.97,519.071,767.72,527.81,767.99z"/>
<path fill="#00AEEF" d="M253.78,609.5c-12.21,5.17-28.46,20.23-38.46,29.25c-5.37-21.08-8.57-42.38-11.21-62.92
	c5.61,0.34,19.17,10.66,24.07,14.17L253.78,609.5z"/>
<path fill="none" d="M387.4,871.79c-0.39,0.01-0.78,0.02-1.17,0.02"/>
<path fill="#FFFFFF" stroke="#ED1C24" stroke-miterlimit="10" d="M305.23,704.5c0,3.64-0.64,7.12-1.81,10.35
	C299.18,726.6,287.93,735,274.73,735c-16.85,0-30.5-13.66-30.5-30.5c0-2.97,0.42-5.84,1.22-8.55c3.69-12.681,15.4-21.95,29.28-21.95
	C291.57,674,305.23,687.66,305.23,704.5z"/>
<circle fill="#DE4141" cx="273.06" cy="704.5" r="15.5"/>
<path fill="#00AEEF" stroke="#ED1C24" stroke-miterlimit="10" d="M309.8,716.43l-6.38-2.08l-15.76-5.14l-29.46-9.6l-12.75-4.16
	l-7.89-2.57c3.78-13.08,14.44-23.53,28.31-26.58l35.93,11.09c5.29,5.62,8.92,12.9,9.98,21.16
	C312.59,704.8,311.83,710.89,309.8,716.43z"/>
<path fill="none" stroke="#ED1C24" stroke-miterlimit="10" d="M244.64,767.99c-0.13-0.2-0.19-0.36-0.19-0.49"/>
<path fill="#DE4141" d="M253.78,609.5c-12.21,5.17-28.46,20.23-38.46,29.25c-5.37-21.08-8.57-42.38-11.21-62.92
	c5.61,0.34,19.17,10.66,24.07,14.17L253.78,609.5z"/>
<image overflow="visible" width="160" height="160" xlink:href="6C6963EF.jpg"  transform="matrix(1 0 0 1 -246.968 167.0054)">
</image>
<image overflow="visible" width="225" height="225" xlink:href="6C6963ED.jpg"  transform="matrix(1 0 0 1 -264.9998 370)">
</image>
</svg>
