<?xml version="1.0" encoding="utf-8"?>
<!-- Generator: Adobe Illustrator 16.0.0, SVG Export Plug-In . SVG Version: 6.00 Build 0)  -->
<!DOCTYPE svg PUBLIC "-//W3C//DTD SVG 1.1//EN" "http://www.w3.org/Graphics/SVG/1.1/DTD/svg11.dtd">
<svg version="1.1" id="Layer_1" xmlns="http://www.w3.org/2000/svg" xmlns:xlink="http://www.w3.org/1999/xlink" x="0px" y="0px"
	 width="1000px" height="1000px" viewBox="0 0 1000 1000" enable-background="new 0 0 1000 1000" xml:space="preserve">
<path fill="#61C3A8" d="M843.084,552.025c-12.395,178.037-160.738,318.617-341.922,318.617
	c-181.192,0-329.528-140.58-341.903-318.617H843.084L843.084,552.025z"/>
<path fill="#006838" d="M159.259,503.776C171.634,325.749,319.987,185.16,501.18,185.16c181.186,0,329.521,140.588,341.904,318.617
	H159.259z"/>
<g>
	<g>
		<path fill="#FFF200" d="M598.896,438.798c-9.4,7.207-12.98,18.326-5.115,28.259c6.703,8.464,19.061,11.321,29.014,7.588
			c9.988-3.748,16.082-11.927,16.924-22.481c0.754-9.457-4.039-19.348-9.402-26.801c-9.395-13.056-30.393-29.008-45.77-15.537
			c-12.197,10.686-7.689,33.075-1.617,45.589c8.742,18.018,35.256,25.353,49.217,8.802c14.115-16.736,1.551-39.427-15.162-48.26
			c-13.264-7.009-33.303-8.248-39.418,8.499c-2.928,8.016-0.098,19.003,4.369,25.895c4.521,6.975,12.061,11.753,20.096,13.586
			c7.531,1.718,16.066,0.822,22.078-4.365c6.471-5.582,6.91-14.61,4.246-22.199c-3.348-9.531-10.359-19.001-20.691-21.32
			c-8.797-1.975-16.865,2.001-22.133,8.912c-5.143,6.746-4.061,16.818,0.904,23.254c6.047,7.84,15.953,12.619,25.752,13.421
			c15.785,1.292,21.193-15.099,18.379-27.788c-2.84-12.813-14.676-24.585-28.543-20.204c-19.918,6.292-15.643,40.325,5.203,41.398
			c11.475,0.591,17.457-10.918,14.355-20.866c-2.738-8.784-13.18-16.354-22.268-11.865c-8.135,4.018-3.426,14.813,0.002,20.23
			c1.311,2.07,2.773,4.343,4.617,5.973c5.025,4.443,12.822,1.753,13.117-5.322c-0.336-2.974-0.387-2.656-0.154,0.953
			c-0.436,1.007-0.449,1.121-0.045,0.339c0.412-0.739,0.873-1.451,1.293-2.187c1.291-2.267,2.037-4.686,2.084-7.297
			c0.145-7.845-8.064-11.368-14.416-12.874c-5.215-1.236-8.84,2.356-9.494,7.232c-1.223,9.117,2.969,16.392,10.533,21.249
			c8.166,5.244,15.68-7.745,7.57-12.952c-3.424-2.199-3.633-4.361-3.104-8.297c-3.166,2.411-6.33,4.821-9.494,7.232
			c1.311,0.311,4.023,0.936,4.566,1.433c-1.006-0.92-0.813-4.508-1.162-3.251c0.438-1.569-0.168,0.183-0.359,0.521
			c-0.842,1.477-1.602,2.809-2.25,4.402c-0.432,1.066-0.746,7.747-0.574,3.611c1.238-2.159,2.477-4.317,3.715-6.476
			c-0.02,0.013-0.037,0.026-0.057,0.039c1.928-0.252,3.854-0.504,5.779-0.756c3.07,0.994,3.615,2.466,2.389,1.118
			c-0.252-0.277-1.191-1.534-0.105-0.089c-0.814-1.085-1.547-2.232-2.252-3.391c-0.367-0.603-1.895-3.843-1.41-2.589
			c-0.213-0.549-0.35-1.115-0.475-1.688c0.721,3.334-2.242,6.848-5.902,6.324c2.535,0.363,3.686,2.247,3.813,3.93
			c0.094,1.222-0.066,0.951,0.207,0.316c-0.678,1.573-0.268,0.172,0.68-0.212c-1.326,0.539-1.73,0.096-2.094-0.232
			c-1.902-1.724-2.307-5.037-2.211-7.808c0.107-3.102,1.563-3.635,3.199-4.064c-0.395,0.104,2.203,0.074,0.928-0.134
			c0.58,0.095,1.141,0.278,1.697,0.46c-1.701-0.556-0.029,0.032,0.336,0.234c1.24,0.685,2.643,2.291,3.67,3.991
			c1.391,2.305,1.545,2.819,2.295,6.198c0.059,0.268,0.354,2.408,0.137,0.578c0.074,0.633,0.1,1.27,0.123,1.906
			c0.023,0.621-0.004,1.242-0.035,1.862c-0.064,1.326,0.297-1.153-0.162,0.952c-0.121,0.558-0.305,1.098-0.488,1.637
			c0.605-1.765,0.043-0.202-0.178,0.192c-0.877,1.567,1.076-1.146-0.094,0.191c-0.299,0.341-1.635,1.308-0.096,0.209
			c-0.332,0.237-1.926,0.946-0.182,0.245c-0.555,0.223-1.143,0.346-1.723,0.47c1.771-0.38-0.285-0.061-0.641-0.058
			c-1.65,0.013-0.754,0.011-1.857-0.213c-3.777-0.767-7.678-2.55-10.619-5.03c-1.369-1.155-2.248-2.344-3.066-3.93
			c0.436,0.843-0.314-1.499-0.289-1.387c0.322,1.453,0.344-2.274,0.051-0.617c0.701-3.967,4.969-6.202,8.912-4.239
			c3.871,1.927,5.955,6.097,7.734,9.809c0.473,0.983,1.146,3.667,1.168,3.873c0.086,0.794,0.045,1.592-0.006,2.387
			c0.107-1.716-0.98,1.913-0.141,0.205c-0.271,0.554-0.309,0.673-0.836,1.027c-0.18,0.121-2.088,1.004-0.629,0.425
			c-0.658,0.261-1.35,0.426-2.035,0.593c-2.205,0.538,1.391-0.049-0.943,0.136c-0.771,0.061-1.551,0.037-2.324,0.015
			c-1.648-0.046-2.262-0.243-4.43-0.883c-6.314-1.865-10.061-6.738-11.654-13.599c-0.377-1.621-0.424-3.237-0.363-4.899
			c0.035-0.937,0.27-1.526,0.535-2.047c0.135-0.267,1.41-1.812,0.375-0.629c0.197-0.225,1.77-1.403,0.459-0.488
			c0.188-0.13,2.068-1.067,0.557-0.439c0.852-0.354,1.758-0.56,2.656-0.751c-1.564,0.334,0.725-0.048,0.912-0.059
			c0.768-0.044,1.537-0.011,2.305,0.021c1.688,0.068,1.617,0.132,3.652,0.614c3.717,0.881,6.254,2.125,9.502,4.135
			c6.061,3.75,10.93,10.222,10.65,18.154c-0.301,8.563-10.262,10.788-16.859,8.828c-6.9-2.049-10.189-7.891-12.389-14.895
			c-1.455-4.637-1.953-8.692-1.775-13.575c0.066-1.814,0.289-3.091,0.963-5.372c0.533-1.8,0.881-2.269,2.031-3.404
			c-1.301,1.284,1.76-0.903,0.078-0.196c0.363-0.153,2.842-0.562,1.537-0.456c1.896-0.154,3.539,0.427,5.936,1.187
			c5.074,1.609,9.439,5.974,12.92,9.86c5.361,5.989,13.205,19.244,7.152,26.341c-3.49,4.093-9.535,5.262-14.291,2.881
			c-3.949-1.979-5.857-5.356-2.02-8.299c3.238-2.482,4.951-6.401,2.689-10.261C607.285,438.293,602.148,436.304,598.896,438.798
			L598.896,438.798z"/>
	</g>
</g>
<g>
	<g>
		<path fill="#FFF200" d="M505.676,431.917c-1.498,4.894-1.498,10.458,0,15.351c1.299,4.24,5.096,5.889,9.227,5.238
			c4.883-0.769,9.887-3.235,12.322-7.74c2.195-4.06,2.031-9.238-0.539-13.104c-2.576-3.873-6.82-6.398-11.543-6.319
			c-5.016,0.084-10.559,3.561-12.734,8.125c-2.947,6.181-0.166,12.06,5.027,15.819c3.77,2.728,10.428,4.587,14.035,0.5
			c0.477-0.541,1.012-1.063,1.307-1.726c0.252-0.597,0.504-1.194,0.756-1.792c0.271-2.459,0.338-2.66,0.203-0.603
			c0.326-0.814,0.65-1.627,0.943-2.454c0.75-2.115,1.01-4.54,0.373-6.717c-2.217-7.563-10.432-6.728-16.41-5.271
			c-2.518,0.613-4.561,2.775-5.238,5.238c-0.969,3.522,0.709,6.427,3.447,8.47c2.938,2.194,5.758,3.942,9.467,4.433
			c3.457,0.458,6.164-2.671,7.232-5.506c2.178-5.782-2.395-10.829-7.512-12.634c-3.857-1.361-8.199,1.507-9.227,5.238
			c-1.141,4.152,1.387,7.867,5.238,9.226c-0.668-0.236-2.061-0.969-0.848-0.321c0.627,0.4,0.426,0.236-0.605-0.494
			c-1.211-1.544-1.715-3.211-1.512-5.001c2.41-1.835,4.82-3.671,7.232-5.506c0.959-0.042,1.855,0.17,2.688,0.634
			c-0.254-0.131-0.502-0.27-0.748-0.416c-0.557-0.319-1.09-0.679-1.621-1.034c-0.754-0.501-1.49-1.029-2.215-1.57
			c-0.598,4.569-1.195,9.139-1.791,13.708c0.686-0.167,1.373-0.327,2.064-0.474c0.383-0.079,0.768-0.15,1.154-0.213
			c-1.15,0.138-1.34,0.172-0.568,0.101c1.924-0.158-1.219-0.358-0.363-0.151c-2.637-0.639-4.387-3.23-4.498-5.828
			c0.049,1.169,0.396-2.172,0.102-0.9c-0.107,0.466-0.277,0.919-0.436,1.37c-0.588,1.655-1.055,2.867-1.285,4.683
			c0.342-1.262,0.682-2.524,1.023-3.786c1.471-2.177,3.383-3.291,5.738-3.339c-1.088,0.069,2.232,0.408,1.039,0.13
			c-0.295-0.069-0.582-0.18-0.867-0.286c2.252,0.837,1.08,0.45,0.533,0.158c-0.33-0.177-0.643-0.386-0.953-0.595
			c1.824,1.224,0.785,0.622,0.338,0.21c-0.434-0.399-1.137-1.471,0.209,0.391c-0.391-0.543-0.625-1.608,0.137,0.531
			c-0.186-0.762-0.15-0.436,0.104,0.98c-0.068,0.431-0.137,0.862-0.205,1.293c0.201-0.726,0.08-0.489-0.363,0.711
			c0.641-1.343-1.213,1.264-0.012,0.046c0.33-0.333,0.705-0.648,1.059-0.957c-1.572,1.373-0.746,0.589-0.221,0.289
			c1.229-0.703-1.787,0.63-0.494,0.228c1.297-0.403-2.041,0.16-0.723,0.062c0.631-0.046,1.846,0.213-0.773-0.186
			c0.197,0.036,0.391,0.082,0.582,0.138c1.225,0.326-1.824-0.874-0.697-0.306c1.445,0.727-1.359-1.422,0.102,0.081
			c0.871,0.897-1.152-1.632-0.461-0.594c0.326,0.492,0.779,1.649-0.232-0.759c0.111,0.266,0.184,0.546,0.254,0.826
			c0.313,1.228-0.178-2.12-0.133-0.853c0.045,1.265,0.391-2.093,0.143-0.838c-0.121,0.613-0.689,1.571,0.348-0.656
			c-0.246,0.526-1.041,1.438,0.453-0.435c-0.225,0.28-0.494,0.519-0.76,0.756c1.607-1.438,0.75-0.591,0.193-0.266
			c-1.375,0.806,1.699-0.603,0.086,0.003c-1.07,0.402-2.207,0.611-3.332,0.788c3.076,1.746,6.152,3.492,9.227,5.238
			c-0.205-0.671-0.375-1.336-0.52-2.022c0.305,1.445-0.059-1.318-0.064-1.666c-0.014-0.743,0.053-1.484,0.119-2.223
			c-0.133,1.484,0.369-1.155,0.465-1.466c1.197-3.908-1.383-8.166-5.238-9.226C510.877,425.571,506.873,428.011,505.676,431.917
			L505.676,431.917z"/>
	</g>
</g>
<g>
	<g>
		<path fill="#C23D31" d="M868.744,419.003c-0.299,0.34-0.6,0.68-0.91,1.02c-31.27,34.77-79.229,44.48-125.309,50.44
			c-4.951-77.81-55.531-161.81-116.451-226.33c-11.34-12.01-23.879-22.86-36.09-33.97c56.99,58.91,106.641,141.7,113.16,224.93
			c1.09,13.85,0.9,27.23-2.25,40.46c-0.619,0.08-1.24,0.16-1.85,0.24c-56.471,7.58-113.201,11.55-170.189,11.55
			c-9.781,0-19.4-0.09-28.851-0.25c-9.449,0.16-19.069,0.25-28.859,0.25c-56.99,0-113.73-3.97-170.19-11.55
			c-0.61-0.08-1.23-0.16-1.85-0.24c-3.15-13.23-3.34-26.61-2.25-40.46c6.52-83.23,56.17-166.02,113.16-224.93
			c-12.21,11.11-24.75,21.96-36.1,33.97c-60.91,64.52-111.5,148.52-116.44,226.33c-46.08-5.96-94.04-15.67-125.31-50.44
			c-0.31-0.34-0.61-0.68-0.91-1.02c-53.01-59.99-5.92-150.71,39.33-199.23c20.54-22.02,44.83-41.88,72.17-54.82
			c28.29-13.39,66.73-22.37,98.23-19.61c14.64,1.29,34.12-0.08,46.52,9.25c-17.17-12.93-48.32-24.66-74.74-29.91
			c42.47-21.87,88.53-36.79,136.03-40.93c33.628-2.931,68.768-2.932,102.41,0c47.5,4.14,93.561,19.06,136.029,40.93
			c-26.42,5.25-57.58,16.98-74.74,29.91c12.4-9.33,31.881-7.96,46.521-9.25c31.5-2.76,69.939,6.22,98.229,19.61
			c27.33,12.94,51.631,32.8,72.17,54.82C874.664,268.293,921.754,359.014,868.744,419.003z"/>
		<g>
			<path fill="#FFFFFF" d="M862.115,412.375c-30.215,33.861-76.541,43.108-119.59,48.714c3.125,3.125,6.25,6.25,9.375,9.375
				c-3.42-50.766-23.494-98.939-49.52-142.123c-13.811-22.917-29.723-44.56-46.83-65.114
				c-18.041-21.676-38.098-40.765-58.938-59.692c-8.92-8.103-21.691,4.509-13.258,13.258
				c33.135,34.372,61.148,73.657,81.736,116.783c10.113,21.186,17.947,43.461,23.215,66.34c5.408,23.49,8.965,49.376,3.549,73.146
				c3.014-2.294,6.025-4.588,9.039-6.883c-64.836,8.399-129.814,12.493-195.199,11.627c-32.48-0.43-64.859,0.186-97.333-1.431
				c-32.654-1.625-65.235-4.597-97.67-8.686c-3.865-0.487-7.725-1.01-11.587-1.511c3.013,2.294,6.027,4.588,9.04,6.883
				c-5.317-23.332-1.85-48.415,3.183-71.516c5.117-23.484,13.333-46.257,23.58-67.97c20.364-43.151,48.672-82.484,81.736-116.783
				c8.435-8.749-4.337-21.361-13.258-13.258c-20.418,18.546-40.029,37.24-57.833,58.365c-17.61,20.896-33.747,43.087-47.94,66.441
				c-26.145,43.019-46.109,91.47-49.513,142.123c3.125-3.125,6.25-6.25,9.375-9.375c-47.82-6.227-104.084-17.804-129.929-63.437
				c-23.286-41.114-4.309-92.334,18.067-129.365c24.096-39.877,59.669-75.02,101.874-95.238
				c21.546-10.322,45.877-16.516,69.658-18.375c11.783-0.922,23.409,0.145,35.17,0.705c10.521,0.5,21.598,0.98,30.458,7.311
				c4.167,2.976,10.422,0.742,12.827-3.363c2.793-4.769,0.736-9.794-3.363-12.827c-21.964-16.251-50.472-25.479-76.98-30.855
				c0.747,5.711,1.493,11.423,2.24,17.135c26.729-13.694,54.751-24.478,83.922-31.691c30.064-7.435,60.875-9.722,91.765-10.12
				c31.103-0.401,62.529,1.132,93.062,7.34c29.359,5.969,57.855,15.966,84.885,28.823c3.822,1.818,7.605,3.717,11.373,5.647
				c0.746-5.712,1.492-11.424,2.238-17.135c-14.215,2.883-28.123,7.075-41.619,12.382c-12.355,4.858-24.648,10.543-35.359,18.473
				c-4.1,3.034-6.158,8.057-3.363,12.827c2.404,4.105,8.66,6.339,12.826,3.363c9.66-6.902,21.984-6.91,33.395-7.45
				c13.072-0.619,25.742-1.338,38.816,0.039c26.74,2.816,53.42,11.629,76.732,24.938c43.656,24.923,79.195,65.991,100.684,111.175
				C885.092,329.745,892.109,377.91,862.115,412.375c-7.898,9.076,5.307,22.395,13.258,13.258
				c16.355-18.792,25.152-41.542,26.164-66.402c0.992-24.396-5.975-48.442-15.484-70.644
				c-20.002-46.703-55.551-87.766-97.309-116.335c-26.797-18.335-58.143-29.795-90.188-34.546
				c-15.666-2.323-30.748-2.1-46.488-1.286c-15.031,0.777-31.551,0.969-44.305,10.08c3.154,5.397,6.309,10.793,9.463,16.19
				c20.824-15.418,47.377-23.87,72.5-28.965c7.861-1.594,9.271-13.532,2.24-17.135c-27.053-13.859-55.447-25.102-84.896-32.705
				c-30.242-7.807-61.334-10.725-92.486-11.528c-31.735-0.818-63.837,0.533-95.168,5.856c-29.985,5.094-58.961,14.616-86.817,26.697
				c-8.32,3.609-16.495,7.545-24.565,11.68c-7.032,3.603-5.622,15.541,2.24,17.135c25.126,5.096,51.671,13.553,72.5,28.965
				c3.155-5.397,6.309-10.793,9.464-16.19c-10.67-7.623-24.229-8.986-36.941-9.718c-12.736-0.733-25.394-1.736-38.15-0.857
				c-27.885,1.921-55.497,9.617-80.666,21.675c-46.924,22.479-86.012,63.856-111.464,108.753
				c-23.467,41.396-37.646,93.529-14.986,138.29c24.502,48.401,81.3,65.405,130.935,72.918c5.493,0.831,11.001,1.563,16.51,2.28
				c5.313,0.692,9.068-4.802,9.375-9.375c3.223-47.949,23.163-93.515,47.844-134.125c13.374-22.005,28.645-42.821,45.232-62.503
				c17.419-20.669,36.745-38.901,56.718-57.043c-4.419-4.419-8.838-8.838-13.258-13.258
				c-34.959,36.264-64.803,77.971-86.123,123.678c-10.597,22.72-19.03,46.47-24.371,70.979c-5.648,25.923-8.781,53.731-2.828,79.854
				c1.008,4.424,4.979,6.356,9.04,6.883c64.839,8.402,129.821,12.493,195.21,11.627c32.476-0.43,64.851,0.186,97.32-1.431
				c32.654-1.626,65.236-4.598,97.672-8.686c3.865-0.487,7.725-1.01,11.588-1.511c4.063-0.526,8.033-2.458,9.041-6.883
				c5.855-25.698,2.766-52.679-2.482-78.222c-5.16-25.119-14-49.361-24.717-72.611c-21.078-45.729-51.242-87.496-86.123-123.678
				c-4.418,4.419-8.838,8.838-13.258,13.258c19.982,18.151,39.223,36.424,56.711,57.043c16.654,19.637,31.779,40.549,45.234,62.503
				c24.793,40.456,44.627,86.285,47.85,134.125c0.307,4.573,4.061,10.067,9.375,9.375c47.922-6.24,99.15-16.441,132.848-54.206
				C883.395,416.643,870.182,403.335,862.115,412.375z"/>
		</g>
	</g>
	<path fill="#FFF200" d="M229.671,375.856c-4.655-2.782-10.53-3.28-16.069-2.199c-6.105,0.17-12.171,3.576-16.738,7.626
		c-5.326,4.722-7.985,12.219-8.12,19.363c-1.555,6.251-1.164,12.913,2.585,18.356c3.188,4.629,7.545,6.76,12.242,7.223
		c8.943,3.496,18.293-0.139,25.491-6.006C241.763,409.867,245.272,385.178,229.671,375.856z"/>
	<g>
		<path fill="#FFF200" d="M542.93,255.91c-8.67-10.703-27.961-11.117-36.58-0.312c-7.964,9.981-9.777,36.19,6.727,39.481
			c1.33,0.265,2.654,0.357,3.969,0.312c2.676,0.736,5.537,0.955,8.457,0.545c9.668-1.357,18.059-10.586,21.314-19.426
			C549.527,269.149,547.748,261.858,542.93,255.91z"/>
		<path fill="#FFF200" d="M614.617,348.175c-18.734-2.628-31.332,15.461-38.408,30.205c-4.4,9.168-8.063,19.586-6.553,29.878
			c0.18,1.234,0.482,2.4,0.863,3.512c0.408,3.939,1.377,7.779,3.086,11.356c7.084,14.828,25.043,10.938,36.678,4.899
			c16.934-8.788,26.621-26.352,26.65-45.223C636.957,369.098,630.262,350.37,614.617,348.175z"/>
	</g>
	<g>
		<path fill="#FFF200" d="M355.231,402.1c-15.029,7.779-9.713,30.932,2.351,39.237c4.229,4.426,10.146,6.961,16.357,7.652
			c18.944,2.108,29.129-22.295,19.27-36.499C385.23,400.998,367.926,395.529,355.231,402.1z"/>
		<path fill="#FFF200" d="M179.541,346.823c8.532-4.618,11.148-14.976,9.885-23.893c-1.019-7.19-7.066-12.152-13.473-14.503
			c-10.58-3.883-28.633,0.164-31.557,12.63c-1.018,4.339,0.142,8.148,2.343,11.45C149.63,345.833,166.118,354.087,179.541,346.823z"
			/>
		<path fill="#FFF200" d="M450.308,368.486c7.272,7.624,19.501,11.152,29.524,7.587c9.786-3.479,15.899-12.298,19.147-21.767
			c6.687-19.505-3.119-40.061-19.68-50.916c-7.172-4.702-16.625-7.027-24.935-4.258c-9.783,3.26-15.646,12.904-17.862,22.516
			c-1.412,6.122-0.854,12.944,1.215,19.458C439.197,351.469,443.584,361.438,450.308,368.486z"/>
		<path fill="#FFF200" d="M808.309,401.718c-1.807-13.25-18.049-21.545-30.176-18.174c-13.314,3.702-16.695,20.229-12.443,32.509
			c0.371,1.355,0.922,2.627,1.633,3.789c0.832,1.582,1.805,3.048,2.926,4.337c2.461,2.829,5.195,4.301,8.002,4.777
			c7.328,5.768,16.207,1.523,22.102-4.443C806.504,418.285,809.49,410.361,808.309,401.718z"/>
		<path fill="#FFF200" d="M693.701,197.037c-1.305-0.479-2.844-0.541-4.57,0.003c-2.859,0.902-5.58,2.299-8.131,4.067
			c-6.133,3.201-10.941,8.01-13.053,14.236c-3.885,6.258-6.594,13.197-7.752,19.489c-1.426,7.745-0.465,16.67,6.043,21.962
			c6.434,5.233,15.734,6.369,23.432,3.444c14.486-5.503,25.043-21.122,28.395-35.822c1.496-6.559,1.598-14.492-2.553-20.165
			C710.322,197.159,701.955,195.765,693.701,197.037z"/>
		<path fill="#FFF200" d="M810.51,238.993c-1.369-0.66-2.947-0.914-4.615-0.577c-1.393,0.014-2.787,0.202-4.168,0.603
			c-8.293,2.405-11.686,10.995-12.658,18.747c-0.348,2.765-0.162,5.587,0.508,8.271c-0.629,9.635,3.9,18.218,13.459,21.504
			c8.994,3.092,17.85-3.191,22.844-10.075c5.586-7.699,5.582-18.679,0.469-26.535C822.895,245.626,816.967,240.65,810.51,238.993z"
			/>
		<path fill="#FFF200" d="M291.422,259.446c-0.696-3.1-2.81-5.995-4.989-8.211c-1.872-1.902-4.732-2.634-7.298-1.929
			c-1.799,0.495-3.288,1.667-4.269,3.177c-2.671,1.735-4.314,5.176-3.243,8.321c0.989,2.903,2.385,6.34,4.841,8.361
			c0.534,0.44,1.377,1.196,2.129,1.552c1.86,0.88,2.201,0.944,4.256,1.163c2.38,0.254,4.479-1.039,6.223-2.455
			c1.124-0.913,2.137-2.914,2.436-4.288C291.944,263.128,291.875,261.461,291.422,259.446z"/>
		<path fill="#FFF200" d="M763.582,327.236c-0.695-3.1-2.809-5.995-4.988-8.211c-1.873-1.902-4.732-2.634-7.299-1.929
			c-1.799,0.495-3.287,1.667-4.268,3.177c-2.672,1.735-4.314,5.176-3.244,8.321c0.99,2.903,2.385,6.34,4.842,8.361
			c0.533,0.44,1.377,1.196,2.129,1.552c1.859,0.88,2.201,0.944,4.256,1.163c2.379,0.254,4.479-1.039,6.223-2.455
			c1.123-0.913,2.137-2.914,2.436-4.288C764.104,330.918,764.035,329.251,763.582,327.236z"/>
		<path fill="#FFF200" d="M455.201,93.521c-2.645-1.007-9.829-0.748-17.138-0.087c-6.277,0.567-15.586,2.541-23.76,5.006
			c-5.73,1.728-10.376,3.547-13.339,5.121c-8.379,3.075-13.228,6.176-9.369,6.898c3.564,0.667,8.505,1.272,16.679,0.287
			c1.778-0.215,4.591-0.521,7.06-0.957c6.108-1.078,7.214-1.326,13.862-2.9c7.699-1.823,14.292-4.204,19.728-6.356
			c3.503-1.387,6.506-3.238,7.29-4.183C457.359,94.968,456.919,94.176,455.201,93.521z"/>
		<path fill="#FFF200" d="M510.977,431.806c-0.695-3.1-2.809-5.995-4.988-8.211c-1.873-1.902-4.732-2.634-7.298-1.929
			c-1.799,0.495-3.287,1.667-4.268,3.177c-2.672,1.735-4.314,5.176-3.244,8.321c0.99,2.903,2.385,6.34,4.842,8.361
			c0.533,0.44,1.377,1.196,2.129,1.552c1.859,0.88,2.201,0.944,4.255,1.163c2.379,0.254,4.479-1.039,6.223-2.455
			c1.123-0.913,2.137-2.914,2.436-4.288C511.498,435.488,511.43,433.821,510.977,431.806z"/>
		<path fill="#FFF200" d="M753.328,184.128c-0.695-3.1-2.809-5.995-4.988-8.211c-1.873-1.902-4.732-2.634-7.299-1.929
			c-1.799,0.495-3.287,1.667-4.268,3.177c-2.672,1.735-4.314,5.176-3.244,8.321c0.99,2.903,2.385,6.34,4.842,8.361
			c0.533,0.44,1.377,1.196,2.129,1.552c1.859,0.88,2.201,0.944,4.256,1.163c2.379,0.254,4.479-1.039,6.223-2.455
			c1.123-0.913,2.137-2.914,2.436-4.288C753.85,187.811,753.781,186.143,753.328,184.128z"/>
		<path fill="#FFF200" d="M348.431,174.376c-0.03-0.072-0.055-0.146-0.086-0.218c-3.102-7.146-10.894-10.704-18.183-11.415
			c-20.479-1.998-29.095,21.453-26.328,37.97c1.122,6.697,5.528,12.9,11.398,16.221c7.218,4.084,16.193,2.377,23.301-0.984
			c13.51-6.393,12.882-24.408,11.937-36.841C350.318,177.118,349.546,175.544,348.431,174.376z"/>
		<path fill="#FFF200" d="M577.117,119.83c1.91,0.943,4.072,1.842,6.49,2.657c7.359,2.482,15.553,3.458,22.063,3.208
			c6.863,0.653,13.436,0.537,15.619-1.474c3.229-2.969-2.492-6.82-10.148-10.316c-2.707-1.578-6.078-3.099-9.844-4.407
			c-10.439-3.626-21.232-4.366-28.947-3.427c-4.818,0.586-8.574,1.672-9.357,3.882c-0.76,2.145,2.854,5.203,8.156,7.584
			C573.002,118.369,575.012,119.13,577.117,119.83z"/>
	</g>
	<path fill="#FFF200" d="M602.133,134.907v51.57l-0.721,0.109c-0.15,22.541-45.449,40.791-101.33,40.791
		c-55.959,0-101.33-18.311-101.33-40.9v-51.57l27.05,23.75l0.28,0.25l0.1-0.41l9.98-42.561l28.587,30.305l15.666-38.574
		l20.026,31.907l22.308-30.333l14.666,37l27.307-30.305l10.051,42.9l0.02,0.07l0.049-0.04L602.133,134.907z"/>
</g>
<path fill="none" d="M500.235,696.771c-0.391,0-0.781-0.01-1.18-0.02"/>
<path fill="none" d="M501.404,696.752c-0.391,0.01-0.781,0.02-1.169,0.02"/>
<path fill="none" stroke="#EC2227" stroke-miterlimit="10" d="M358.645,592.952c-0.13-0.2-0.189-0.36-0.189-0.49"/>
<g>
	<g>
		<path fill="#61C3A8" d="M722.609,668.834c-21.959,22.011-75.68-4.439-91.811,22.03c-23.619,38.75-78.979,74.84-128.398,75.96
			c-0.391,0.011-0.781,0.021-1.17,0.021c-0.39,0-0.781-0.01-1.181-0.021c-49.419-1.12-104.779-37.21-128.399-75.96
			c-16.13-26.47-69.85-0.02-91.81-22.03c-12.44-12.47-10.69-43.789-6.47-59.319c5.48-20.16,10.75-29.4,23.75-45.15
			c7.47-9.05,15.71-19.55,25.27-26.17c-6.79-21.31-12.94-54.16-11.36-77.46c18.48,0.47,43.59,2.63,61.4,7.68
			c20.07,5.68,30.55,13.1,49.02,11.62c46.24-3.7,62.97-3.1,79.749-3.01h0.051c16.779-0.09,33.51-0.69,79.75,3.01
			c18.471,1.48,28.949-5.94,49.02-11.62c17.811-5.05,42.92-7.21,61.4-7.68c1.58,23.3-4.57,56.15-11.359,77.46
			c9.559,6.62,17.799,17.12,25.27,26.17c13,15.75,18.27,24.99,23.75,45.15C733.299,625.045,735.049,656.364,722.609,668.834z"/>
		<g>
			<path fill="#FFFFFF" d="M706.699,652.924c-1.242,1.196-4.307,3.487,1.445-0.861c-0.811,0.612-1.688,1.131-2.559,1.647
				c-0.879,0.521-1.809,0.949-2.732,1.377c6.551-3.032,3.186-1.369,1.482-0.813c-2.049,0.668-4.174,1.095-6.291,1.472
				c-4.32,0.768,5.957-0.691,1.537-0.219c-1.529,0.164-3.066,0.25-4.602,0.332c-10.004,0.534-20.039-0.344-30.047-0.352
				c-12.447-0.011-24.158,1.87-35.494,7.037c-11.947,5.444-17.57,17.213-25.035,27.137c4.219-5.607-1.703,1.897-2.828,3.188
				c-1.934,2.222-3.965,4.356-6.021,6.464c-4.607,4.722-9.559,9.1-14.668,13.267c-0.896,0.73-5.182,3.991-0.352,0.313
				c-1.244,0.948-2.514,1.865-3.783,2.783c-2.553,1.846-5.174,3.596-7.814,5.313c-5.752,3.739-11.744,7.097-17.867,10.186
				c-2.816,1.422-5.689,2.732-8.578,4.003c5.65-2.485,0.678-0.312-0.426,0.127c-1.451,0.576-2.918,1.11-4.385,1.646
				c-6.262,2.28-12.688,4.077-19.195,5.499c-1.473,0.322-2.957,0.594-4.439,0.865c-1.344,0.246-6.621,0.995,0.072,0.098
				c-2.922,0.392-5.863,0.621-8.805,0.788c-2.732,0.154-5.447,0.117-8.179,0c-1.465-0.063-2.93-0.186-4.391-0.308
				c-1.469-0.122-8.393-1.117-1.385-0.091c-6.007-0.88-11.926-2.3-17.757-3.974c-2.978-0.854-5.914-1.847-8.834-2.878
				c-1.472-0.521-2.929-1.083-4.385-1.646c-0.973-0.381-1.942-0.771-2.908-1.169c2.959,1.259,3.306,1.395,1.041,0.408
				c-12.049-5.3-23.432-12.082-34.089-19.786c-0.93-0.673-5.246-3.974-0.432-0.245c-1.226-0.95-2.429-1.93-3.63-2.91
				c-2.378-1.939-4.682-3.967-6.957-6.024c-4.778-4.321-9.258-8.966-13.488-13.822c-0.944-1.084-1.855-2.195-2.767-3.307
				c-3.215-3.921,3.067,4.104,0.05,0.093c-1.653-2.197-3.199-4.473-4.699-6.776c-4.475-6.866-8.915-11.822-15.395-16.803
				c-9.213-7.081-22.639-8.731-33.804-9.338c-9.959-0.542-19.955,0.349-29.918,0.354c-2.362,0.001-4.722-0.076-7.08-0.201
				c-1.148-0.062-2.293-0.165-3.438-0.271c-4.429-0.407,5.872,0.904,1.537,0.219c-2.131-0.338-4.225-0.858-6.292-1.472
				c-1.611-0.479-5.388-2.107,1.483,0.813c-1.252-0.532-2.438-1.202-3.606-1.895c-1.497-0.889-4.276-3.416,1.27,1.128
				c-0.8-0.655-1.516-1.402-2.226-2.151c-2.844-3.001,3.261,4.673,0.973,1.131c-0.606-0.938-1.098-1.948-1.591-2.948
				c3.4,6.891,0.09-0.359-0.472-2.512c-0.319-1.225-0.554-2.47-0.792-3.712c-0.392-2.399-0.318-1.688,0.221,2.133
				c-0.108-0.872-0.201-1.746-0.28-2.621c-0.435-4.417-0.427-8.874-0.252-13.304c0.085-2.151,0.27-4.299,0.479-6.441
				c0.085-0.826,0.18-1.651,0.283-2.475c-0.876,7.289-0.372,2.882-0.104,1.273c0.681-4.081,1.775-8.054,2.938-12.02
				c0.709-2.42,1.505-4.813,2.339-7.191c0.46-1.314,0.97-2.61,1.481-3.905c-2.455,6.214-0.758,1.841-0.144,0.521
				c1.828-3.932,4.063-7.657,6.457-11.266c1.292-1.948,2.684-3.828,4.085-5.698c-4.042,5.394,1.449-1.732,2.375-2.859
				c3.521-4.289,7.037-8.583,10.715-12.739c1.863-2.105,3.815-4.126,5.812-6.105c1.177-1.166,2.414-2.266,3.655-3.361
				c4.174-3.686-3.916,2.735,0.533-0.446c8.071-5.771,13.562-15.173,10.34-25.409c-3.825-12.154-6.617-24.605-8.689-37.173
				c-0.267-1.621-0.505-3.246-0.743-4.871c0.919,6.288,0.105,0.691-0.039-0.508c-0.382-3.191-0.665-6.393-0.905-9.597
				c-0.482-6.431-0.573-12.892-0.181-19.33c-7.5,7.5-15,15-22.5,22.5c6.187,0.17,12.364,0.491,18.536,0.949
				c3.311,0.246,6.617,0.56,9.919,0.9c1.665,0.172,3.327,0.37,4.989,0.568c2.552,0.325,2.211,0.274-1.023-0.153
				c1.091,0.153,2.181,0.314,3.27,0.481c13.381,2.016,25.967,5.926,38.663,10.506c13.76,4.963,27.278,6.717,41.851,5.596
				c12.462-0.959,24.94-1.75,37.43-2.231c31.033-1.195,62.454-0.876,93.437,1.037c11.604,0.716,23.584,2.789,35.172,1.306
				c12.088-1.546,22.754-5.485,34.205-9.418c5.154-1.771,10.391-3.256,15.703-4.467c2.561-0.583,5.143-1.066,7.725-1.533
				c1.604-0.29,3.213-0.542,4.822-0.796c1.16-0.183,6.824-0.939,0.588-0.121c11.635-1.526,23.377-2.301,35.104-2.624
				c-7.5-7.5-15-15-22.5-22.5c0.359,5.923,0.268,11.836-0.076,17.759c-0.186,3.191-0.492,6.375-0.828,9.554
				c-0.172,1.621-0.377,3.238-0.58,4.855c0.838-6.633-0.18,0.854-0.383,2.138c-1.994,12.565-4.869,25.036-8.689,37.173
				c-3.221,10.236,2.27,19.639,10.34,25.409c4.467,3.194-3.738-3.156,0.533,0.446c1.266,1.066,2.461,2.218,3.656,3.361
				c2.438,2.333,4.701,4.85,6.936,7.375c4.725,5.338,9.232,10.909,13.65,16.502c-4.1-5.189,1.479,2.173,2.4,3.525
				c1.717,2.515,3.264,5.137,4.719,7.81c0.854,1.573,4.404,9.763,1.596,2.936c1.287,3.131,2.348,6.352,3.359,9.579
				c1.514,4.825,2.758,9.692,3.588,14.68c0.752,4.5-0.705-5.848-0.145-1.188c0.15,1.259,0.26,2.522,0.367,3.785
				c0.264,3.063,0.35,6.14,0.357,9.213c0.006,2.669-0.145,5.334-0.363,7.993c-0.129,1.564-0.916,6.312,0.156-0.781
				c-0.254,1.677-0.619,3.332-1.008,4.981c-0.48,2.032-3.705,9.668-0.473,2.512c-0.461,1.02-1.023,1.986-1.592,2.948
				C704.521,656.558,710.543,648.868,706.699,652.924c-8.43,8.896-8.842,22.978,0,31.82c8.494,8.494,23.385,8.901,31.82,0
				c20.809-21.958,18.809-59.002,10.887-86.033c-4.203-14.342-10.594-27.605-19.658-39.471
				c-11.355-14.865-23.004-29.514-38.332-40.475c3.447,8.471,6.895,16.94,10.34,25.41c3.99-12.676,6.865-25.677,8.947-38.795
				c2.334-14.712,4.125-29.73,3.217-44.646c-0.729-11.971-9.684-22.853-22.5-22.5c-28.393,0.782-56.68,4.123-83.475,13.831
				c-5.422,1.964-10.838,3.896-16.469,5.18c-1.418,0.324-6.389,0.996,0.365,0.131c-1.475,0.189-2.963,0.256-4.447,0.323
				c-4.061,0.183-8.137-0.306-12.18-0.618c-12.463-0.959-24.939-1.75-37.43-2.231c-31.033-1.195-62.454-0.876-93.437,1.037
				c-5.708,0.353-11.412,0.763-17.114,1.195c-3.019,0.229-6.033,0.508-9.059,0.626c-1.544,0.061-3.09-0.007-4.632-0.077
				c-1.48-0.066-6.55-0.896,0.202,0.148c-10.373-1.603-20.165-6.251-30.085-9.477c-23.108-7.514-48.462-9.402-72.63-10.068
				c-12.817-0.353-21.771,10.529-22.5,22.5c-0.91,14.949,0.967,29.893,3.217,44.646c2,13.115,4.963,26.139,8.946,38.795
				c3.447-8.47,6.894-16.939,10.34-25.41c-12.619,9.023-22.215,20.301-31.92,32.257c-9.384,11.56-16.591,22.841-22.249,36.592
				c-9.277,22.548-12.188,49.668-6,73.388c3.511,13.458,11.883,25.328,24.18,32.052c10.984,6.007,23.622,7.638,35.958,7.919
				c10.006,0.229,20.004-0.646,30.012-0.416c2.256,0.052,4.508,0.203,6.754,0.416c4.335,0.41-5.935-0.916-1.708-0.221
				c1.028,0.169,2.044,0.4,3.059,0.636c2.165,0.501,8.688,3.434,1.18,0.012c0.873,0.398,1.7,0.885,2.523,1.374
				c4.595,2.727-3.451-3.049-0.788-0.617c1.246,1.138,3.555,4.221-0.942-1.623c0.683,0.888,1.247,1.876,1.834,2.826
				c1.437,2.326,3,4.571,4.595,6.791c4.461,6.207,9.294,12.175,14.479,17.792c9.596,10.396,20.758,19.343,32.266,27.519
				c22.031,15.651,48.361,27.502,75.132,31.752c15.48,2.458,29.663,2.222,45.132-0.234c14.191-2.253,27.533-7.287,40.676-12.926
				c24.82-10.65,47.947-27.368,66.242-47.189c5.162-5.595,9.852-11.662,14.291-17.839c1.787-2.487,3.393-5.088,5.041-7.667
				c2.178-3.408-3.727,4.393-1.045,1.478c3.617-3.932-3.801,2.498-0.904,0.455c0.779-0.55,1.623-1.006,2.459-1.461
				c3.494-1.901-5.576,2.143-1.811,0.713c2.227-0.846,4.574-1.357,6.91-1.79c4.211-0.78-6.035,0.697-1.707,0.221
				c1.482-0.163,2.973-0.248,4.463-0.329c2.715-0.147,5.439-0.147,8.156-0.128c24.861,0.177,51.693,3.023,71.219-15.771
				c8.834-8.504,8.545-23.275,0-31.82C729.729,644.132,715.529,644.424,706.699,652.924z"/>
		</g>
	</g>
	<path fill="#61C3A8" d="M729.08,609.515c-5.48-20.16-10.75-29.4-23.75-45.15c-7.471-9.05-15.711-19.55-25.27-26.17
		c6.789-21.31,12.939-54.16,11.359-77.46c-18.48,0.47-43.59,2.63-61.4,7.68c-20.07,5.68-30.549,13.1-49.02,11.62
		c-46.24-3.7-62.971-3.1-79.75-3.01h-0.051c-16.779-0.09-33.509-0.69-79.749,3.01c-18.47,1.48-28.95-5.94-49.02-11.62
		c-17.81-5.05-42.92-7.21-61.4-7.68c-1.58,23.3,4.57,56.15,11.36,77.46c-9.56,6.62-17.8,17.12-25.27,26.17
		c-13,15.75-18.27,24.99-23.75,45.15c-4.22,15.53-5.97,46.85,6.47,59.319c21.96,22.011,75.68-4.439,91.81,22.03
		c23.62,38.75,78.98,74.84,128.399,75.96c0.4,0.01,0.791,0.021,1.181,0.021c0.389,0,0.779-0.011,1.17-0.021
		c49.42-1.12,104.779-37.21,128.398-75.96c16.131-26.47,69.852-0.02,91.811-22.03C735.049,656.364,733.299,625.045,729.08,609.515z
		 M352.56,588.414c3.78-13.08,14.44-23.529,28.31-26.58l35.93,11.091c5.29,5.62,8.92,12.899,9.98,21.159
		c0.81,6.25,0.05,12.341-1.98,17.881l-6.38-2.08c-4.24,11.75-15.49,20.149-28.69,20.149c-16.85,0-30.5-13.66-30.5-30.5
		c0-2.97,0.42-5.84,1.22-8.55L352.56,588.414z M623,679.034c-4.461,7.511-46.25,71-121.77,74.95c-69.23,0-116.75-67.81-121.78-74.95
		c-9.03-12.83-18.02-13.069-19.81-16.01c8.74-0.27,17.48-1.02,26.42-0.99c15.11,0.04,28.4,2.16,42.42,8.141
		c8.72,3.72,29.03,21.989,36.55,22.83c6.3,0.689,12.91-0.801,19.26-0.801h33.87c6.35,0,12.959,1.49,19.26,0.801
		c7.52-0.841,27.83-19.11,36.551-22.83c14.02-5.98,27.309-8.101,42.42-8.141c8.939-0.029,17.68,0.721,26.42,0.99
		C641.02,665.965,628.5,669.784,623,679.034z M643.221,599.534c0,16.84-13.65,30.5-30.5,30.5c-13.211,0-24.451-8.399-28.701-20.149
		l-6.369,2.08c-2.031-5.54-2.791-11.631-1.99-17.881c1.07-8.26,4.689-15.539,9.99-21.159l35.93-11.091
		c13.869,3.051,24.529,13.5,28.299,26.58l-7.879,2.57C642.799,593.694,643.221,596.564,643.221,599.534z"/>
	<path fill="#FFFFFF" stroke="#EC2227" stroke-miterlimit="10" d="M643.223,599.537c0,16.84-13.65,30.5-30.5,30.5
		c-13.211,0-24.451-8.4-28.701-20.15c-1.16-3.229-1.799-6.72-1.799-10.35c0-16.84,13.66-30.5,30.5-30.5
		c13.879,0,25.588,9.27,29.279,21.95C642.803,593.697,643.223,596.567,643.223,599.537z"/>
	<circle fill="#DF4242" cx="614.391" cy="599.537" r="15.5"/>
	<path fill="#61C3A8" d="M650.268,586.989l-7.881,2.57l-12.75,4.159l-29.459,9.601l-15.771,5.14l-6.371,2.08
		c-2.027-5.54-2.789-11.63-1.988-17.88c1.068-8.26,4.689-15.54,9.988-21.16l35.932-11.09
		C635.838,563.459,646.496,573.909,650.268,586.989z"/>
	<path fill="#DF4242" d="M683.332,477.101c-2.631,20.54-5.83,41.84-11.211,62.92c-10-9.02-26.238-24.08-38.449-29.25l25.6-19.5
		C664.172,487.761,677.732,477.44,683.332,477.101z"/>
	<path fill="#DF4242" d="M642.813,663.027c-1.791,2.938-14.311,6.76-19.811,16.01c-4.461,7.51-46.25,71-121.77,74.95
		c-69.229,0-116.75-67.812-121.779-74.95c-9.03-12.83-18.021-13.07-19.811-16.01c8.74-0.271,17.48-1.021,26.42-0.99
		c15.11,0.04,28.4,2.16,42.42,8.14c8.72,3.722,29.03,21.99,36.55,22.83c6.3,0.69,12.91-0.8,19.26-0.8h33.87
		c6.35,0,12.959,1.49,19.26,0.8c7.52-0.84,27.83-19.108,36.551-22.83c14.02-5.979,27.309-8.1,42.418-8.14
		C625.332,662.007,634.072,662.757,642.813,663.027z"/>
	<path fill="#FFFFFF" stroke="#EC2227" stroke-miterlimit="10" d="M420.232,599.537c0,3.64-0.64,7.12-1.81,10.35
		c-4.24,11.75-15.49,20.15-28.69,20.15c-16.85,0-30.5-13.66-30.5-30.5c0-2.97,0.42-5.84,1.221-8.55
		c3.689-12.681,15.399-21.95,29.279-21.95C406.572,569.037,420.232,582.697,420.232,599.537z"/>
	<circle fill="#DF4242" cx="388.063" cy="599.537" r="15.5"/>
	<path fill="#61C3A8" d="M424.803,611.467l-6.38-2.08l-15.76-5.14l-29.46-9.6l-12.75-4.16l-7.891-2.57
		c3.78-13.08,14.44-23.53,28.311-26.58l35.93,11.09c5.29,5.62,8.92,12.9,9.979,21.16
		C427.593,599.837,426.832,605.927,424.803,611.467z"/>
	<path fill="#DF4242" d="M368.782,510.771c-12.21,5.17-28.46,20.23-38.46,29.25c-5.369-21.08-8.569-42.38-11.21-62.92
		c5.61,0.34,19.17,10.66,24.07,14.17L368.782,510.771z"/>
</g>
</svg>
