<?xml version="1.0" encoding="utf-8"?>
<!-- Generator: Adobe Illustrator 16.0.0, SVG Export Plug-In . SVG Version: 6.00 Build 0)  -->
<!DOCTYPE svg PUBLIC "-//W3C//DTD SVG 1.1//EN" "http://www.w3.org/Graphics/SVG/1.1/DTD/svg11.dtd">
<svg version="1.1" id="Layer_1" xmlns="http://www.w3.org/2000/svg" xmlns:xlink="http://www.w3.org/1999/xlink" x="0px" y="0px"
	 width="1000px" height="1000px" viewBox="0 0 1000 1000" enable-background="new 0 0 1000 1000" xml:space="preserve">
<path fill="#61C3A8" d="M843.08,552.03c-0.011,0.17-0.021,0.33-0.041,0.5c0,0.05,0,0.108-0.01,0.16c0,0.118-0.011,0.22-0.029,0.34
	c-0.11-0.33-0.221-0.67-0.341-1H843.08z"/>
<path fill="#61C3A8" d="M843,553.04c0,0,0,0,0-0.01c-0.11-0.33-0.221-0.67-0.341-1H724.21c3.699,4.56,7.29,9.21,10.529,14.09
	c8.91,13.438,15.591,30.01,17.771,46.05c2.45,18.021,3.229,37.53-3.641,54.78c-7.71,19.33-24.521,34.67-42.55,44.608
	c-8.351,4.602-17.59,7.922-25.45,13.381c-0.779,0.699-1.569,1.409-2.289,2.181c-0.33,0.35-0.66,0.7-0.98,1.06
	c-0.01,0-0.01,0.012-0.01,0.021c-0.229,0.318-0.439,0.63-0.59,0.87c-2.181,3.56-3.841,7.398-6.021,10.96
	c-9.79,16-24.091,29.21-41.021,37.358c-22.801,10.972-47.181,15.63-72.17,18.41c-28.87,3.2-57.98,3.28-86.99,2.431
	c-44.08-1.431-96.5-9.301-127.49-44.329c-3.93-4.432-7.66-9.142-10.86-14.142c-2.109-3.31-3.8-6.91-5.97-10.2c0,0,0,0-0.01-0.01
	s-0.021-0.03-0.03-0.05c-0.439-0.54-0.899-1.1-1.21-1.42c-0.78-0.8-1.56-1.61-2.4-2.35c-0.18-0.16-0.39-0.33-0.619-0.521
	c-0.011,0-0.011,0-0.011,0c-0.29-0.2-0.579-0.39-0.87-0.58c-3.72-2.37-7.64-4.39-11.6-6.33c-23.89-11.7-49.21-29.068-56.93-56.02
	c-6.88-24.051-4.54-51.65,4.93-74.67c5.49-13.352,12.45-24.37,21.44-35.58H159.26c-17.32,49.93-22.16,102.738-8.11,154.199
	c12.761,46.729,41.5,77.619,74.65,110.609c19.62,19.521,39.45,38.97,60.92,56.46c11.13,9.07,23.09,18.76,36.71,23.69
	c9.479,3.43,17.439,2.949,26.859-0.69c17.69-7.479,34.73-14.51,54.311-13.68c-0.141,0.01-0.24,0.01-0.32,0.02
	c15.53,1.15,24.98-6.72,30.43-18.438c9.181-19.721,6.99-50.34,3.33-67.12c12.9,21.51,18.271,47.97,12.851,69.899
	c16.41,2.409,33.189,3.659,50.27,3.659c16.721,0,33.17-1.198,49.25-3.51c-5.42-23.64,1.189-49.6,13.47-70.05
	c-3.67,16.8-5.859,47.479,3.36,67.2c5.45,11.68,14.899,19.52,30.41,18.358c-0.08,0-0.181-0.01-0.33-0.02
	c18.46-0.79,34.68,5.38,51.41,12.46c9.648,4.08,18.47,6.02,28.5,2.36c36.688-12.5,68.858-51.052,95.289-77.052
	c34-33.38,62.989-64.18,77.421-111.12C864.26,656.82,860.53,604.13,843,553.04z M706.63,651.97c0.3-0.72,0.59-1.479,0.63-1.63
	C707.199,650.46,707.01,650.93,706.63,651.97z M400.25,740.15c-0.15-0.07-0.25-0.11-0.32-0.142
	C400,740.05,400.11,740.1,400.25,740.15z"/>
<path fill="#61C3A8" d="M843.03,552.69c0,0.118-0.011,0.22-0.029,0.34c-0.11-0.33-0.221-0.67-0.341-1
	C842.78,552.25,842.909,552.47,843.03,552.69z"/>
<path fill="#61C3A8" d="M843.039,552.53c0,0.05,0,0.108-0.01,0.16c0,0.118-0.011,0.22-0.029,0.34c-0.11-0.33-0.221-0.67-0.341-1
	C842.789,552.2,842.92,552.36,843.039,552.53z"/>
<path fill="#006838" d="M292.89,396.12c-5.36,24.58-8.45,50.87-3.68,75.8c0.24,10.66,1.58,21.311,3.17,31.86H159.26
	c1.17-16.8,3.54-33.271,7.05-49.311c23.41,11.17,49.91,17.261,74.65,21.011c5.5,0.829,11.01,1.56,16.52,2.279
	c5.311,0.69,9.061-4.8,9.37-9.37c2.99-44.51,20.38-86.959,42.6-125.3C302.49,360.28,296.84,377.99,292.89,396.12z"/>
<path fill="#006838" d="M831.08,434.69c-24.221,13.329-52.58,19.26-80.131,23.17c-5.279-46.9-24.351-91.41-48.569-131.601
	c-13.811-22.91-29.721-44.56-46.83-65.11c-18.04-21.68-38.101-40.77-58.939-59.69c-8.92-8.1-21.689,4.51-13.25,13.26
	c33.13,34.37,61.14,73.65,81.729,116.78c10.119,21.19,17.949,43.46,23.22,66.34c3,13.02,5.421,26.78,6.07,40.51
	c-0.96-0.109-1.95-0.149-2.96-0.119c-28.391,0.789-56.681,4.13-83.471,13.84c-5.431,1.96-10.84,3.89-16.47,5.18
	c-0.41,0.1-1.141,0.22-1.78,0.32c-0.76,0.06-1.529,0.09-2.3,0.13c-4.061,0.18-8.12-0.3-12.16-0.62
	c-11.891-0.92-23.79-1.73-35.71-2.24c-26.87-1.149-54.16-0.79-81.021,0.4c-13.16,0.59-26.3,1.96-39.471,2.47
	c-1.76,0.07-3.52,0-5.27-0.13c2.38,0.13-4.41-0.92-6-1.35c-5.73-1.551-11.271-3.78-16.84-5.761c-2.63-0.939-5.28-1.8-7.96-2.6
	c-7.99-2.4-16.16-4.22-24.431-5.59h-0.01c-15.42-2.58-31.16-3.62-46.63-4.05c-2.21-0.061-4.31,0.21-6.26,0.77
	c0.6-13.36,2.899-26.75,5.689-39.53c5.12-23.49,13.33-46.26,23.58-67.97c20.36-43.15,48.67-82.49,81.73-116.78
	c8.439-8.75-4.33-21.36-13.25-13.26c-20.42,18.54-40.03,37.24-57.84,58.36c-17.61,20.9-33.74,43.09-47.94,66.44
	c-24.319,40.03-43.3,84.76-48.56,131.601c-26.29-3.75-54.38-9.54-78.15-21.92c40.19-144.63,172.84-250.78,330.28-250.78
	C658.17,185.16,790.49,290.7,831.08,434.69z"/>
<path fill="#006838" d="M710.949,503.78c2.221-14.2,3.851-28.67,2.971-43.05c-0.12-2.03-0.479-4.03-1.061-5.94
	c1.09-19.08-1.591-38.44-5.41-57.04c-3.859-18.8-9.79-37.12-17.01-54.89c22.35,38.3,39.72,81.05,42.71,125.53
	c0.311,4.57,4.061,10.061,9.38,9.37c31.649-4.12,64.739-9.97,93.26-24.35c3.641,16.38,6.101,33.2,7.291,50.37H710.949
	L710.949,503.78z"/>
<g>
	<g>
		<path fill="#FFF200" d="M505.676,431.917c-1.498,4.894-1.498,10.458,0,15.351c1.299,4.24,5.096,5.89,9.227,5.238
			c4.883-0.769,9.887-3.234,12.322-7.74c2.195-4.06,2.031-9.237-0.539-13.104c-2.576-3.873-6.82-6.398-11.543-6.319
			c-5.016,0.084-10.559,3.562-12.734,8.125c-2.946,6.182-0.166,12.061,5.027,15.819c3.77,2.728,10.428,4.587,14.035,0.5
			c0.477-0.541,1.012-1.063,1.307-1.727c0.252-0.597,0.504-1.193,0.756-1.792c0.271-2.459,0.338-2.659,0.203-0.603
			c0.326-0.814,0.65-1.627,0.943-2.454c0.75-2.115,1.01-4.54,0.373-6.717c-2.217-7.563-10.433-6.729-16.41-5.271
			c-2.518,0.613-4.562,2.775-5.238,5.238c-0.969,3.522,0.709,6.427,3.447,8.47c2.938,2.194,5.758,3.942,9.467,4.434
			c3.457,0.458,6.164-2.671,7.232-5.506c2.178-5.782-2.396-10.829-7.513-12.635c-3.856-1.36-8.198,1.508-9.227,5.238
			c-1.141,4.152,1.387,7.867,5.238,9.227c-0.668-0.236-2.062-0.97-0.849-0.321c0.627,0.399,0.426,0.235-0.604-0.494
			c-1.211-1.544-1.715-3.211-1.513-5.001c2.41-1.835,4.82-3.671,7.232-5.506c0.959-0.042,1.855,0.17,2.688,0.634
			c-0.255-0.131-0.503-0.27-0.748-0.416c-0.558-0.319-1.091-0.679-1.621-1.034c-0.754-0.501-1.49-1.028-2.215-1.569
			c-0.599,4.568-1.195,9.139-1.791,13.708c0.686-0.167,1.372-0.327,2.063-0.475c0.383-0.079,0.769-0.149,1.154-0.213
			c-1.15,0.138-1.34,0.172-0.568,0.102c1.924-0.158-1.219-0.358-0.363-0.151c-2.637-0.639-4.387-3.23-4.497-5.828
			c0.049,1.169,0.396-2.172,0.102-0.9c-0.107,0.467-0.277,0.919-0.437,1.37c-0.588,1.655-1.055,2.867-1.284,4.684
			c0.342-1.263,0.682-2.524,1.022-3.786c1.472-2.177,3.383-3.291,5.738-3.339c-1.088,0.068,2.232,0.407,1.039,0.13
			c-0.295-0.069-0.582-0.181-0.867-0.286c2.252,0.837,1.08,0.45,0.533,0.158c-0.33-0.178-0.644-0.387-0.953-0.596
			c1.824,1.225,0.785,0.622,0.338,0.21c-0.434-0.398-1.137-1.471,0.209,0.392c-0.391-0.543-0.625-1.608,0.137,0.531
			c-0.186-0.763-0.149-0.437,0.104,0.979c-0.068,0.431-0.137,0.862-0.205,1.293c0.201-0.726,0.08-0.489-0.363,0.711
			c0.642-1.343-1.213,1.265-0.012,0.046c0.33-0.333,0.705-0.647,1.059-0.957c-1.571,1.373-0.745,0.589-0.221,0.289
			c1.229-0.703-1.787,0.63-0.494,0.229c1.297-0.403-2.041,0.16-0.723,0.062c0.631-0.046,1.846,0.213-0.773-0.186
			c0.197,0.036,0.392,0.082,0.582,0.138c1.226,0.326-1.823-0.874-0.696-0.306c1.444,0.727-1.359-1.422,0.102,0.081
			c0.871,0.896-1.152-1.632-0.461-0.595c0.326,0.492,0.779,1.649-0.232-0.759c0.111,0.267,0.185,0.546,0.254,0.826
			c0.313,1.229-0.178-2.12-0.133-0.853c0.045,1.265,0.392-2.094,0.144-0.839c-0.121,0.613-0.689,1.571,0.348-0.655
			c-0.246,0.525-1.041,1.438,0.453-0.436c-0.225,0.28-0.494,0.52-0.76,0.756c1.606-1.438,0.75-0.591,0.192-0.266
			c-1.375,0.806,1.699-0.603,0.086,0.003c-1.069,0.402-2.207,0.611-3.332,0.788c3.076,1.746,6.152,3.492,9.228,5.238
			c-0.205-0.671-0.375-1.336-0.521-2.022c0.306,1.445-0.059-1.317-0.063-1.666c-0.015-0.743,0.053-1.483,0.119-2.223
			c-0.134,1.484,0.369-1.155,0.465-1.466c1.197-3.908-1.383-8.166-5.238-9.227C510.877,425.571,506.872,428.011,505.676,431.917
			L505.676,431.917z"/>
	</g>
</g>
<g>
	<g>
		<path fill="#C23D31" d="M862.119,410.3c-9.069,10.16-19.59,18.11-31.039,24.391c-24.221,13.329-52.58,19.26-80.131,23.17
			c-5.279-46.9-24.351-91.41-48.569-131.601c-13.811-22.91-29.721-44.56-46.83-65.11c-18.04-21.68-38.101-40.77-58.939-59.69
			c-8.92-8.1-21.689,4.51-13.25,13.26c33.13,34.37,61.14,73.65,81.729,116.78c10.119,21.19,17.949,43.46,23.22,66.34
			c3,13.02,5.421,26.78,6.07,40.51c-0.96-0.109-1.95-0.149-2.96-0.119c-28.391,0.789-56.681,4.13-83.471,13.84
			c-5.431,1.96-10.84,3.89-16.47,5.18c-0.41,0.1-1.141,0.22-1.78,0.32c-0.76,0.06-1.529,0.09-2.3,0.13
			c-4.061,0.18-8.12-0.3-12.16-0.62c-11.891-0.92-23.79-1.73-35.71-2.24c-26.87-1.149-54.16-0.79-81.021,0.4
			c-13.16,0.59-26.3,1.96-39.471,2.47c-1.76,0.07-3.52,0-5.27-0.13c2.38,0.13-4.41-0.92-6-1.35c-5.73-1.551-11.271-3.78-16.84-5.761
			c-2.63-0.939-5.28-1.8-7.96-2.6c-7.99-2.4-16.16-4.22-24.431-5.59h-0.01c-15.42-2.58-31.16-3.62-46.63-4.05
			c-2.21-0.061-4.31,0.21-6.26,0.77c0.6-13.36,2.899-26.75,5.689-39.53c5.12-23.49,13.33-46.26,23.58-67.97
			c20.36-43.15,48.67-82.49,81.73-116.78c8.439-8.75-4.33-21.36-13.25-13.26c-20.42,18.54-40.03,37.24-57.84,58.36
			c-17.61,20.9-33.74,43.09-47.94,66.44c-24.319,40.03-43.3,84.76-48.56,131.601c-26.29-3.75-54.38-9.54-78.15-21.92
			c-17.68-9.19-32.97-22.03-43.35-40.36c-23.29-41.12-4.311-92.34,18.06-129.37c24.101-39.88,59.67-75.02,101.88-95.24
			c21.54-10.32,45.87-16.51,69.66-18.37c11.78-0.92,23.4,0.14,35.17,0.7c10.521,0.5,20.86,2.16,30.45,7.31
			c10.19,5.47,26.32,14,28.729,9.89c2.79-4.77-15.159-23.04-19.26-26.08c-15.1-11.17-33.3-19.03-51.8-24.59
			c19.7-8.63,40.04-15.65,60.98-20.82c30.06-7.43,60.869-9.72,91.76-10.12c31.109-0.4,62.53,1.13,93.069,7.34
			c25.36,5.16,50.08,13.32,73.761,23.74c-5.689,1.79-11.33,3.8-16.891,5.98c-12.351,4.86-24.649,10.54-35.359,18.47
			c-4.101,3.04-26.511,18.33-23.71,23.1c2.399,4.11,19.069-1.63,33.181-6.91c11.119-4.16,21.979-6.91,33.39-7.45
			c13.07-0.62,25.74-1.34,38.82,0.04c26.739,2.82,53.42,11.63,76.729,24.94c43.659,24.92,79.189,65.99,100.68,111.17
			C885.09,327.67,892.11,375.83,862.119,410.3z"/>
	</g>
	<path fill="#FFF200" d="M229.671,375.856c-4.655-2.782-10.53-3.28-16.069-2.199c-6.104,0.17-12.171,3.576-16.738,7.626
		c-5.325,4.722-7.984,12.219-8.119,19.363c-1.556,6.251-1.164,12.913,2.585,18.356c3.188,4.629,7.545,6.76,12.241,7.223
		c8.943,3.496,18.293-0.139,25.491-6.006C241.763,409.867,245.272,385.178,229.671,375.856z"/>
	<g>
		<path fill="#FFF200" d="M542.93,255.91c-8.67-10.703-27.961-11.117-36.58-0.312c-7.964,9.981-9.777,36.19,6.727,39.481
			c1.33,0.265,2.654,0.357,3.97,0.312c2.676,0.736,5.536,0.955,8.456,0.545c9.669-1.357,18.06-10.586,21.314-19.426
			C549.527,269.149,547.747,261.858,542.93,255.91z"/>
		<path fill="#FFF200" d="M614.616,348.175c-18.733-2.628-31.332,15.461-38.407,30.205c-4.4,9.168-8.063,19.586-6.554,29.878
			c0.181,1.234,0.482,2.4,0.863,3.512c0.408,3.939,1.377,7.779,3.086,11.356c7.084,14.828,25.043,10.938,36.678,4.899
			c16.935-8.789,26.621-26.353,26.65-45.224C636.956,369.098,630.262,350.37,614.616,348.175z"/>
	</g>
	<g>
		<path fill="#FFF200" d="M382.97,447.87c-7.99-2.4-16.16-4.22-24.431-5.59h-0.01c-0.32-0.311-0.64-0.62-0.95-0.94
			c-12.06-8.31-17.38-31.46-2.35-39.24c12.7-6.57,30-1.1,37.979,10.39C401.35,424.22,395.82,442.92,382.97,447.87z"/>
		<path fill="#FFF200" d="M179.541,346.823c8.531-4.618,11.147-14.976,9.885-23.893c-1.02-7.19-7.066-12.152-13.473-14.503
			c-10.58-3.883-28.634,0.164-31.558,12.63c-1.018,4.339,0.143,8.148,2.343,11.45C149.63,345.833,166.118,354.087,179.541,346.823z"
			/>
		<path fill="#FFF200" d="M396.41,359.048c7.272,7.624,19.501,11.152,29.524,7.587c9.786-3.479,15.899-12.298,19.147-21.767
			c6.687-19.505-3.119-40.061-19.681-50.916c-7.172-4.702-16.625-7.027-24.935-4.258c-9.783,3.26-15.646,12.904-17.862,22.516
			c-1.412,6.122-0.854,12.944,1.215,19.458C385.3,342.031,389.688,352,396.41,359.048z"/>
		<path fill="#FFF200" d="M808.309,401.718c-1.807-13.25-18.049-21.545-30.176-18.174c-13.314,3.702-16.695,20.229-12.443,32.509
			c0.371,1.355,0.922,2.627,1.633,3.789c0.832,1.582,1.806,3.048,2.926,4.337c2.462,2.829,5.195,4.302,8.003,4.777
			c7.327,5.768,16.206,1.522,22.102-4.443C806.504,418.285,809.49,410.361,808.309,401.718z"/>
		<path fill="#FFF200" d="M693.7,197.037c-1.305-0.479-2.844-0.541-4.569,0.003c-2.859,0.902-5.58,2.299-8.131,4.067
			c-6.134,3.201-10.941,8.01-13.054,14.236c-3.885,6.258-6.594,13.197-7.752,19.489c-1.426,7.745-0.465,16.67,6.043,21.962
			c6.435,5.233,15.734,6.369,23.433,3.444c14.485-5.503,25.043-21.122,28.395-35.822c1.496-6.559,1.598-14.492-2.553-20.165
			C710.322,197.159,701.954,195.765,693.7,197.037z"/>
		<path fill="#FFF200" d="M810.51,238.993c-1.369-0.66-2.947-0.914-4.615-0.577c-1.393,0.014-2.787,0.202-4.168,0.603
			c-8.293,2.405-11.686,10.995-12.658,18.747c-0.348,2.765-0.162,5.587,0.508,8.271c-0.629,9.635,3.9,18.218,13.459,21.504
			c8.994,3.092,17.851-3.191,22.844-10.075c5.587-7.699,5.582-18.679,0.47-26.535C822.895,245.626,816.967,240.65,810.51,238.993z"
			/>
		<path fill="#FFF200" d="M291.422,259.446c-0.696-3.1-2.811-5.995-4.989-8.211c-1.872-1.902-4.731-2.634-7.298-1.929
			c-1.799,0.495-3.288,1.667-4.27,3.177c-2.671,1.735-4.313,5.176-3.242,8.321c0.988,2.903,2.385,6.34,4.841,8.361
			c0.534,0.44,1.377,1.196,2.129,1.552c1.86,0.88,2.201,0.944,4.256,1.163c2.38,0.254,4.479-1.039,6.223-2.455
			c1.124-0.913,2.138-2.914,2.437-4.288C291.944,263.128,291.875,261.461,291.422,259.446z"/>
		<path fill="#FFF200" d="M763.581,327.236c-0.694-3.1-2.809-5.995-4.987-8.211c-1.873-1.902-4.732-2.634-7.299-1.929
			c-1.8,0.495-3.287,1.667-4.269,3.177c-2.672,1.735-4.313,5.176-3.244,8.321c0.99,2.903,2.386,6.34,4.842,8.361
			c0.533,0.44,1.378,1.196,2.13,1.552c1.858,0.88,2.2,0.944,4.256,1.163c2.379,0.254,4.479-1.039,6.223-2.455
			c1.123-0.913,2.137-2.914,2.436-4.288C764.104,330.918,764.034,329.251,763.581,327.236z"/>
		<path fill="#FFF200" d="M455.2,93.521c-2.645-1.007-9.829-0.748-17.138-0.087c-6.277,0.567-15.586,2.541-23.76,5.006
			c-5.73,1.728-10.376,3.547-13.339,5.121c-8.38,3.075-13.229,6.176-9.369,6.898c3.563,0.667,8.505,1.272,16.679,0.287
			c1.778-0.215,4.591-0.521,7.061-0.957c6.107-1.078,7.214-1.326,13.861-2.9c7.699-1.823,14.292-4.204,19.729-6.356
			c3.503-1.387,6.506-3.238,7.29-4.183C457.359,94.968,456.919,94.176,455.2,93.521z"/>
		<path fill="#FFF200" d="M510.977,431.806c-0.695-3.1-2.809-5.995-4.988-8.211c-1.873-1.901-4.731-2.634-7.298-1.929
			c-1.799,0.495-3.287,1.667-4.268,3.177c-2.673,1.735-4.314,5.176-3.244,8.321c0.989,2.903,2.385,6.34,4.842,8.361
			c0.533,0.439,1.377,1.195,2.129,1.552c1.859,0.88,2.201,0.944,4.255,1.163c2.379,0.254,4.479-1.039,6.224-2.455
			c1.122-0.913,2.137-2.914,2.436-4.288C511.497,435.488,511.43,433.821,510.977,431.806z"/>
		<path fill="#FFF200" d="M753.327,184.128c-0.694-3.1-2.809-5.995-4.987-8.211c-1.873-1.902-4.732-2.634-7.299-1.929
			c-1.8,0.495-3.287,1.667-4.269,3.177c-2.672,1.735-4.313,5.176-3.244,8.321c0.99,2.903,2.385,6.34,4.842,8.361
			c0.533,0.44,1.377,1.196,2.13,1.552c1.858,0.88,2.2,0.944,4.256,1.163c2.379,0.254,4.479-1.039,6.223-2.455
			c1.123-0.913,2.137-2.914,2.436-4.288C753.85,187.811,753.781,186.143,753.327,184.128z"/>
		<path fill="#FFF200" d="M348.431,174.376c-0.03-0.072-0.056-0.146-0.086-0.218c-3.103-7.146-10.895-10.704-18.184-11.415
			c-20.479-1.998-29.095,21.453-26.327,37.97c1.121,6.697,5.527,12.9,11.397,16.221c7.218,4.084,16.193,2.377,23.301-0.984
			c13.511-6.393,12.882-24.408,11.938-36.841C350.318,177.118,349.546,175.544,348.431,174.376z"/>
		<path fill="#FFF200" d="M577.116,119.83c1.91,0.943,4.072,1.842,6.49,2.657c7.359,2.482,15.553,3.458,22.063,3.208
			c6.862,0.653,13.436,0.537,15.618-1.474c3.229-2.969-2.491-6.82-10.147-10.316c-2.707-1.578-6.078-3.099-9.844-4.407
			c-10.439-3.626-21.232-4.366-28.947-3.427c-4.818,0.586-8.574,1.672-9.357,3.882c-0.76,2.145,2.854,5.203,8.156,7.584
			C573.002,118.369,575.012,119.13,577.116,119.83z"/>
	</g>
	<path fill="#FFF200" d="M602.133,134.907v51.57l-0.722,0.109c-0.149,22.541-45.448,40.791-101.33,40.791
		c-55.959,0-101.329-18.311-101.329-40.9v-51.57l27.05,23.75l0.279,0.25l0.101-0.41l9.979-42.561l28.587,30.305l15.666-38.574
		l20.026,31.907l22.308-30.333l14.666,37l27.308-30.305l10.051,42.9l0.021,0.07l0.049-0.04L602.133,134.907z"/>
</g>
<g>
	<path fill="none" d="M500.235,696.771c-0.391,0-0.781-0.011-1.18-0.021"/>
	<path fill="none" d="M501.404,696.752c-0.391,0.01-0.781,0.021-1.169,0.021"/>
	<path fill="none" stroke="#EC2227" stroke-miterlimit="10" d="M358.645,592.952c-0.13-0.2-0.189-0.36-0.189-0.49"/>
	<path fill="#61C3A8" d="M722.61,668.83c-22.939,34.84-54.841,25.26-67.609,53.5c-25.75,56.95-129.08,54.17-150.891,52.939
		c-0.4,0.011-127.01,10.73-155.79-52.939c-12.77-28.24-44.67-18.66-67.609-53.5c-9.69-14.71-10.69-43.79-6.47-59.32
		c5.479-20.16,10.75-29.398,23.749-45.148c7.471-9.052,15.71-19.552,25.271-26.17c-6.79-21.312-12.94-54.15-11.36-77.46
		c18.48,0.479,43.59,2.63,61.4,7.68c20.069,5.68,30.55,13.1,49.02,11.63c45.44-3.65,62.391-3.13,78.88-3.02h0.92
		c16.5-0.11,33.439-0.631,78.881,3.01c18.47,1.479,28.949-5.94,49.02-11.62c17.811-5.05,42.921-7.21,61.4-7.68
		c1.58,23.3-4.57,56.149-11.36,77.46c9.561,6.619,17.801,17.119,25.271,26.17c13,15.75,18.271,24.988,23.75,45.148
		C733.3,625.04,732.3,654.12,722.61,668.83z"/>
	<path fill="#DF4242" d="M683.331,477.101c-2.631,20.54-5.829,41.841-11.211,62.921c-10-9.021-26.237-24.08-38.448-29.25l25.6-19.5
		C664.172,487.761,677.732,477.44,683.331,477.101z"/>
	<path fill="#DF4242" d="M319.987,477.101c2.631,20.54,5.83,41.841,11.211,62.921c10-9.021,26.238-24.08,38.449-29.25l-25.6-19.5
		C339.147,487.761,325.587,477.44,319.987,477.101z"/>
	<g>
		<path fill="#8D1735" d="M503.084,755.351c-75.519-3.949-100.724,4.347-143.173-45.653c-6.735-7.936-10.514-42.002-10.514-42.002
			s8.765-3.352,14.986-3.331c15.11,0.04,23.396,0.353,37.416,6.333c9.274,3.956,47.334,25.167,47.334,25.167
			s47.291-2.296,53.64-2.296h-2.23c6.351,0,53.642,2.296,53.642,2.296s38.059-21.211,47.334-25.167
			c14.02-5.98,22.305-6.293,37.416-6.333c6.222-0.021,14.986,3.331,14.986,3.331s-3.777,34.066-10.515,42.002
			c-42.448,50-67.653,41.704-143.173,45.653H503.084z"/>
	</g>
	<g>
		<path fill="#ECA8AD" d="M503.084,737c-41.266-3.5-83.016,1.75-114.344-30c-7.311-7.409-10.422-42.637-10.422-42.637
			s12.271,1.931,15.313,3.006C408.663,672.681,424.569,682,424.569,682c9.275,3.956,25.899,13.215,25.899,13.215
			s45.957-1.646,52.306-1.646h-2.23c6.351,0,52.308,1.646,52.308,1.646s16.624-9.259,25.898-13.215c0,0,15.905-9.319,30.938-14.631
			c3.042-1.075,15.313-3.006,15.313-3.006s-3.11,35.228-10.422,42.637c-31.328,31.75-73.078,26.5-114.344,30H503.084L503.084,737z"
			/>
	</g>
	<g>
		<path fill="#FFFFFF" d="M626.972,662.277c1.153,16.073,6.269,19.395,15.421,32.494c8.732-10.239,13.301-13.129,14.581-26.994
			L626.972,662.277z"/>
		<path fill="#FFFFFF" d="M607.627,727.608c-4.354-9.464-5.885-11.053-14.963-17.724c-3.539,8.805-5.037,16.031-2.81,24.571
			c0,0,5.521,0.918,10.707-1.082C605.673,731.405,607.627,727.608,607.627,727.608z"/>
		<path fill="#FFFFFF" d="M584.063,738.46c-2.926-9.997-4.207-11.793-12.213-19.718c-4.788,8.192-7.325,15.124-6.368,23.896
			c0,0,5.326,1.715,10.75,0.493C581.575,741.931,584.063,738.46,584.063,738.46z"/>
		<path fill="#FFFFFF" d="M376.348,662.277c-1.153,16.073-6.27,19.395-15.421,32.494c-8.733-10.239-13.302-13.129-14.581-26.994
			L376.348,662.277z"/>
		<path fill="#FFFFFF" d="M395.692,727.608c4.354-9.464,5.884-11.053,14.962-17.724c3.54,8.805,5.038,16.031,2.811,24.571
			c0,0-5.521,0.918-10.707-1.082C397.646,731.405,395.692,727.608,395.692,727.608z"/>
		<path fill="#FFFFFF" d="M419.256,738.46c2.926-9.997,4.207-11.793,12.213-19.718c4.788,8.192,7.325,15.124,6.368,23.896
			c0,0-5.326,1.715-10.75,0.493C421.742,741.931,419.256,738.46,419.256,738.46z"/>
	</g>
	<g>
		<path fill="#FFFFFF" stroke="#EC2227" stroke-miterlimit="10" d="M643.223,599.537c0,16.84-13.65,30.5-30.5,30.5
			c-13.211,0-24.451-8.4-28.701-20.15c-1.16-3.229-1.799-6.72-1.799-10.35c0-16.84,13.66-30.5,30.5-30.5
			c13.879,0,25.588,9.27,29.279,21.95C642.803,593.697,643.223,596.567,643.223,599.537z"/>
		<circle fill="#DF4242" cx="614.391" cy="599.537" r="15.5"/>
		<path fill="#61C3A8" d="M649.889,579.957l-7.258,4.006l-11.741,6.481l-27.129,14.967l-14.524,8.013l-5.867,3.241
			c-3.031-5.062-4.925-10.899-5.313-17.188c-0.503-8.313,1.686-16.145,5.833-22.66l33.207-17.646
			C631.293,559.559,643.726,567.818,649.889,579.957z"/>
		<path fill="#FFFFFF" stroke="#EC2227" stroke-miterlimit="10" d="M360.097,599.537c0,16.84,13.649,30.5,30.5,30.5
			c13.211,0,24.451-8.4,28.701-20.15c1.159-3.229,1.799-6.72,1.799-10.35c0-16.84-13.66-30.5-30.5-30.5
			c-13.879,0-25.588,9.27-29.279,21.95C360.517,593.697,360.097,596.567,360.097,599.537z"/>
		<circle fill="#DF4242" cx="388.929" cy="599.537" r="15.5"/>
		<path fill="#61C3A8" d="M353.431,579.957l7.258,4.006l11.741,6.481l27.129,14.967l14.523,8.013l5.867,3.241
			c3.032-5.062,4.926-10.899,5.313-17.188c0.503-8.313-1.687-16.145-5.833-22.66l-33.207-17.646
			C372.026,559.559,359.594,567.818,353.431,579.957z"/>
	</g>
	<g>
		<path d="M313.661,638.609c1.787,2.684,3.516,5.396,5.255,8.104c1.754,2.702,3.466,5.425,5.158,8.157l5.105,8.184
			c1.72,2.719,3.347,5.485,5.021,8.229l-4.357-1.783c5.02-1.979,10.022-3.881,15.097-5.727c2.543-0.908,5.102-1.765,7.7-2.596
			c2.61-0.827,5.197-1.638,8.033-2.331c1.427-0.341,2.858-0.688,5.007-0.838l4.048-0.178c1.31-0.069,2.719-0.091,4.104-0.123
			c1.385-0.038,2.775-0.07,4.199-0.029c2.808,0.038,5.713,0.247,8.618,0.589c1.454,0.225,2.923,0.396,4.37,0.676l4.323,0.951
			l4.198,1.217c0.711,0.193,1.393,0.422,2.058,0.67l2.019,0.721l2.021,0.725l0.252,0.092l0.063,0.021l0.031,0.012l0.223,0.099
			l0.114,0.05l0.459,0.196l0.919,0.394c1.231,0.534,2.438,1.026,3.69,1.596c2.512,1.181,5.121,2.364,7.544,3.591l7.21,3.62
			c9.565,4.865,19.034,9.793,28.518,14.791l-4.195-1.091l25.596-0.288l25.596-0.09l25.596,0.099l12.798,0.143l6.397,0.07
			c2.134,0.029,4.268,0.032,6.399,0.091l-4.186,1.087c9.483-4.999,18.951-9.928,28.517-14.795l7.21-3.621
			c2.405-1.219,4.913-2.327,7.363-3.492c1.262-0.575,2.634-1.146,3.943-1.717l0.993-0.427l0.496-0.213l0.124-0.054l0.242-0.099
			l0.06-0.021l0.235-0.084l1.885-0.669l1.885-0.669l0.942-0.334l1.079-0.326l4.342-1.271l4.321-0.951
			c1.445-0.28,2.915-0.452,4.367-0.676c2.904-0.339,5.811-0.558,8.616-0.584c1.428-0.038,2.81-0.008,4.184,0.029
			c1.378,0.032,2.766,0.054,4.104,0.122l4.396,0.186c0.703,0.096,1.2,0.121,2.203,0.313c0.892,0.157,1.843,0.341,2.467,0.516
			c2.835,0.691,5.423,1.502,8.031,2.328c2.6,0.833,5.158,1.68,7.699,2.597c5.074,1.844,10.079,3.745,15.1,5.72l-4.34,1.776
			c1.67-2.744,3.302-5.51,5.021-8.229l5.101-8.187c1.691-2.733,3.403-5.456,5.154-8.158c1.738-2.709,3.465-5.424,5.25-8.107
			l0.887,0.461l-17.598,34.204l-0.258,0.502l-0.546-0.174c-5.071-1.605-10.17-3.153-15.283-4.627
			c-2.56-0.726-5.115-1.465-7.686-2.135c-2.566-0.673-5.146-1.333-7.728-1.832c-1.301-0.256-2.481-0.452-3.855-0.516l-3.941,0.033
			c-1.332,0.001-2.656,0.049-3.983,0.084c-1.326,0.028-2.651,0.067-3.97,0.169c-2.644,0.131-5.267,0.418-7.868,0.813
			c-1.291,0.25-2.595,0.441-3.876,0.736l-3.822,0.979l-3.737,1.229c-1.249,0.375-2.479,0.953-3.72,1.42l-1.856,0.739
			c-0.578,0.228-1.188,0.551-1.78,0.82c-1.19,0.571-2.389,1.116-3.574,1.71l-7.09,3.658l-7.052,3.75
			c-9.379,5.053-18.715,10.193-28.021,15.381l-0.209,0.116h-0.239l-51.19,0.079l-51.19-0.077h-0.24l-0.208-0.117
			c-9.307-5.187-18.643-10.329-28.021-15.381l-7.052-3.75l-7.069-3.647c-1.187-0.596-2.402-1.147-3.604-1.725
			c-0.595-0.271-1.22-0.603-1.79-0.824l-1.841-0.732c-1.235-0.465-2.438-1.032-3.699-1.413l-3.755-1.235l-3.823-0.979
			c-1.281-0.295-2.584-0.486-3.876-0.736c-2.601-0.396-5.224-0.683-7.868-0.813c-1.317-0.103-2.643-0.141-3.968-0.169
			c-1.325-0.035-2.647-0.083-3.981-0.084l-3.991-0.031c-1.221,0.056-2.521,0.255-3.81,0.514c-2.583,0.499-5.16,1.158-7.728,1.831
			c-2.57,0.671-5.126,1.408-7.686,2.137c-5.111,1.474-10.211,3.021-15.282,4.626l-0.547,0.175l-0.259-0.503l-17.596-34.205
			L313.661,638.609z"/>
	</g>
</g>
<g>
	<path d="M530.647,661.066c0,0-0.274,0.099-0.754,0.271c-0.253,0.077-0.525,0.199-0.779,0.351c-0.264,0.137-0.538,0.305-0.854,0.521
		c-0.313,0.183-0.621,0.431-0.923,0.699c-0.308,0.248-0.598,0.565-0.883,0.854c-0.544,0.655-1.039,1.347-1.453,2.057
		c-0.185,0.383-0.32,0.785-0.375,1.224c-0.087,0.409-0.109,0.819-0.295,1.099c-0.144,0.307-0.428,0.519-0.72,0.729
		c-0.291,0.212-0.636,0.401-0.973,0.594c-0.356,0.189-0.718,0.373-1.079,0.551c-0.399,0.193-0.747,0.362-1.033,0.501
		c-0.311,0.154-0.587,0.287-0.801,0.381c-0.214,0.096-0.328,0.146-0.328,0.146l-0.795-0.084c0,0-0.094-0.081-0.27-0.234
		c-0.175-0.155-0.396-0.389-0.634-0.699c-0.109-0.154-0.251-0.334-0.366-0.526c-0.096-0.194-0.198-0.405-0.31-0.63
		c-0.216-0.462-0.377-0.99-0.438-1.555c-0.096-0.578-0.079-1.187,0.024-1.811c0.073-0.639,0.325-1.248,0.677-1.819
		c0.396-0.545,0.922-1.022,1.54-1.406c0.588-0.408,1.238-0.742,1.803-1.132c0.608-0.351,1.181-0.716,1.821-0.961
		c0.604-0.292,1.271-0.449,1.875-0.612c0.639-0.11,1.217-0.257,1.804-0.254c0.574-0.026,1.104-0.021,1.594,0.046
		c0.471,0.028,0.935,0.143,1.325,0.243c0.188,0.05,0.365,0.097,0.529,0.141c0.146,0.058,0.27,0.124,0.386,0.177
		c0.461,0.219,0.724,0.344,0.724,0.344L530.647,661.066z"/>
</g>
<g>
	<path d="M471.977,658.824c0,0,0.263-0.125,0.724-0.344c0.117-0.054,0.239-0.119,0.386-0.178c0.164-0.044,0.341-0.091,0.529-0.141
		c0.392-0.102,0.854-0.214,1.325-0.243c0.489-0.065,1.02-0.072,1.594-0.046c0.587-0.003,1.165,0.144,1.804,0.254
		c0.604,0.163,1.271,0.321,1.875,0.613c0.642,0.245,1.214,0.609,1.822,0.96c0.563,0.39,1.213,0.724,1.803,1.132
		c0.617,0.384,1.146,0.862,1.54,1.407c0.352,0.57,0.604,1.181,0.677,1.818c0.104,0.624,0.12,1.231,0.024,1.811
		c-0.063,0.563-0.224,1.093-0.439,1.555c-0.11,0.226-0.214,0.437-0.31,0.63c-0.114,0.192-0.256,0.372-0.365,0.526
		c-0.239,0.312-0.459,0.544-0.635,0.7c-0.175,0.152-0.268,0.233-0.268,0.233l-0.796,0.084c0,0-0.114-0.052-0.328-0.146
		c-0.213-0.093-0.49-0.227-0.801-0.38c-0.287-0.14-0.634-0.309-1.033-0.501c-0.361-0.179-0.723-0.361-1.079-0.552
		c-0.337-0.191-0.683-0.382-0.973-0.594c-0.292-0.211-0.577-0.423-0.721-0.729c-0.185-0.279-0.207-0.689-0.295-1.1
		c-0.054-0.438-0.189-0.841-0.375-1.224c-0.414-0.71-0.908-1.4-1.452-2.056c-0.285-0.289-0.575-0.607-0.882-0.855
		c-0.302-0.269-0.611-0.517-0.924-0.699c-0.315-0.216-0.591-0.384-0.854-0.52c-0.253-0.151-0.527-0.273-0.779-0.352
		c-0.479-0.173-0.754-0.271-0.754-0.271L471.977,658.824z"/>
</g>
<path fill="#FFF200" d="M624.301,276.41c-9.396-13.056-30.394-29.008-45.771-15.537c-4.733,4.147-6.943,10.06-7.529,16.471
	c-1.381,5.55-0.396,12.154,1.782,17.806c1.099,4.181,2.561,8.078,4.13,11.313c2.681,5.524,7.035,10.038,12.184,13.173
	c6.918,7.266,18.355,9.555,27.682,6.057c9.988-3.748,16.082-11.927,16.924-22.481C634.457,293.754,629.663,283.863,624.301,276.41z"
	/>
</svg>
