<?xml version="1.0" encoding="utf-8"?>
<!-- Generator: Adobe Illustrator 16.0.0, SVG Export Plug-In . SVG Version: 6.00 Build 0)  -->
<!DOCTYPE svg PUBLIC "-//W3C//DTD SVG 1.1//EN" "http://www.w3.org/Graphics/SVG/1.1/DTD/svg11.dtd">
<svg version="1.1" xmlns="http://www.w3.org/2000/svg" xmlns:xlink="http://www.w3.org/1999/xlink" x="0px" y="0px" width="100px"
	 height="100px" viewBox="0 0 100 100" enable-background="new 0 0 100 100" xml:space="preserve">
<g id="sprite">
</g>
<g id="Bulbasaur">
	<g>
		<path fill-rule="evenodd" clip-rule="evenodd" fill="#6BC49C" d="M-32.279,41.831c-1.143-15.648-11.662-28.693-25.963-33.542
			c-1.735,0.717-2.577,3.672-2.664,4.425c2.092-0.587,10.233-0.691,10.553,4.104c-0.004,1.533-3.003,0.993-2.931,2.346
			c0.071,1.353,0.043,2.267,4.691,6.449c4.648,4.183,3.135,10.641,1.759,14.072c-0.362,1.72,0,2.345,0,2.345
			S-35.748,41.828-32.279,41.831z"/>
		<path fill-rule="evenodd" clip-rule="evenodd" fill="#6BC49C" d="M-70.557,77.224c-8.439-0.095-21.048-1.775-23.258-7.701
			c-2.027-5.435-0.804-20.604,0.098-22.787c1.227-6.881,3.118-9.364,5.864-11.727c4.771,2.03,5.789,5.712,7.036,8.794
			c0.139-1.192,0-2.931,0-2.931c4.285-1.013,5.875-1.173,10.261-1.173l-0.024-0.016c4.385,0,5.976,0.16,10.261,1.173
			c0,0-0.139,1.739,0,2.931c1.248-3.083,2.265-6.765,7.036-8.794c2.746,2.363,4.637,4.846,5.864,11.727
			c0.902,2.183,2.125,17.353,0.098,22.787c-2.21,5.926-14.819,7.606-23.258,7.701L-70.557,77.224z"/>
		<path fill-rule="evenodd" clip-rule="evenodd" fill="#6BC49C" d="M-70.557,83.078c-20.868,0-36.998-15.822-38.32-35.834
			c2.89,0.017,13.4,0.068,13.4,0.068s-2.334,14.815,0,22.28c0.763,1.847,1.929,7.795,23.453,9.381c0.604,0,0.909,0,1.466,0
			l-0.024-0.005c0.557,0,0.862,0,1.466,0c21.524-1.586,22.69-7.534,23.453-9.381c2.334-7.465,0-22.28,0-22.28
			s10.51-0.051,13.4-0.068c-1.322,20.012-17.452,35.834-38.32,35.834L-70.557,83.078z"/>
		<path fill-rule="evenodd" clip-rule="evenodd" fill="#6BC49C" stroke="#FFFFFF" stroke-width="2" stroke-miterlimit="10" d="
			M-70.581,83.072"/>
		<path fill-rule="evenodd" clip-rule="evenodd" fill="none" stroke="#FFFFFF" stroke-width="2" stroke-miterlimit="10" d="
			M-95.477,47.312c0,0-2.334,14.815,0,22.28c0.763,1.847,1.929,7.795,23.453,9.381c0.604,0,1.442-0.005,1.442-0.005
			c0.557,0,0.862,0,1.466,0c21.524-1.586,22.69-7.534,23.453-9.381c2.334-7.465,0-22.28,0-22.28"/>
		<path fill-rule="evenodd" clip-rule="evenodd" fill="#6BC49C" d="M-94.351,42.034c0,0,0.362-0.625,0-2.345
			c-1.376-3.431-2.889-9.889,1.759-14.072c4.648-4.182,4.62-5.097,4.691-6.449c0.072-1.353-2.927-0.813-2.931-2.346
			c0.32-4.795,8.461-4.691,10.553-4.104c-0.087-0.753-0.929-3.708-2.664-4.425c-14.301,4.85-24.82,17.895-25.963,33.542
			C-105.438,41.833-94.351,42.034-94.351,42.034z"/>
		<path fill-rule="evenodd" clip-rule="evenodd" fill="#6BC49C" d="M-70.604,39.689"/>
		<path fill-rule="evenodd" clip-rule="evenodd" fill="#194949" d="M-53.284,36.752c0,0,4.691,3.887,4.691,11.728
			c-1.084-1.055-2.708-2.8-5.277-1.173C-54.285,44.693-54.038,39.851-53.284,36.752z"/>
		<path fill-rule="evenodd" clip-rule="evenodd" fill="#194949" d="M-67.356,68.732c-0.979,0.128-1.885-0.193-1.759,2.346
			c0.44-0.371,0.478-0.652,1.172-0.586c0.694,0.066,0.994-0.234,1.173-0.586C-66.571,69.513-66.718,68.65-67.356,68.732z"/>
		<path fill-rule="evenodd" clip-rule="evenodd" fill="#194949" d="M-73.805,47.138c0,0,5.146,5.713,6.291,6.188
			c2.44-0.952,6.417-3.664,7.189-5.305c-1.021-3.291-1.233-5.654-2.697-7.072c-2.814-0.616-4.493,0-4.493,0
			s-0.533,3.694-1.798,4.419C-70.577,46.095-73.805,47.138-73.805,47.138z"/>
		<path fill-rule="evenodd" clip-rule="evenodd" fill="#194949" d="M-79.083,48.479c0,0,2.55-1.458,2.345-2.932
			c-0.205-1.474-1.758-2.345-1.758-2.345s-1.083,0-1.759,1.172C-80.932,45.547-79.083,48.479-79.083,48.479z"/>
		<path fill-rule="evenodd" clip-rule="evenodd" fill="#194949" d="M-76.151,51.997c0.25-1.333,1.405-1.752,2.346-1.759
			c0.939-0.007,2.32,1.141,2.931,2.346s1.214,2.209,1.173,2.931C-72.834,55.157-76.4,53.33-76.151,51.997z"/>
		<path fill-rule="evenodd" clip-rule="evenodd" fill="#194949" d="M-43.55,39.684c0,0-2.043-1.757-1.289-3.667
			c0.688-1.741,2.645-4.321,2.03-9.03c-1.091-2.854-1.466-3.846-2.03-4.904c1.054-1.858,2.579-2.934,2.579-2.934
			s4.667,4.652,7.738,11.734C-36.81,37.44-39.738,38.954-43.55,39.684z"/>
		<path fill-rule="evenodd" clip-rule="evenodd" fill="#194949" d="M-105.925,29.676c0,0,0.016,1.925,0.458,2.386
			c1.575,0.199,5.601-0.967,7.036-2.345c0.839-2.087,0.133-3.219,0.586-4.691c1.193-0.75,1.431-3.834,3.518-5.277
			c-1.198-1.228-2.349-0.875-3.518-0.586C-99.012,19.45-103.187,23.547-105.925,29.676z"/>
		<path fill-rule="evenodd" clip-rule="evenodd" fill="#194949" d="M-96.085,42.029h-7.036c0,0-1.019-2.494,1.172-5.863
			c1.886-1.162,3.519,0,3.519,0c0.849,1.986,1.743,2.732,2.346,2.932C-95.483,39.297-96.085,42.029-96.085,42.029z"/>
		<path fill-rule="evenodd" clip-rule="evenodd" fill="#194949" d="M-73.752,68.887c0.949,0.119,1.828-0.181,1.706,2.191
			c-0.427-0.347-0.464-0.609-1.137-0.548c-0.673,0.063-0.964-0.218-1.137-0.547C-74.514,69.615-74.372,68.809-73.752,68.887z"/>
		<path fill-rule="evenodd" clip-rule="evenodd" fill="#BE1F49" d="M-62.665,67.55c-0.807-1.355-0.754-1.643-0.405-3.335
			c0.883-1.388,4.376-8.871,12.171-8.697c3.022,3.383,2.609,7.118,2.306,8.514C-51.105,68.736-58.878,69.602-62.665,67.55z"/>
		<path fill-rule="evenodd" clip-rule="evenodd" fill="#FFFFFF" d="M-58.37,61.418c-1.047,1.313-2.326,3.927,0.443,6.131
			C-55.656,65.427-56.936,62.512-58.37,61.418z"/>
		<g>
			<g>
				<path fill-rule="evenodd" clip-rule="evenodd" fill="#6FA842" d="M-56.888,85.073c17.013-5.502,29.148-21.333,28.97-39.929
					C-28.116,24.619-43.266,7.491-63.11,3.878c-2.399-0.437-5.52-1.016-2.487,16.458c-2.297,1.211-4.104-0.587-4.104-0.587
					s0.056-1.548,0-5.863C-69.883-0.049-66.46,1.154-64.475,1.439c21.722,3.115,38.542,21.565,38.755,43.795
					c0.185,19.244-12.117,35.681-29.505,41.771c-4.655,1.63-3.906,2.353-4.509,3.688c1.365-0.47,2.994,2.744,0.586,5.864
					c-1.132,1.466-2.241,2.483-2.931,2.345c-1.991-2.899-3.109-4.981-2.346-8.209C-63.881,88.397-61.04,86.416-56.888,85.073z"/>
				<path fill-rule="evenodd" clip-rule="evenodd" fill="#6FA842" d="M-76.761,90.7c0.763,3.228-0.355,5.31-2.346,8.209
					c-0.69,0.138-1.799-0.879-2.931-2.345c-2.408-3.12-0.778-6.334,0.586-5.864c-0.603-1.336,0.146-2.059-4.509-3.688
					c-17.388-6.09-29.689-22.527-29.505-41.771c0.213-22.23,17.033-40.68,38.755-43.795c1.986-0.285,5.408-1.488,5.227,12.446
					c-0.056,4.315,0,5.863,0,5.863s-1.807,1.798-4.104,0.587c3.033-17.473-0.088-16.895-2.487-16.458
					c-19.844,3.613-34.994,20.741-35.192,41.266c-0.178,18.595,11.957,34.427,28.97,39.929
					C-80.145,86.421-77.304,88.403-76.761,90.7z"/>
			</g>
		</g>
		<path fill-rule="evenodd" clip-rule="evenodd" fill="#194949" d="M-87.314,47.312c-2.57-1.627-4.193,0.118-5.277,1.173
			c0-7.841,4.691-11.728,4.691-11.728C-87.147,39.856-86.9,44.699-87.314,47.312z"/>
		<path fill-rule="evenodd" clip-rule="evenodd" fill="#BE1F49" d="M-92.592,64.037c-0.304-1.396-0.716-5.131,2.306-8.514
			c7.795-0.174,11.333,7.21,12.216,8.598c0.349,1.692,0.357,2.079-0.45,3.434C-82.307,69.607-90.08,68.741-92.592,64.037z"/>
		<path fill-rule="evenodd" clip-rule="evenodd" fill="#FFFFFF" d="M-92.759,64.037c-0.304-1.396-0.716-5.131,2.306-8.514
			c1.145-0.026,2.2,0.072,3.172,0.262c-3.8,2.118-4.175,7.18-3.47,10.579C-91.575,65.73-92.268,64.957-92.759,64.037z"/>
		<path fill-rule="evenodd" clip-rule="evenodd" fill="#FFFFFF" d="M-50.43,66.363c0.705-3.398,0.33-8.461-3.47-10.579
			c0.972-0.19,2.027-0.288,3.172-0.262c3.022,3.383,2.609,7.118,2.306,8.514C-48.913,64.957-49.605,65.73-50.43,66.363z"/>
		<path fill-rule="evenodd" clip-rule="evenodd" fill="#FFFFFF" d="M-83.282,67.555c2.809-2.377,1.512-5.198,0.45-6.614
			C-84.288,62.121-85.585,65.266-83.282,67.555z"/>
		<path fill-rule="evenodd" clip-rule="evenodd" fill="none" stroke="#BE1F49" stroke-miterlimit="10" d="M-90.157,71.667
			c-1.145-0.458,2.768-0.766,3.167-0.672c0.799,0.188,14.119,2.818,16.55,3.969l0.014-0.005c2.431-1.15,15.751-3.781,16.55-3.969
			c0.399-0.094,4.366,0.37,3.168,0.672"/>
	</g>
	<path fill-rule="evenodd" clip-rule="evenodd" fill="none" stroke="#000000" stroke-width="0.25" stroke-miterlimit="10" d="
		M-70.581,94.139"/>
	<path fill-rule="evenodd" clip-rule="evenodd" fill="none" stroke="#000000" stroke-width="0.25" stroke-miterlimit="10" d="
		M-70.581,1.362"/>
	<path fill-rule="evenodd" clip-rule="evenodd" fill="#6FA842" d="M-70.615,39.689c-4.385,0-5.976,0.16-10.261,1.173
		c-0.73-4.453-5.303-6.634-7.036-7.623c-0.762,0.518-3.185,3.042-4.691,7.036c-2.089-3.002-2.212-8.759-1.173-11.14
		c1.041-2.382,3.974-4.287,5.864-6.45c1.69-1.936,2.435-5.097-1.173-5.864c0.501-1.372,1.13-1.612,2.052-1.826
		c1.075-0.25,1.773-0.165,2.639,0.068c0.694,0.187,2.257,1.496,3.518,2.931c-1.117,1.615-1.955,4.539-1.76,6.449
		c0.316,3.104,1.583,5.453,2.932,7.623c0.014-3.942,4.01-5.253,5.863-7.036c2.809-2.701,3.229-3.553,3.229-3.553l0.015-0.005
		c0,0,0.42,0.853,3.229,3.553c1.853,1.783,5.849,3.094,5.863,7.036c1.35-2.17,2.616-4.519,2.932-7.623
		c0.195-1.911-0.643-4.834-1.76-6.449c1.261-1.435,2.824-2.745,3.518-2.931c0.866-0.232,1.564-0.317,2.639-0.068
		c0.922,0.214,1.55,0.455,2.052,1.826c-3.608,0.767-2.863,3.928-1.173,5.864c1.89,2.163,4.823,4.068,5.864,6.45
		c1.04,2.381,0.916,8.138-1.173,11.14c-1.506-3.994-3.929-6.518-4.691-7.036c-1.733,0.989-6.306,3.17-7.036,7.623
		c-4.285-1.013-5.875-1.173-10.261-1.173"/>
	<path fill-rule="evenodd" clip-rule="evenodd" fill="none" stroke="#FFFFFF" stroke-width="2" stroke-miterlimit="10" d="
		M-55.217,13.863c1.318,0,4.059,1.465,4.602,2.949c-3.905,0.831-3.1,4.25-1.269,6.345c2.044,2.339,5.221,4.399,6.347,6.978
		c1.125,2.576,0.54,8.653-1.721,11.9"/>
	<path fill-rule="evenodd" clip-rule="evenodd" fill="none" stroke="#FFFFFF" stroke-width="2" stroke-miterlimit="10" d="
		M-85.526,13.768c-1.318,0-4.059,1.465-4.602,2.949c3.905,0.831,3.1,4.25,1.269,6.345c-2.044,2.339-5.221,4.399-6.347,6.978
		c-1.125,2.576-0.527,8.285,1.733,11.532"/>
	<path fill-rule="evenodd" clip-rule="evenodd" fill="#6FA842" d="M-70.581,39.689"/>
	<g>
		<g>
			<path fill="#6CC49D" d="M-278.82,56.938c0.862,1.16,9.078,4.957,0.213,19.804c-0.328,0.549-0.479,2.714-2.715,3.214
				S-287.695,80-287.695,80"/>
			<path fill="none" stroke="#006838" stroke-width="0.5" stroke-miterlimit="10" d="M-278.82,56.938
				c0.862,1.16,9.078,4.957,0.213,19.804c-0.328,0.549-0.479,2.714-2.715,3.214S-287.695,80-287.695,80"/>
		</g>
		<g>
			<path fill="#6CC49D" d="M-338.625,56.938c-0.862,1.16-9.078,4.957-0.213,19.804c0.328,0.549,0.479,2.714,2.715,3.214
				S-329.75,80-329.75,80"/>
			<path fill="none" stroke="#006838" stroke-width="0.5" stroke-miterlimit="10" d="M-338.625,56.938
				c-0.862,1.16-9.078,4.957-0.213,19.804c0.328,0.549,0.479,2.714,2.715,3.214S-329.75,80-329.75,80"/>
		</g>
	</g>
	<path fill="#009444" stroke="#006838" stroke-width="0.5" stroke-miterlimit="10" d="M-328.998,55.632
		c0,0-13.354-5.632-7.222-19.626c3.635-8.295,15.063-8.448,18.452-16.255c2.351-5.417,0.518-7.583,0.059-9.667
		c3.083,1.917,4.417,3.167,6.083,5.292c1.375-2.042,1.375-6.625,1.375-6.625s0.877,0.638,2.25,2.313
		c1.229,1.5,1.396,2.813,1.396,2.813s0.566-1.042,1.896-1.979c1.611-1.136,2.267-1.479,2.441-1.328
		c0.334,0.288-1.084,2.377-0.945,4.182c0.212,2.75,0.301,3.572,2.381,6.536s17.997,5.381,19.817,19.256
		c3.659,27.897-28.135,26.555-28.135,26.555"/>
	<g>
		<path fill-rule="evenodd" clip-rule="evenodd" fill="#6BC49C" d="M-151.187,41.697c-1.143-15.648-11.662-28.693-25.963-33.542
			c-1.735,0.717-2.577,3.672-2.664,4.425c2.092-0.587,10.233-0.691,10.553,4.104c-0.004,1.533-3.003,0.993-2.931,2.346
			c0.071,1.353,0.043,2.267,4.691,6.449c4.648,4.183,3.135,10.641,1.759,14.072c-0.362,1.72,0,2.345,0,2.345
			S-154.655,41.694-151.187,41.697z"/>
		<path fill-rule="evenodd" clip-rule="evenodd" fill="#6BC49C" d="M-189.465,77.09c-8.439-0.095-21.048-1.775-23.258-7.701
			c-2.027-5.435-0.804-20.604,0.098-22.787c1.227-6.881,3.118-9.364,5.864-11.727c4.771,2.03,5.789,5.712,7.036,8.794
			c0.139-1.192,0-2.931,0-2.931c4.285-1.013,5.875-1.173,10.261-1.173l-0.024-0.016c4.385,0,5.976,0.16,10.261,1.173
			c0,0-0.139,1.739,0,2.931c1.248-3.083,2.265-6.765,7.036-8.794c2.746,2.363,4.637,4.846,5.864,11.727
			c0.902,2.183,2.125,17.353,0.098,22.787c-2.21,5.926-14.819,7.606-23.258,7.701L-189.465,77.09z"/>
		<path fill-rule="evenodd" clip-rule="evenodd" fill="#6BC49C" d="M-189.465,82.944c-20.868,0-36.998-15.822-38.32-35.834
			c2.89,0.017,13.4,0.068,13.4,0.068s-2.334,14.815,0,22.28c0.763,1.847,1.929,7.795,23.453,9.381c0.604,0,0.909,0,1.466,0
			l-0.024-0.005c0.557,0,0.862,0,1.466,0c21.524-1.586,22.69-7.534,23.453-9.381c2.334-7.465,0-22.28,0-22.28
			s10.51-0.051,13.4-0.068c-1.322,20.012-17.452,35.834-38.32,35.834L-189.465,82.944z"/>
		<path fill-rule="evenodd" clip-rule="evenodd" fill="#6BC49C" d="M-213.259,41.9c0,0,0.362-0.625,0-2.345
			c-1.376-3.431-2.889-9.889,1.759-14.072c4.648-4.182,4.62-5.097,4.691-6.449c0.072-1.353-2.927-0.813-2.931-2.346
			c0.32-4.795,8.461-4.691,10.553-4.104c-0.087-0.753-0.929-3.708-2.664-4.425c-14.301,4.85-24.82,17.895-25.963,33.542
			C-224.345,41.699-213.259,41.9-213.259,41.9z"/>
		<path fill-rule="evenodd" clip-rule="evenodd" fill="#6BC49C" d="M-189.512,39.555"/>
		<path fill-rule="evenodd" clip-rule="evenodd" fill="#194949" d="M-172.192,36.618c0,0,4.691,3.887,4.691,11.728
			c-1.084-1.055-2.708-2.8-5.277-1.173C-173.193,44.56-172.945,39.717-172.192,36.618z"/>
		<path fill-rule="evenodd" clip-rule="evenodd" fill="#194949" d="M-186.264,68.598c-0.979,0.128-1.885-0.193-1.759,2.346
			c0.44-0.371,0.478-0.652,1.172-0.586c0.694,0.066,0.994-0.234,1.173-0.586C-185.479,69.379-185.625,68.516-186.264,68.598z"/>
		<path fill-rule="evenodd" clip-rule="evenodd" fill="#194949" d="M-192.713,47.004c0,0,5.146,5.713,6.291,6.188
			c2.44-0.952,6.417-3.664,7.189-5.305c-1.021-3.291-1.233-5.654-2.697-7.072c-2.814-0.616-4.493,0-4.493,0
			s-0.533,3.694-1.798,4.419C-189.485,45.961-192.713,47.004-192.713,47.004z"/>
		<path fill-rule="evenodd" clip-rule="evenodd" fill="#194949" d="M-197.99,48.346c0,0,2.55-1.458,2.345-2.932
			c-0.205-1.474-1.758-2.345-1.758-2.345s-1.083,0-1.759,1.172C-199.839,45.414-197.99,48.346-197.99,48.346z"/>
		<path fill-rule="evenodd" clip-rule="evenodd" fill="#194949" d="M-195.059,51.863c0.25-1.333,1.405-1.752,2.346-1.759
			c0.939-0.007,2.32,1.141,2.931,2.346s1.214,2.209,1.173,2.931C-191.742,55.023-195.308,53.196-195.059,51.863z"/>
		<path fill-rule="evenodd" clip-rule="evenodd" fill="#194949" d="M-162.458,39.55c0,0-2.043-1.757-1.289-3.667
			c0.688-1.741,2.645-4.321,2.03-9.03c-1.091-2.854-1.466-3.846-2.03-4.904c1.054-1.858,2.579-2.934,2.579-2.934
			s4.667,4.652,7.738,11.734C-155.718,37.307-158.646,38.82-162.458,39.55z"/>
		<path fill-rule="evenodd" clip-rule="evenodd" fill="#194949" d="M-224.833,29.542c0,0,0.016,1.925,0.458,2.386
			c1.575,0.199,5.601-0.967,7.036-2.345c0.839-2.087,0.133-3.219,0.586-4.691c1.193-0.75,1.431-3.834,3.518-5.277
			c-1.198-1.228-2.349-0.875-3.518-0.586C-217.919,19.316-222.094,23.413-224.833,29.542z"/>
		<path fill-rule="evenodd" clip-rule="evenodd" fill="#194949" d="M-214.993,41.895h-7.036c0,0-1.019-2.494,1.172-5.863
			c1.886-1.162,3.519,0,3.519,0c0.849,1.986,1.743,2.732,2.346,2.932C-214.391,39.164-214.993,41.895-214.993,41.895z"/>
		<path fill-rule="evenodd" clip-rule="evenodd" fill="#194949" d="M-192.66,68.753c0.949,0.119,1.828-0.181,1.706,2.191
			c-0.427-0.347-0.464-0.609-1.137-0.548c-0.673,0.063-0.964-0.218-1.137-0.547C-193.421,69.481-193.279,68.675-192.66,68.753z"/>
		<path fill-rule="evenodd" clip-rule="evenodd" fill="#BE1F49" d="M-181.573,67.416c-0.807-1.355-0.754-1.643-0.405-3.335
			c0.883-1.388,4.376-8.871,12.171-8.697c3.022,3.383,2.609,7.118,2.306,8.514C-170.013,68.602-177.786,69.468-181.573,67.416z"/>
		<path fill-rule="evenodd" clip-rule="evenodd" fill="#FFFFFF" d="M-176.882,58.035c-1.385,2.009-3.076,6.009,0.586,9.381
			C-173.294,64.168-174.985,59.708-176.882,58.035z"/>
		<g>
			<g>
				<path fill-rule="evenodd" clip-rule="evenodd" fill="#6FA842" d="M-175.795,84.939c17.013-5.502,29.148-21.333,28.97-39.929
					c-0.198-20.525-15.348-37.653-35.192-41.266c-2.399-0.437-5.52-1.016-2.487,16.458c-2.297,1.211-4.104-0.587-4.104-0.587
					s0.056-1.548,0-5.863c-0.182-13.935,3.241-12.731,5.227-12.446c21.722,3.115,38.542,21.565,38.755,43.795
					c0.185,19.244-12.117,35.681-29.505,41.771c-4.655,1.63-3.906,2.353-4.509,3.688c1.365-0.47,2.994,2.744,0.586,5.864
					c-1.132,1.466-2.241,2.483-2.931,2.345c-1.991-2.899-3.109-4.981-2.346-8.209C-182.789,88.264-179.948,86.282-175.795,84.939z"
					/>
				<path fill-rule="evenodd" clip-rule="evenodd" fill="#6FA842" d="M-195.668,90.566c0.763,3.228-0.355,5.31-2.346,8.209
					c-0.69,0.138-1.799-0.879-2.931-2.345c-2.408-3.12-0.778-6.334,0.586-5.864c-0.603-1.336,0.146-2.059-4.509-3.688
					c-17.388-6.09-29.689-22.527-29.505-41.771c0.213-22.23,17.033-40.68,38.755-43.795c1.986-0.285,5.408-1.488,5.227,12.446
					c-0.056,4.315,0,5.863,0,5.863s-1.807,1.798-4.104,0.587c3.033-17.473-0.088-16.895-2.487-16.458
					c-19.844,3.613-34.994,20.741-35.192,41.266c-0.178,18.595,11.957,34.427,28.97,39.929
					C-199.053,86.287-196.211,88.269-195.668,90.566z"/>
			</g>
		</g>
		<path fill-rule="evenodd" clip-rule="evenodd" fill="#194949" d="M-206.222,47.178c-2.57-1.627-4.193,0.118-5.277,1.173
			c0-7.841,4.691-11.728,4.691-11.728C-206.055,39.723-205.808,44.565-206.222,47.178z"/>
		<path fill-rule="evenodd" clip-rule="evenodd" fill="#BE1F49" d="M-211.5,63.903c-0.304-1.396-0.716-5.131,2.306-8.514
			c7.795-0.174,11.333,7.21,12.216,8.598c0.349,1.692,0.357,2.079-0.45,3.434C-201.215,69.473-208.988,68.607-211.5,63.903z"/>
		<path fill-rule="evenodd" clip-rule="evenodd" fill="#FFFFFF" d="M-211.667,63.903c-0.304-1.396-0.716-5.131,2.306-8.514
			c1.145-0.026,2.2,0.072,3.172,0.262c-3.8,2.118-4.175,7.18-3.47,10.579C-210.483,65.596-211.175,64.823-211.667,63.903z"/>
		<path fill-rule="evenodd" clip-rule="evenodd" fill="#FFFFFF" d="M-169.337,66.229c0.705-3.398,0.33-8.461-3.47-10.579
			c0.972-0.19,2.027-0.288,3.172-0.262c3.022,3.383,2.609,7.118,2.306,8.514C-167.821,64.823-168.513,65.596-169.337,66.229z"/>
		<path fill-rule="evenodd" clip-rule="evenodd" fill="#FFFFFF" d="M-202.704,67.421c3.662-3.372,1.971-7.373,0.586-9.381
			C-204.015,59.714-205.707,64.174-202.704,67.421z"/>
		<path fill-rule="evenodd" clip-rule="evenodd" fill="#BE1F49" d="M-189.508,75.83c0,0-3.49,0.283-9.679-1.247
			c-5.044-1.247-8.188-2.417-11.523-3.05c-1.299-0.247,2.977-0.766,3.406-0.672c0.859,0.188,15.182,2.818,17.796,3.969l0.015-0.005
			c2.614-1.15,16.937-3.781,17.796-3.969c0.43-0.094,4.694,0.37,3.406,0.672c-3.084,0.722-7.729,2.524-11.523,3.139
			c-6.293,1.02-9.679,1.158-9.679,1.158"/>
	</g>
	<path fill-rule="evenodd" clip-rule="evenodd" fill="none" stroke="#000000" stroke-width="0.25" stroke-miterlimit="10" d="
		M-189.489,94.005"/>
	<path fill-rule="evenodd" clip-rule="evenodd" fill="none" stroke="#000000" stroke-width="0.25" stroke-miterlimit="10" d="
		M-189.489,1.228"/>
	<path fill-rule="evenodd" clip-rule="evenodd" fill="#6FA842" d="M-189.523,39.555c-4.385,0-5.976,0.16-10.261,1.173
		c-0.73-4.453-5.303-6.634-7.036-7.623c-0.762,0.518-3.185,3.042-4.691,7.036c-2.089-3.002-2.212-8.759-1.173-11.14
		c1.041-2.382,3.974-4.287,5.864-6.45c1.69-1.936,2.435-5.097-1.173-5.864c0.501-1.372,1.13-1.612,2.052-1.826
		c1.075-0.25,1.773-0.165,2.639,0.068c0.694,0.187,2.257,1.496,3.518,2.931c-1.117,1.615-1.955,4.539-1.76,6.449
		c0.316,3.104,1.583,5.453,2.932,7.623c0.014-3.942,4.01-5.253,5.863-7.036c2.809-2.701,3.229-3.553,3.229-3.553l0.015-0.005
		c0,0,0.42,0.853,3.229,3.553c1.853,1.783,5.849,3.094,5.863,7.036c1.35-2.17,2.616-4.519,2.932-7.623
		c0.195-1.911-0.643-4.834-1.76-6.449c1.261-1.435,2.824-2.745,3.518-2.931c0.866-0.232,1.564-0.317,2.639-0.068
		c0.922,0.214,1.55,0.455,2.052,1.826c-3.608,0.767-2.863,3.928-1.173,5.864c1.89,2.163,4.823,4.068,5.864,6.45
		c1.04,2.381,0.916,8.138-1.173,11.14c-1.506-3.994-3.929-6.518-4.691-7.036c-1.733,0.989-6.306,3.17-7.036,7.623
		c-4.285-1.013-5.875-1.173-10.261-1.173"/>
	<g>
		<g>
			<path fill="#6CC49D" d="M-308.71,30.292c0,0,45.391,29.833,21.766,42.958c-2.807,1.56-7.391,5.25-21.766,5.25"/>
			<path fill="none" stroke="#006838" stroke-width="0.5" stroke-miterlimit="10" d="M-308.71,30.292
				c0,0,45.391,29.833,21.766,42.958c-2.807,1.56-7.391,5.25-21.766,5.25"/>
		</g>
		<g>
			<path fill="#6CC49D" d="M-308.984,30.292c0,0-45.391,29.833-21.766,42.958c2.807,1.56,7.391,5.25,21.766,5.25"/>
			<path fill="none" stroke="#006838" stroke-width="0.5" stroke-miterlimit="10" d="M-308.984,30.292
				c0,0-45.391,29.833-21.766,42.958c2.807,1.56,7.391,5.25,21.766,5.25"/>
		</g>
	</g>
	<g>
		<g>
			<path fill="#6CC49D" d="M-292.469,65.167c-0.167,4.167-3.167,5.333-7.192,7.833c-1.192,2-3.849,6.637-2.308,7.833
				c2.308,1.792,5.5,4,11.125,1.333s12.208-8.917,12.542-19.917S-285.936,38-285.936,38s-12.439-7.708-23.048-7.708"/>
			<path fill="none" stroke="#006838" stroke-width="0.5" stroke-miterlimit="10" d="M-292.469,65.167
				c-0.167,4.167-3.167,5.333-7.192,7.833c-1.192,2-3.849,6.637-2.308,7.833c2.308,1.792,5.5,4,11.125,1.333
				s12.208-8.917,12.542-19.917S-285.936,38-285.936,38s-12.439-7.708-23.048-7.708"/>
		</g>
		<g>
			<path fill="#6CC49D" d="M-325.5,65.167c0.167,4.167,3.167,5.333,7.192,7.833c1.192,2,3.849,6.637,2.308,7.833
				c-2.308,1.792-5.5,4-11.125,1.333s-12.208-8.917-12.542-19.917S-332.033,38-332.033,38s12.439-7.708,23.048-7.708"/>
			<path fill="none" stroke="#006838" stroke-width="0.5" stroke-miterlimit="10" d="M-325.5,65.167
				c0.167,4.167,3.167,5.333,7.192,7.833c1.192,2,3.849,6.637,2.308,7.833c-2.308,1.792-5.5,4-11.125,1.333
				s-12.208-8.917-12.542-19.917S-332.033,38-332.033,38s12.439-7.708,23.048-7.708"/>
		</g>
	</g>
	<g>
		<g>
			<path fill="#6CC49D" d="M-308.974,63.674c0,0,14.704-0.771,22-7.202c4.092-5.722,1.125-22.199,1.125-22.199s0.804-1.973,1-4.89
				c0.355-5.292-0.25-7.875-0.25-7.875s-5.75-1.508-13.125,3.335c0,0-4.625-1.469-10.75-1.469"/>
			<path fill="none" stroke="#006838" stroke-width="0.5" stroke-miterlimit="10" d="M-308.974,63.674c0,0,14.704-0.771,22-7.202
				c4.092-5.722,1.125-22.199,1.125-22.199s0.804-1.973,1-4.89c0.355-5.292-0.25-7.875-0.25-7.875s-5.75-1.508-13.125,3.335
				c0,0-4.625-1.469-10.75-1.469"/>
		</g>
		<g>
			<path fill="#6CC49D" d="M-309,63.674c0,0-14.704-0.771-22-7.202c-4.092-5.722-1.125-22.199-1.125-22.199s-0.804-1.973-1-4.89
				c-0.355-5.292,0.25-7.875,0.25-7.875s5.75-1.508,13.125,3.335c0,0,4.625-1.469,10.75-1.469"/>
			<path fill="none" stroke="#006838" stroke-width="0.5" stroke-miterlimit="10" d="M-309,63.674c0,0-14.704-0.771-22-7.202
				c-4.092-5.722-1.125-22.199-1.125-22.199s-0.804-1.973-1-4.89c-0.355-5.292,0.25-7.875,0.25-7.875s5.75-1.508,13.125,3.335
				c0,0,4.625-1.469,10.75-1.469"/>
		</g>
	</g>
	<g>
		<g>
			<path fill="none" stroke="#006838" stroke-miterlimit="10" d="M-308.84,60.869c0,0,8.233-0.915,15.881-4.789
				c0,0,1.003-0.136,1.753,1.162"/>
		</g>
		<g>
			<path fill="none" stroke="#006838" stroke-miterlimit="10" d="M-308.95,60.869c0,0-8.233-0.915-15.881-4.789
				c0,0-1.003-0.136-1.753,1.162"/>
		</g>
	</g>
	<g>
		<g>
			<path fill="#F1F2F2" d="M-287.228,50.636c0,0-2.375,2.625-6.375,2.625c-3.875,0-8.625-0.75-8.625-0.75s0.25-5.5,0.875-7.375
				s6.25-6.25,11.625-6.5C-285.697,42.597-287.228,50.636-287.228,50.636z"/>
			<path fill="none" stroke="#006838" stroke-width="0.5" stroke-miterlimit="10" d="M-287.228,50.636c0,0-2.375,2.625-6.375,2.625
				c-3.875,0-8.625-0.75-8.625-0.75s0.25-5.5,0.875-7.375s6.25-6.25,11.625-6.5C-285.697,42.597-287.228,50.636-287.228,50.636z"/>
		</g>
		<g>
			<path fill="#F1F2F2" d="M-331.748,50.636c0,0,2.375,2.625,6.375,2.625c3.875,0,8.625-0.75,8.625-0.75s-0.25-5.5-0.875-7.375
				s-6.25-6.25-11.625-6.5C-333.279,42.597-331.748,50.636-331.748,50.636z"/>
			<path fill="none" stroke="#006838" stroke-width="0.5" stroke-miterlimit="10" d="M-331.748,50.636c0,0,2.375,2.625,6.375,2.625
				c3.875,0,8.625-0.75,8.625-0.75s-0.25-5.5-0.875-7.375s-6.25-6.25-11.625-6.5C-333.279,42.597-331.748,50.636-331.748,50.636z"/>
		</g>
	</g>
	<g>
		<g>
			<path fill="#BE1F49" d="M-302.75,52.5c0,0,0.25-5.5,0.875-7.375c0.37-1.111,2.5-3.095,5.289-4.583
				c3.578,1.565,6.084,5.176,6.084,9.384c0,0.941-0.136,1.849-0.37,2.714c-0.91,0.353-2.002,0.609-3.252,0.609
				C-298,53.25-302.75,52.5-302.75,52.5z"/>
		</g>
		<g>
			<path fill="#BE1F49" d="M-316.75,52.5c0,0-0.25-5.5-0.875-7.375c-0.37-1.111-2.5-3.095-5.289-4.583
				c-3.578,1.565-6.084,5.176-6.084,9.384c0,0.941,0.136,1.849,0.37,2.714c0.91,0.353,2.002,0.609,3.252,0.609
				C-321.5,53.25-316.75,52.5-316.75,52.5z"/>
		</g>
	</g>
	<path fill="#F1F2F2" d="M-321.875,44.875c0,0-1.459,1.056-1.649,2.021c-0.21,1.072,0.5,1.979,0.825,2.604
		c1.059-0.75,1.599-1.297,1.699-2.234C-320.873,46.078-321.875,44.875-321.875,44.875z"/>
	<path fill="#F1F2F2" d="M-297.099,44.892c0,0-0.949,1.531-0.758,2.497c0.212,1.072,1.214,1.64,1.751,2.095
		c0.695-1.096,0.987-1.807,0.724-2.712C-295.715,45.624-297.099,44.892-297.099,44.892z"/>
	<g>
		<path fill="#BE1F49" d="M-313.125,55.632c1.125,0.056,1.875,1.368,2.375,1.681"/>
		<path fill="#006838" d="M-313.125,55.632c0,0,0.053-0.033,0.144-0.074c0.045-0.019,0.1-0.045,0.161-0.063
			c0.065-0.016,0.123-0.059,0.213-0.044c0.159,0.003,0.428,0.033,0.596,0.123c0.196,0.075,0.375,0.198,0.529,0.331
			c0.31,0.279,0.498,0.624,0.591,0.898c0.091,0.278,0.137,0.498,0.142,0.51c0.016,0.001-0.266,0.029-0.551-0.107
			c-0.299-0.122-0.599-0.342-0.848-0.556c-0.115-0.125-0.236-0.222-0.334-0.335c-0.108-0.13-0.167-0.179-0.252-0.307
			c-0.033-0.058-0.11-0.093-0.154-0.139c-0.051-0.039-0.093-0.083-0.128-0.117C-313.087,55.682-313.125,55.632-313.125,55.632z"/>
	</g>
	<path fill="#427B52" stroke="#006838" stroke-width="0.5" stroke-miterlimit="10" d="M-319.75,39.005c0,0,1.125-2.625,2.5-3
		c1.625,1.375,2.5,2.25,3.5,3.75c-1.125,1.25-1,1.521-2,1.511C-317.875,40.255-319.75,39.005-319.75,39.005z"/>
	<path fill="#427B52" stroke="#006838" stroke-width="0.5" stroke-miterlimit="10" d="M-309.5,41.887c0,0,4.512-5.277,5.907-4.987
		c0.824,1.962,0.214,6.189-0.901,8.378c-1.57,0.604-3.381,0.565-4.99-0.884C-310.919,42.529-309.5,41.887-309.5,41.887z"/>
	<path fill="#427B52" stroke="#006838" stroke-width="0.5" stroke-miterlimit="10" d="M-288.831,65.928c0,0,3.971,3.38,5.167,4.968
		c-0.22,2.677-1.386,3.888-3.593,4.968c-1.825-0.884-3.551-2.618-4.354-5.532C-292.031,67.179-288.831,65.928-288.831,65.928z"/>
	<path fill="#427B52" stroke="#006838" stroke-width="0.5" stroke-miterlimit="10" d="M-336.692,51.811c0,0,2.55,5.51,3.568,7.015
		c0.104,2.317-0.619,3.261-2.106,3.989c-1.404-0.952-3.23-2.877-4.095-5.502C-338.652,53.249-336.692,51.811-336.692,51.811z"/>
	<path fill="#427B52" stroke="#006838" stroke-width="0.5" stroke-miterlimit="10" d="M-329.005,63.332c0,0,1.916,2.07,2.934,3.576
		c0.104,2.317-0.619,3.261-2.106,3.989c-1.404-0.952-2.819-2.636-3.685-5.261C-332.474,62.838-329.005,63.332-329.005,63.332z"/>
	<path fill="#427B52" stroke="#006838" stroke-width="0.5" stroke-miterlimit="10" d="M-333.588,69.032c0,0,0.339,1.509,0.474,2.519
		c-0.236,1.214-0.563,1.531-1.095,1.558c-0.314-0.815-0.547-2.01-0.506-3.56C-334.578,67.971-333.588,69.032-333.588,69.032z"/>
	<path fill="#427B52" stroke="#006838" stroke-width="0.5" stroke-miterlimit="10" d="M-280.906,48.938
		c0,0,2.375,7.656,2.438,10.313c0.271,2.437,0.077,4.792-1.253,5.442c-1.379-1.103-2.824-2.975-3.827-5.79
		C-284.329,55.925-280.906,48.938-280.906,48.938z"/>
	<path fill="#427B52" stroke="#006838" stroke-width="0.5" stroke-miterlimit="10" d="M-312.563,25.748
		c0,0,12.254-0.825,13.188,0.252c-0.535,2.06-2.125,8-11.375,12c-1.614-0.472-3.625-6-3.431-8.357
		C-314.19,27.29-312.563,25.748-312.563,25.748z"/>
	<path fill="#F1F2F2" stroke="#006838" stroke-width="0.5" stroke-miterlimit="10" d="M-324.39,56.11c0,0-0.276,0.78,0.724,1.918
		c0,0,0.937-0.289,1.044-1.127"/>
</g>
<g id="ivysaur">
	<path fill-rule="evenodd" clip-rule="evenodd" fill="#78C8B8" d="M87.349,56.614c-1.388,19.949-18.01,35.701-38.312,35.701
		S12.114,76.563,10.727,56.614H87.349z M10.727,51.207c1.387-19.948,18.009-35.701,38.311-35.701s36.924,15.753,38.312,35.701
		H10.727z"/>
	<path fill-rule="evenodd" clip-rule="evenodd" fill="#78C8B8" stroke="#FFFFFF" stroke-width="2" stroke-miterlimit="10" d="
		M50.444,88.003l-0.435,0.009c4.403-0.05,13.596-1.398,17.38-4.564c0.664-0.437,1.795,0.082,3.057,0.273
		c0.896-0.722,1.563-1.556,1.921-2.516c0.474-1.271-1.42-3.082-1.29-5.186c0.362-5.844-0.02-13.526-0.605-14.944
		c0.431-2.269,1.415-6.083-0.683-8.471c-4.215,1.793-8.155,3.742-10.713,5.88c-0.123-1.053,0-2.589,0-2.589
		c-3.786-0.895-5.191-1.037-9.065-1.037l0.021,0.014l-1.905,0.019l0.021-0.014c-3.875,0-5.28,0.142-9.065,1.037
		c0,0,0.123,1.536,0,2.589c-2.558-2.138-6.498-4.087-10.713-5.88c-2.098,2.388-1.114,6.202-0.683,8.471
		c-0.586,1.417-0.967,9.1-0.605,14.944c0.13,2.104-1.764,3.915-1.29,5.186c0.358,0.96,1.025,1.794,1.921,2.516
		c1.261-0.191,2.393-0.71,3.057-0.273c3.784,3.166,11.962,4.496,16.365,4.546h0.641L50.444,88.003z"/>
	<path fill-rule="evenodd" clip-rule="evenodd" fill="#BE1F49" d="M56.513,77.579c-0.704-1.182,0.4-1.87-1.18-0.779
		c-0.326,0.512,5.445-8.442,10.029-8.34c2.635,2.95,2.608,6.059,2.344,7.277C66.242,78.477,56.516,77.58,56.513,77.579z"/>
	<path fill-rule="evenodd" clip-rule="evenodd" d="M60.811,70.95c-1.817,0.742-3.326,3.031-0.132,5.276
		C63.296,74.064,61.421,72.726,60.811,70.95z"/>
	<path fill-rule="evenodd" clip-rule="evenodd" fill="#FFFFFF" d="M65.342,77.18c0.615-2.964-0.387-6.067-2.48-8.027
		c1-0.694,1.501-0.716,2.5-0.693c2.635,2.95,2.608,6.059,2.344,7.277C67.277,76.539,66.261,76.936,65.342,77.18z"/>
	<path fill-rule="evenodd" clip-rule="evenodd" fill="#BE1F49" d="M41.335,77.579c0.704-1.182-0.4-1.87,1.18-0.779
		c0.326,0.512-5.445-8.442-10.029-8.34c-2.635,2.95-2.608,6.059-2.344,7.277C31.606,78.477,41.332,77.58,41.335,77.579z"/>
	<path fill-rule="evenodd" clip-rule="evenodd" d="M37.17,76.227c3.194-2.245,1.685-4.535-0.132-5.276
		C36.427,72.726,34.552,74.064,37.17,76.227z"/>
	<path fill-rule="evenodd" clip-rule="evenodd" fill="#FFFFFF" d="M32.506,77.18c-0.615-2.964,0.387-6.067,2.48-8.027
		c-1-0.694-1.501-0.716-2.5-0.693c-2.635,2.95-2.608,6.059-2.344,7.277C30.571,76.539,31.587,76.936,32.506,77.18z"/>
	<path fill-rule="evenodd" clip-rule="evenodd" fill="#508890" d="M49.078,84.45c0,0,2.539-2.5,4.872-2.5s6.191,0.322,9.979-0.269
		c3.875-0.605,5.938,0.914,5.938,0.914s-6.416-0.139-7.833,0.399s-6.521,0-7.729,0C52.616,82.994,49.078,84.45,49.078,84.45z"/>
	<path fill-rule="evenodd" clip-rule="evenodd" fill="#508890" d="M52.212,78.56c-1.576-0.048-2.319,0.244-2.614,1.098
		s-0.077,0.896-0.04,1.146c0.578-0.917,0.745-1.05,1.008-1.125C52.091,79.249,52.212,78.56,52.212,78.56z"/>
	<path fill-rule="evenodd" clip-rule="evenodd" fill="#508890" d="M53.721,57.733c0,0-1.338,2.189-3.792,4.069
		s-1.359,6.367-1.359,6.367s3.444,0,5.151,2.508c2.326-0.104,3.626-1.141,4.008-1.728c0.382-0.587,2.184-3.481,0.806-7.146
		C57.156,58.136,53.721,57.733,53.721,57.733z"/>
	<path fill-rule="evenodd" clip-rule="evenodd" fill="#508890" d="M42.868,69.924c1.915-0.808,3.958-0.089,4.937,0.385
		s-0.604,1.752,0.021,3.28s-6.281-1.766-6.281-1.766L42.868,69.924z"/>
	<path fill-rule="evenodd" clip-rule="evenodd" fill="#508890" d="M42.868,59.782c0,0,2.248,1.252,1.248,2.876
		s-4.333,3.291-4.167,4.124s-1.333-3.5-1.333-3.5L42.868,59.782z"/>
	<path fill-rule="evenodd" clip-rule="evenodd" fill="#508890" d="M63.353,61.282c0,0,4.334-2.165,5.167-4.499
		s0.411,3.166-0.961,4.499S68.519,59.616,63.353,61.282z"/>
	<path fill-rule="evenodd" clip-rule="evenodd" fill="#508890" d="M49.042,84.432c0,0-2.539-2.5-4.872-2.5s-6.191,0.322-9.979-0.269
		c-3.875-0.605-5.938,0.914-5.938,0.914s6.416-0.139,7.833,0.399s6.521,0,7.729,0C45.504,82.977,49.042,84.432,49.042,84.432z"/>
	<path fill-rule="evenodd" clip-rule="evenodd" fill="#508890" d="M45.491,78.604c1.576-0.048,2.319,0.244,2.614,1.098
		s0.077,0.896,0.04,1.146c-0.578-0.917-0.745-1.05-1.008-1.125C45.612,79.293,45.491,78.604,45.491,78.604z"/>
	<path fill-rule="evenodd" clip-rule="evenodd" fill="#508890" d="M34.622,61.181c0,0-4.334-2.165-5.167-4.499
		s-0.411,3.166,0.961,4.499S29.456,59.515,34.622,61.181z"/>
	<path fill-rule="evenodd" clip-rule="evenodd" fill="#508890" d="M68.946,48.488c0,0,2.418-0.13,2.17-3.712s6.25,1.759,6.25,1.759
		s1,1.201-2.25,2.937s-7.294,1.173-7.294,1.173L68.946,48.488z"/>
	<path fill-rule="evenodd" clip-rule="evenodd" fill="#508890" d="M24.116,45.432c0,0-4.75,1.511-5.25,3.056
		s-0.25,1.644,2.625,0.844s4.222-2.932,4.222-2.932L24.116,45.432z"/>
	<path fill-rule="evenodd" clip-rule="evenodd" fill="#78C8B8" d="M77.941,82.994c0,0,0.518,0.331,1.967,3.918
		c0.595,1.472-0.125,2.813,1.979,5.402c1.342-1.158,1.833-1.277,1.833-1.277s0.562,0.375,1.75,1.277
		c1.563,0.385,6.521-0.063,7.688-0.402c-0.938-3.9-1.611-4.377-2.563-5.125c-1.75-1.375-3.302-9.227-4.5-15.012
		C84.117,78.546,77.941,82.994,77.941,82.994z"/>
	<path fill-rule="evenodd" clip-rule="evenodd" fill="#78C8B8" d="M20.737,82.994c0,0-0.518,0.331-1.967,3.918
		c-0.595,1.472,0.125,2.813-1.979,5.402c-1.342-1.158-1.833-1.277-1.833-1.277s-0.562,0.375-1.75,1.277
		c-1.563,0.385-6.521-0.063-7.688-0.402c0.938-3.9,1.611-4.377,2.563-5.125c1.75-1.375,3.302-9.227,4.5-15.012
		C14.562,78.546,20.737,82.994,20.737,82.994z"/>
	<path fill-rule="evenodd" clip-rule="evenodd" fill="#508890" d="M12.512,82.893c0,0,1.458,1.271,3.167-0.501
		c0.333-2.936-3.167-5.295-3.167-5.295V82.893z"/>
	<path fill-rule="evenodd" clip-rule="evenodd" fill="#508890" d="M9.346,85.517c0,0,1.542-0.75,1.625-0.833s0.22-1.847-0.244-2.292
		S9.9,83.146,9.9,83.146l-0.717,1.938L9.346,85.517z"/>
	<path fill-rule="evenodd" clip-rule="evenodd" fill="#508890" d="M84.839,76.383c0.119-0.846,1.56-2.561,1.56-2.561
		s1.5,3.704,0,4.562s-3.044,2.815-2.81,1.987C83.961,79.055,84.839,76.383,84.839,76.383z"/>
	<path fill-rule="evenodd" clip-rule="evenodd" fill="#508890" d="M88.045,80.572l-0.98,2.422c0,0-0.604,0.526,0.98,1.456
		s1.183-0.018,1.183-0.018"/>
	<path fill-rule="evenodd" clip-rule="evenodd" fill="#508890" d="M82.221,84.858l2.25-1.3c0,0,2,2.333,1.75,3.083
		s-1.977,1.657-2.655,1.37S82.221,84.858,82.221,84.858z"/>
</g>
<g id="sketch">
	<path fill="#60883C" stroke="#FFFFFF" stroke-width="4" stroke-miterlimit="10" d="M77.988,20.585
		c-2.855-0.606-7.695-1.163-11.146-0.011c-0.63,0.211-1.94,1.735-2.46,1.939c0.4-0.884-0.375-0.895,0-1.495
		c-0.563-0.433-1.265-0.1-2.045-0.264c0.617-0.381,1.653-0.18,2.412-0.043c-0.273-1.583-2.535-3.068-3.5-4.035
		c-0.845-0.186-1.97-0.292-3.105-0.078c0.831-0.511,0.206-0.858,1.105-1.027c-1.106-0.264-4.385-0.965-4.51-1.425
		c-0.335,0.09-0.971,0.247-1.167,0.322c-0.478,0.184-0.93,0.506-1.205,0.946c0.001-0.021,0.004-0.042,0.005-0.063
		c0.32-0.733,0.53-1.459,1.17-1.939c-0.242-0.118-0.478-0.287-0.726-0.368c-1.045-0.346-2.299-0.396-3.496-0.196
		c-1.197-0.2-2.452-0.15-3.497,0.196c-0.248,0.082-0.483,0.25-0.726,0.368c0.64,0.48,0.85,1.206,1.17,1.939
		c0.001,0.02,0.004,0.041,0.005,0.063c-0.275-0.439-0.727-0.762-1.205-0.946c-0.196-0.075-0.832-0.231-1.167-0.322
		c-0.125,0.46-3.404,1.161-4.51,1.425c0.9,0.169,2.481,1.198,3.312,1.708c-1.081-0.581-4.467-0.79-5.312-0.604
		c-0.965,0.967-3.227,2.452-3.5,4.035c0.902-0.139,1.784-0.08,2.453,0.041c-0.764,0.216-0.764,0.216-1.328,0.648
		c0.42,0.673-0.802,0.146-0.221,0.821c-0.315-0.034-0.771-0.17-1.31-0.35c-3.451-1.15-9.979-1.894-12.833-1.287
		c-8.795,1.866-14.417,6.438-16.417,17.337c0.203,3.174,1.25,5.063,4.25,6.117c0.244-1.673,0.125-5.013,1.875-5.841
		c-0.123,7.808,1.292,8.508,4.125,7.747c-0.75-3.608-0.018-5.72,1.227-7.885c-1,14.231,3.439,7.885,5.023,7.885
		c-0.615-2.31-0.875-5.924,0.034-8.495c0.25,8.278,2.619,8.756,6.557,6.792c-1.091-2.043-2.631-3.349-0.716-7.286
		c0.483,5.687,3.542,4.803,4.391,4.422c-0.001,0.001-0.003,0.002-0.005,0.003c-0.39,0.898-1.433,3.249-0.62,5.007
		c0.811-0.293,2.145-1.205,3.056-1.401c-1.107,0.584-1.978,1.987-2.541,2.798c0.377,1.2,1.248,2.165,2.281,2.828
		c0.875-1.176,2.094-1.38,4.469-2.069c-0.813,0.655-1.439,2.11-1.361,3.449c1.102,0.717,2.286,1.645,3.33,1.434
		c0.667-1.159,1.947-1.556,2.75-1.849c-0.5,1.38,1.925,1.75,3.125,2.297c2.069-2.738,3.182-2.285,3.828-2.244v0.001
		c0.002,0,0.004,0,0.007,0c0.002,0,0.004,0,0.006,0v-0.001c0.646-0.042,1.758-0.494,3.828,2.244c1.2-0.548,3.625-0.917,3.125-2.297
		c0.803,0.292,2.083,0.69,2.75,1.849c1.043,0.21,2.228-0.717,3.33-1.434c0.078-1.339-0.548-2.794-1.361-3.449
		c2.375,0.689,3.594,0.893,4.469,2.069c1.033-0.664,1.904-1.628,2.281-2.828c-0.563-0.811-1.434-2.213-2.541-2.798
		c0.911,0.196,2.246,1.107,3.056,1.401c0.813-1.759-0.23-4.109-0.62-5.007c-0.002-0.001-0.004-0.002-0.005-0.003
		c0.849,0.381,3.908,1.264,4.391-4.422c1.764,3.626,0.447,5.107-0.716,7.286c2.104,1.048,4.006,1.54,5.818,2.023
		c0.875-1.104,1.33-2.28,1.476-4.419c0.426,1.797,0.186,4.366,0.024,5.109c1.369,0.575,2.836,1.212,4.625,1.104
		c-0.23-1.216,0.45-1.679,0.344-4.346c0.425,0.777,0.469,1.414,0.554,2.232c2.833,0.761,4.248,0.061,4.125-7.747
		c1.75,0.828,1.631,4.167,1.875,5.841c3-1.054,4.047-2.943,4.25-6.117C92.404,27.023,86.783,22.452,77.988,20.585z M31.215,41.213
		c0.664-2.439,0.598-1.323,1.588-2.845c-0.11,2.733,0.738,1,1.66,1.207C33.147,39.926,32.222,40.506,31.215,41.213z M49.297,32.334
		c-0.426-0.06-0.8-0.114-1.096-0.158l0.18-0.561c0.215-0.001,0.53-0.027,0.916-0.071c0.385,0.044,0.7,0.07,0.916,0.071l0.18,0.561
		C50.097,32.22,49.723,32.274,49.297,32.334z M64.131,39.575c0.922-0.207,1.77,1.527,1.66-1.207c0.99,1.521,0.924,0.405,1.588,2.845
		C66.372,40.506,65.447,39.926,64.131,39.575z"/>
	<path fill="#60883C" d="M77.915,20.44c-2.855-0.606-7.695-1.163-11.146-0.011c-0.63,0.211-1.94,1.735-2.46,1.939
		c0.4-0.884-0.375-0.895,0-1.495c-0.563-0.433-1.265-0.1-2.045-0.264c0.617-0.381,1.653-0.18,2.412-0.043
		c-0.273-1.583-2.535-3.068-3.5-4.035c-0.845-0.186-1.97-0.292-3.105-0.078c0.831-0.511,0.206-0.858,1.105-1.027
		c-1.106-0.264-4.385-0.965-4.51-1.425c-0.335,0.09-0.971,0.247-1.167,0.322c-0.478,0.184-0.93,0.506-1.205,0.946
		c0.001-0.021,0.004-0.042,0.005-0.063c0.32-0.733,0.53-1.459,1.17-1.939c-0.242-0.118-0.478-0.287-0.726-0.368
		c-1.045-0.346-2.299-0.396-3.496-0.196c-1.197-0.2-2.452-0.15-3.497,0.196c-0.248,0.082-0.483,0.25-0.726,0.368
		c0.64,0.48,0.85,1.206,1.17,1.939c0.001,0.02,0.004,0.041,0.005,0.063c-0.275-0.439-0.727-0.762-1.205-0.946
		c-0.196-0.075-0.832-0.231-1.167-0.322c-0.125,0.46-3.404,1.161-4.51,1.425c0.9,0.169,2.481,1.198,3.312,1.708
		c-1.081-0.581-4.467-0.79-5.312-0.604c-0.965,0.967-3.227,2.452-3.5,4.035c0.902-0.139,1.784-0.08,2.453,0.041
		c-0.764,0.216-0.764,0.216-1.328,0.648c0.42,0.673-0.802,0.146-0.221,0.821c-0.315-0.034-0.771-0.17-1.31-0.35
		c-3.451-1.15-9.979-1.894-12.833-1.287c-8.795,1.866-14.417,6.438-16.417,17.337c0.203,3.174,1.25,5.063,4.25,6.117
		c0.244-1.673,0.125-5.013,1.875-5.841c-0.123,7.808,1.292,8.508,4.125,7.747c-0.75-3.608-0.018-5.72,1.227-7.885
		c-1,14.231,3.439,7.885,5.023,7.885c-0.615-2.31-0.875-5.924,0.034-8.495c0.25,8.278,2.619,8.756,6.557,6.792
		c-1.091-2.043-2.631-3.349-0.716-7.286c0.483,5.687,3.542,4.803,4.391,4.422c-0.001,0.001-0.003,0.002-0.005,0.003
		c-0.39,0.898-1.433,3.249-0.62,5.007c0.811-0.293,2.145-1.205,3.056-1.401c-1.107,0.584-1.978,1.987-2.541,2.798
		c0.377,1.2,1.248,2.165,2.281,2.828c0.875-1.176,2.094-1.38,4.469-2.069c-0.813,0.655-1.439,2.11-1.361,3.449
		c1.102,0.717,2.286,1.645,3.33,1.434c0.667-1.159,1.947-1.556,2.75-1.849c-0.5,1.38,1.925,1.75,3.125,2.297
		c2.069-2.738,3.182-2.285,3.828-2.244v0.001c0.002,0,0.004,0,0.007,0c0.002,0,0.004,0,0.006,0v-0.001
		c0.646-0.042,1.758-0.494,3.828,2.244c1.2-0.548,3.625-0.917,3.125-2.297c0.803,0.292,2.083,0.69,2.75,1.849
		c1.043,0.21,2.228-0.717,3.33-1.434c0.078-1.339-0.548-2.794-1.361-3.449c2.375,0.689,3.594,0.893,4.469,2.069
		c1.033-0.664,1.904-1.628,2.281-2.828c-0.563-0.811-1.434-2.213-2.541-2.798c0.911,0.196,2.246,1.107,3.056,1.401
		c0.813-1.759-0.23-4.109-0.62-5.007c-0.002-0.001-0.004-0.002-0.005-0.003c0.849,0.381,3.908,1.264,4.391-4.422
		c1.915,3.937,0.375,5.243-0.716,7.286c2.104,1.048,4.006,1.54,5.818,2.023c0.875-1.104,1.33-2.28,1.476-4.419
		c0.426,1.797,0.186,4.366,0.024,5.109c1.369,0.575,2.836,1.212,4.625,1.104c-0.23-1.216,0.45-1.679,0.344-4.346
		c0.425,0.777,0.469,1.414,0.554,2.232c2.833,0.761,4.248,0.061,4.125-7.747c1.75,0.828,1.631,4.167,1.875,5.841
		c3-1.054,4.047-2.943,4.25-6.117C92.331,26.878,86.709,22.306,77.915,20.44z M31.142,41.067c0.664-2.439,0.598-1.323,1.588-2.845
		c-0.11,2.733,0.738,1,1.66,1.207C33.074,39.781,32.149,40.361,31.142,41.067z M49.224,32.189c-0.426-0.06-0.8-0.114-1.096-0.158
		l0.18-0.561c0.215-0.001,0.53-0.027,0.916-0.071c0.385,0.044,0.7,0.07,0.916,0.071l0.18,0.561
		C50.024,32.075,49.65,32.129,49.224,32.189z M64.058,39.429c0.922-0.207,1.77,1.527,1.66-1.207c0.99,1.521,0.924,0.405,1.588,2.845
		C66.299,40.361,65.374,39.781,64.058,39.429z"/>
	<path fill-rule="evenodd" clip-rule="evenodd" fill="#FFFFFF" stroke="#FFFFFF" stroke-width="3" stroke-miterlimit="10" d="
		M42.535,12.668c3.866,3.3-0.603-2.159-0.603-2.159s3.245-3.116,3.479-3.857c0.234-0.741,1.015-1.316,1.015-1.316
		s0.153,1.506,0.798,2.508c0.645,1.002,1.614,0.774,1.4,1.973c-0.214,1.199,0.71-0.715,1.026-2.429
		c0.864,1.379,1.307,1.621,0.93,2.832s0.064,1.66,0.096,2.028c0.27-0.756,3.077,6.371,2.646,6.694
		C52.69,19.416,44.87,32.646,42.2,30.819C38.715,28.436,40.473,10.909,42.535,12.668z"/>
	<path fill-rule="evenodd" clip-rule="evenodd" fill="#D15888" d="M42.74,9.763c-0.541,0.162-1.242,0.972-0.455,1.683
		c0.787,0.711,2.128,2.475,2.128,2.331s-0.27-0.235,0.216-0.828c0.594,0.81,0.972,1.188,2.699,0.377
		c1.727-0.81,2.322-0.54,2.646-1.35c0.084-0.212,1.725-3.644-0.27-4.036c0.202,1.194-0.132,2.215-0.668,2.632
		c-0.964,0.75-1.87,1.188-3.273,1.242c-1.403,0.054-1.239-1.298-0.756-1.296c0.455,0.002,1.025,0.972,1.728-0.324
		c0.281,1.68,1.782,0.054,1.89-0.378c0.107-0.432-0.162-1.134-0.864-1.512s-0.972-1.025-1.334-2.969
		c-0.794,0.594-0.879,1.727-2.121,2.807c-0.419,0.365-0.733,0.68-0.986,0.943c0,0,0.921-0.748,1.566-0.902
		c1.944-0.465,2.632,0.972,2.632,0.972s-1.523-1.133-3.278,0.286c-0.375,0.303-0.001,0.443,0.484,0.564s-0.692,1.252-1.079,1.131
		C42.375,10.741,42.74,9.763,42.74,9.763z"/>
	<path fill-rule="evenodd" clip-rule="evenodd" fill="#D15888" d="M48.257,36.725c0,0,16.934,3.568,16.938-5.312
		c0.004-8.423-4.783-10.787-10.955-18.573c-1.161-1.465-1.404-1.458-0.891-2.862c-2.983,0.792-3.287,8.168-4.616,9.638
		c0.267-1.522,0.382-3.026,0.262-6.07c-1.835,0.771-3.613,1.636-4.095,2.047c0.594,3.078,0.809,7.451-0.055,9.448
		c0.918-12.255-5.723-13.983-5.507-16.467c-2.268,2.041,0.918,4.32-1.728,8.692c-4.889,8.081-7.735,10.379-5.076,17.308
		C35.074,41.185,48.257,36.725,48.257,36.725z"/>
	<path fill="#009444" stroke="#FFFFFF" stroke-width="2" stroke-miterlimit="10" d="M-18.25-2.375"/>
</g>
<g id="circle" display="none">
	
		<path display="inline" fill-rule="evenodd" clip-rule="evenodd" fill="none" stroke="#ED1C24" stroke-width="0.25" stroke-miterlimit="10" d="
		M50,11.464c21.21,0,38.405,17.194,38.405,38.405S71.21,88.273,50,88.273S11.595,71.08,11.595,49.869S28.789,11.464,50,11.464z"/>
	
		<path display="inline" fill-rule="evenodd" clip-rule="evenodd" fill="none" stroke="#ED1C24" stroke-width="0.25" stroke-miterlimit="10" d="
		M-271.706,174.301c-1.388,19.949-18.01,35.701-38.312,35.701s-36.923-15.752-38.311-35.701H-271.706z M-348.328,168.894
		c1.387-19.948,18.009-35.701,38.311-35.701s36.924,15.753,38.312,35.701H-348.328z"/>
</g>
</svg>
